G04 #@! TF.GenerationSoftware,KiCad,Pcbnew,(5.1.8-0-10_14)*
G04 #@! TF.CreationDate,2021-11-26T07:07:57-05:00*
G04 #@! TF.ProjectId,4809Rc,34383039-5263-42e6-9b69-6361645f7063,rev?*
G04 #@! TF.SameCoordinates,Original*
G04 #@! TF.FileFunction,Legend,Bot*
G04 #@! TF.FilePolarity,Positive*
%FSLAX46Y46*%
G04 Gerber Fmt 4.6, Leading zero omitted, Abs format (unit mm)*
G04 Created by KiCad (PCBNEW (5.1.8-0-10_14)) date 2021-11-26 07:07:57*
%MOMM*%
%LPD*%
G01*
G04 APERTURE LIST*
%ADD10C,0.120000*%
%ADD11C,0.150000*%
G04 APERTURE END LIST*
D10*
X149019260Y-93741240D02*
X150555960Y-93741240D01*
X150230840Y-86842600D02*
X151119840Y-86842600D01*
X150228300Y-91485720D02*
X151130000Y-91485720D01*
X147751800Y-85867240D02*
X147259040Y-85351620D01*
D11*
X154610920Y-84533094D02*
X153696634Y-84533094D01*
X154153777Y-84990237D02*
X154153777Y-84075951D01*
X153125205Y-84533094D02*
X152210920Y-84533094D01*
X147112071Y-89174585D02*
X147712071Y-89174585D01*
X147712071Y-88946014D01*
X147683500Y-88888871D01*
X147654928Y-88860300D01*
X147597785Y-88831728D01*
X147512071Y-88831728D01*
X147454928Y-88860300D01*
X147426357Y-88888871D01*
X147397785Y-88946014D01*
X147397785Y-89174585D01*
X147283500Y-88603157D02*
X147283500Y-88317442D01*
X147112071Y-88660300D02*
X147712071Y-88460300D01*
X147112071Y-88260300D01*
X156883042Y-96372328D02*
X156883042Y-95772328D01*
X156654471Y-95772328D01*
X156597328Y-95800900D01*
X156568757Y-95829471D01*
X156540185Y-95886614D01*
X156540185Y-95972328D01*
X156568757Y-96029471D01*
X156597328Y-96058042D01*
X156654471Y-96086614D01*
X156883042Y-96086614D01*
X156083042Y-96058042D02*
X155997328Y-96086614D01*
X155968757Y-96115185D01*
X155940185Y-96172328D01*
X155940185Y-96258042D01*
X155968757Y-96315185D01*
X155997328Y-96343757D01*
X156054471Y-96372328D01*
X156283042Y-96372328D01*
X156283042Y-95772328D01*
X156083042Y-95772328D01*
X156025900Y-95800900D01*
X155997328Y-95829471D01*
X155968757Y-95886614D01*
X155968757Y-95943757D01*
X155997328Y-96000900D01*
X156025900Y-96029471D01*
X156083042Y-96058042D01*
X156283042Y-96058042D01*
X153158842Y-95785028D02*
X153444557Y-95785028D01*
X153473128Y-96070742D01*
X153444557Y-96042171D01*
X153387414Y-96013600D01*
X153244557Y-96013600D01*
X153187414Y-96042171D01*
X153158842Y-96070742D01*
X153130271Y-96127885D01*
X153130271Y-96270742D01*
X153158842Y-96327885D01*
X153187414Y-96356457D01*
X153244557Y-96385028D01*
X153387414Y-96385028D01*
X153444557Y-96356457D01*
X153473128Y-96327885D01*
X153483920Y-91317168D02*
X153112491Y-91317168D01*
X153312491Y-91545740D01*
X153226777Y-91545740D01*
X153169634Y-91574311D01*
X153141062Y-91602882D01*
X153112491Y-91660025D01*
X153112491Y-91802882D01*
X153141062Y-91860025D01*
X153169634Y-91888597D01*
X153226777Y-91917168D01*
X153398205Y-91917168D01*
X153455348Y-91888597D01*
X153483920Y-91860025D01*
X155639748Y-91374311D02*
X155611177Y-91345740D01*
X155554034Y-91317168D01*
X155411177Y-91317168D01*
X155354034Y-91345740D01*
X155325462Y-91374311D01*
X155296891Y-91431454D01*
X155296891Y-91488597D01*
X155325462Y-91574311D01*
X155668320Y-91917168D01*
X155296891Y-91917168D01*
X156865262Y-91904468D02*
X156865262Y-91304468D01*
X156636691Y-91304468D01*
X156579548Y-91333040D01*
X156550977Y-91361611D01*
X156522405Y-91418754D01*
X156522405Y-91504468D01*
X156550977Y-91561611D01*
X156579548Y-91590182D01*
X156636691Y-91618754D01*
X156865262Y-91618754D01*
X156065262Y-91590182D02*
X155979548Y-91618754D01*
X155950977Y-91647325D01*
X155922405Y-91704468D01*
X155922405Y-91790182D01*
X155950977Y-91847325D01*
X155979548Y-91875897D01*
X156036691Y-91904468D01*
X156265262Y-91904468D01*
X156265262Y-91304468D01*
X156065262Y-91304468D01*
X156008120Y-91333040D01*
X155979548Y-91361611D01*
X155950977Y-91418754D01*
X155950977Y-91475897D01*
X155979548Y-91533040D01*
X156008120Y-91561611D01*
X156065262Y-91590182D01*
X156265262Y-91590182D01*
X155371814Y-95985028D02*
X155371814Y-96385028D01*
X155514671Y-95756457D02*
X155657528Y-96185028D01*
X155286100Y-96185028D01*
X147696831Y-88203380D02*
X147696831Y-87803380D01*
X147096831Y-88060522D01*
X147647308Y-84207328D02*
X147675880Y-84178757D01*
X147704451Y-84121614D01*
X147704451Y-83978757D01*
X147675880Y-83921614D01*
X147647308Y-83893042D01*
X147590165Y-83864471D01*
X147533022Y-83864471D01*
X147447308Y-83893042D01*
X147104451Y-84235900D01*
X147104451Y-83864471D01*
X147663811Y-86496500D02*
X147663811Y-86125071D01*
X147435240Y-86325071D01*
X147435240Y-86239357D01*
X147406668Y-86182214D01*
X147378097Y-86153642D01*
X147320954Y-86125071D01*
X147178097Y-86125071D01*
X147120954Y-86153642D01*
X147092382Y-86182214D01*
X147063811Y-86239357D01*
X147063811Y-86410785D01*
X147092382Y-86467928D01*
X147120954Y-86496500D01*
X151572943Y-85853628D02*
X151515800Y-85853628D01*
X151458657Y-85882200D01*
X151430086Y-85910771D01*
X151401514Y-85967914D01*
X151372943Y-86082200D01*
X151372943Y-86225057D01*
X151401514Y-86339342D01*
X151430086Y-86396485D01*
X151458657Y-86425057D01*
X151515800Y-86453628D01*
X151572943Y-86453628D01*
X151630086Y-86425057D01*
X151658657Y-86396485D01*
X151687229Y-86339342D01*
X151715800Y-86225057D01*
X151715800Y-86082200D01*
X151687229Y-85967914D01*
X151658657Y-85910771D01*
X151630086Y-85882200D01*
X151572943Y-85853628D01*
X150217243Y-86453628D02*
X150560100Y-86453628D01*
X150388672Y-86453628D02*
X150388672Y-85853628D01*
X150445814Y-85939342D01*
X150502957Y-85996485D01*
X150560100Y-86025057D01*
X152900645Y-86453628D02*
X152900645Y-85853628D01*
X152672074Y-85853628D01*
X152614931Y-85882200D01*
X152586360Y-85910771D01*
X152557788Y-85967914D01*
X152557788Y-86053628D01*
X152586360Y-86110771D01*
X152614931Y-86139342D01*
X152672074Y-86167914D01*
X152900645Y-86167914D01*
X152329217Y-86282200D02*
X152043502Y-86282200D01*
X152386360Y-86453628D02*
X152186360Y-85853628D01*
X151986360Y-86453628D01*
X165315852Y-102725528D02*
X164553947Y-102725528D01*
X165493652Y-100147428D02*
X164731747Y-100147428D01*
X165112700Y-100528380D02*
X165112700Y-99766476D01*
X162096428Y-85085271D02*
X162067857Y-85056700D01*
X162010714Y-85028128D01*
X161867857Y-85028128D01*
X161810714Y-85056700D01*
X161782142Y-85085271D01*
X161753571Y-85142414D01*
X161753571Y-85199557D01*
X161782142Y-85285271D01*
X162125000Y-85628128D01*
X161753571Y-85628128D01*
X160597828Y-85085271D02*
X160569257Y-85056700D01*
X160512114Y-85028128D01*
X160369257Y-85028128D01*
X160312114Y-85056700D01*
X160283542Y-85085271D01*
X160254971Y-85142414D01*
X160254971Y-85199557D01*
X160283542Y-85285271D01*
X160626400Y-85628128D01*
X160254971Y-85628128D01*
X162186885Y-87329928D02*
X162186885Y-86729928D01*
X161958314Y-86729928D01*
X161901171Y-86758500D01*
X161872600Y-86787071D01*
X161844028Y-86844214D01*
X161844028Y-86929928D01*
X161872600Y-86987071D01*
X161901171Y-87015642D01*
X161958314Y-87044214D01*
X162186885Y-87044214D01*
X161386885Y-87015642D02*
X161586885Y-87015642D01*
X161586885Y-87329928D02*
X161586885Y-86729928D01*
X161301171Y-86729928D01*
X160694743Y-86415528D02*
X161037600Y-86415528D01*
X160866172Y-86415528D02*
X160866172Y-85815528D01*
X160923314Y-85901242D01*
X160980457Y-85958385D01*
X161037600Y-85986957D01*
X162050443Y-85815528D02*
X161993300Y-85815528D01*
X161936157Y-85844100D01*
X161907586Y-85872671D01*
X161879014Y-85929814D01*
X161850443Y-86044100D01*
X161850443Y-86186957D01*
X161879014Y-86301242D01*
X161907586Y-86358385D01*
X161936157Y-86386957D01*
X161993300Y-86415528D01*
X162050443Y-86415528D01*
X162107586Y-86386957D01*
X162136157Y-86358385D01*
X162164729Y-86301242D01*
X162193300Y-86186957D01*
X162193300Y-86044100D01*
X162164729Y-85929814D01*
X162136157Y-85872671D01*
X162107586Y-85844100D01*
X162050443Y-85815528D01*
X164159485Y-84907028D02*
X163130914Y-84907028D01*
X162680914Y-84071314D02*
X161909485Y-84071314D01*
X162295200Y-85421314D02*
X162295200Y-84071314D01*
X160688057Y-85421314D02*
X161138057Y-84778457D01*
X161459485Y-85421314D02*
X161459485Y-84071314D01*
X160945200Y-84071314D01*
X160816628Y-84135600D01*
X160752342Y-84199885D01*
X160688057Y-84328457D01*
X160688057Y-84521314D01*
X160752342Y-84649885D01*
X160816628Y-84714171D01*
X160945200Y-84778457D01*
X161459485Y-84778457D01*
X160109485Y-84907028D02*
X159080914Y-84907028D01*
X159595200Y-85421314D02*
X159595200Y-84392742D01*
X163920528Y-86121900D02*
X163920528Y-86493328D01*
X164149100Y-86293328D01*
X164149100Y-86379042D01*
X164177671Y-86436185D01*
X164206242Y-86464757D01*
X164263385Y-86493328D01*
X164406242Y-86493328D01*
X164463385Y-86464757D01*
X164491957Y-86436185D01*
X164520528Y-86379042D01*
X164520528Y-86207614D01*
X164491957Y-86150471D01*
X164463385Y-86121900D01*
X163977671Y-87263343D02*
X163949100Y-87291914D01*
X163920528Y-87349057D01*
X163920528Y-87491914D01*
X163949100Y-87549057D01*
X163977671Y-87577629D01*
X164034814Y-87606200D01*
X164091957Y-87606200D01*
X164177671Y-87577629D01*
X164520528Y-87234772D01*
X164520528Y-87606200D01*
X163593428Y-86058428D02*
X162993428Y-86058428D01*
X162993428Y-86287000D01*
X163022000Y-86344142D01*
X163050571Y-86372714D01*
X163107714Y-86401285D01*
X163193428Y-86401285D01*
X163250571Y-86372714D01*
X163279142Y-86344142D01*
X163307714Y-86287000D01*
X163307714Y-86058428D01*
X163279142Y-86658428D02*
X163279142Y-86858428D01*
X163593428Y-86944142D02*
X163593428Y-86658428D01*
X162993428Y-86658428D01*
X162993428Y-86944142D01*
X163920528Y-89819200D02*
X163920528Y-89876343D01*
X163949100Y-89933486D01*
X163977671Y-89962057D01*
X164034814Y-89990629D01*
X164149100Y-90019200D01*
X164291957Y-90019200D01*
X164406242Y-89990629D01*
X164463385Y-89962057D01*
X164491957Y-89933486D01*
X164520528Y-89876343D01*
X164520528Y-89819200D01*
X164491957Y-89762057D01*
X164463385Y-89733486D01*
X164406242Y-89704914D01*
X164291957Y-89676343D01*
X164149100Y-89676343D01*
X164034814Y-89704914D01*
X163977671Y-89733486D01*
X163949100Y-89762057D01*
X163920528Y-89819200D01*
X164520528Y-88863500D02*
X164520528Y-88520643D01*
X164520528Y-88692072D02*
X163920528Y-88692072D01*
X164006242Y-88634929D01*
X164063385Y-88577786D01*
X164091957Y-88520643D01*
X165653628Y-84422914D02*
X165653628Y-85451485D01*
X166167914Y-84937200D02*
X165139342Y-84937200D01*
X165782200Y-86030057D02*
X165782200Y-86672914D01*
X166167914Y-85901485D02*
X164817914Y-86351485D01*
X166167914Y-86801485D01*
X165782200Y-87187200D02*
X165782200Y-87830057D01*
X166167914Y-87058628D02*
X164817914Y-87508628D01*
X166167914Y-87958628D01*
X164817914Y-88215771D02*
X166167914Y-88665771D01*
X164817914Y-89115771D01*
X164817914Y-89372914D02*
X166167914Y-89822914D01*
X164817914Y-90272914D01*
X165653628Y-90722914D02*
X165653628Y-91751485D01*
X162267852Y-96997828D02*
X161505947Y-96997828D01*
X159334142Y-104741628D02*
X159334142Y-104141628D01*
X159105571Y-104141628D01*
X159048428Y-104170200D01*
X159019857Y-104198771D01*
X158991285Y-104255914D01*
X158991285Y-104341628D01*
X159019857Y-104398771D01*
X159048428Y-104427342D01*
X159105571Y-104455914D01*
X159334142Y-104455914D01*
X158734142Y-104741628D02*
X158734142Y-104141628D01*
X158591285Y-104141628D01*
X158505571Y-104170200D01*
X158448428Y-104227342D01*
X158419857Y-104284485D01*
X158391285Y-104398771D01*
X158391285Y-104484485D01*
X158419857Y-104598771D01*
X158448428Y-104655914D01*
X158505571Y-104713057D01*
X158591285Y-104741628D01*
X158734142Y-104741628D01*
X152742800Y-105197357D02*
X152628514Y-105197357D01*
X152514228Y-105254500D01*
X152457085Y-105311642D01*
X152399942Y-105425928D01*
X152342800Y-105654500D01*
X152342800Y-105940214D01*
X152399942Y-106168785D01*
X152457085Y-106283071D01*
X152514228Y-106340214D01*
X152628514Y-106397357D01*
X152742800Y-106397357D01*
X152857085Y-106340214D01*
X152914228Y-106283071D01*
X152971371Y-106168785D01*
X153028514Y-105940214D01*
X153028514Y-105654500D01*
X152971371Y-105425928D01*
X152914228Y-105311642D01*
X152857085Y-105254500D01*
X152742800Y-105197357D01*
X151828514Y-105940214D02*
X150914228Y-105940214D01*
X153631942Y-106397357D02*
X154317657Y-106397357D01*
X153974800Y-106397357D02*
X153974800Y-105197357D01*
X154089085Y-105368785D01*
X154203371Y-105483071D01*
X154317657Y-105540214D01*
X155587657Y-105311642D02*
X155530514Y-105254500D01*
X155416228Y-105197357D01*
X155130514Y-105197357D01*
X155016228Y-105254500D01*
X154959085Y-105311642D01*
X154901942Y-105425928D01*
X154901942Y-105540214D01*
X154959085Y-105711642D01*
X155644800Y-106397357D01*
X154901942Y-106397357D01*
X157505428Y-105597357D02*
X157505428Y-106397357D01*
X157791142Y-105140214D02*
X158076857Y-105997357D01*
X157334000Y-105997357D01*
X156775100Y-105197357D02*
X156032242Y-105197357D01*
X156432242Y-105654500D01*
X156260814Y-105654500D01*
X156146528Y-105711642D01*
X156089385Y-105768785D01*
X156032242Y-105883071D01*
X156032242Y-106168785D01*
X156089385Y-106283071D01*
X156146528Y-106340214D01*
X156260814Y-106397357D01*
X156603671Y-106397357D01*
X156717957Y-106340214D01*
X156775100Y-106283071D01*
X149260911Y-105243802D02*
X149860911Y-105243802D01*
X149860911Y-105100945D01*
X149832340Y-105015231D01*
X149775197Y-104958088D01*
X149718054Y-104929517D01*
X149603768Y-104900945D01*
X149518054Y-104900945D01*
X149403768Y-104929517D01*
X149346625Y-104958088D01*
X149289482Y-105015231D01*
X149260911Y-105100945D01*
X149260911Y-105243802D01*
X149289482Y-104672374D02*
X149260911Y-104586660D01*
X149260911Y-104443802D01*
X149289482Y-104386660D01*
X149318054Y-104358088D01*
X149375197Y-104329517D01*
X149432340Y-104329517D01*
X149489482Y-104358088D01*
X149518054Y-104386660D01*
X149546625Y-104443802D01*
X149575197Y-104558088D01*
X149603768Y-104615231D01*
X149632340Y-104643802D01*
X149689482Y-104672374D01*
X149746625Y-104672374D01*
X149803768Y-104643802D01*
X149832340Y-104615231D01*
X149860911Y-104558088D01*
X149860911Y-104415231D01*
X149832340Y-104329517D01*
X149260911Y-104072374D02*
X149860911Y-104072374D01*
X149260911Y-103815231D02*
X149575197Y-103815231D01*
X149632340Y-103843802D01*
X149660911Y-103900945D01*
X149660911Y-103986660D01*
X149632340Y-104043802D01*
X149603768Y-104072374D01*
X149260911Y-103443802D02*
X149289482Y-103500945D01*
X149318054Y-103529517D01*
X149375197Y-103558088D01*
X149546625Y-103558088D01*
X149603768Y-103529517D01*
X149632340Y-103500945D01*
X149660911Y-103443802D01*
X149660911Y-103358088D01*
X149632340Y-103300945D01*
X149603768Y-103272374D01*
X149546625Y-103243802D01*
X149375197Y-103243802D01*
X149318054Y-103272374D01*
X149289482Y-103300945D01*
X149260911Y-103358088D01*
X149260911Y-103443802D01*
X149660911Y-103072374D02*
X149660911Y-102843802D01*
X149860911Y-102986660D02*
X149346625Y-102986660D01*
X149289482Y-102958088D01*
X149260911Y-102900945D01*
X149260911Y-102843802D01*
X148445571Y-106718042D02*
X149045571Y-106718042D01*
X149045571Y-106489471D01*
X149017000Y-106432328D01*
X148988428Y-106403757D01*
X148931285Y-106375185D01*
X148845571Y-106375185D01*
X148788428Y-106403757D01*
X148759857Y-106432328D01*
X148731285Y-106489471D01*
X148731285Y-106718042D01*
X148502714Y-105775185D02*
X148474142Y-105803757D01*
X148445571Y-105889471D01*
X148445571Y-105946614D01*
X148474142Y-106032328D01*
X148531285Y-106089471D01*
X148588428Y-106118042D01*
X148702714Y-106146614D01*
X148788428Y-106146614D01*
X148902714Y-106118042D01*
X148959857Y-106089471D01*
X149017000Y-106032328D01*
X149045571Y-105946614D01*
X149045571Y-105889471D01*
X149017000Y-105803757D01*
X148988428Y-105775185D01*
X149572628Y-96907328D02*
X149601200Y-96878757D01*
X149629771Y-96821614D01*
X149629771Y-96678757D01*
X149601200Y-96621614D01*
X149572628Y-96593042D01*
X149515485Y-96564471D01*
X149458342Y-96564471D01*
X149372628Y-96593042D01*
X149029771Y-96935900D01*
X149029771Y-96564471D01*
X147976442Y-98528714D02*
X147976442Y-97538238D01*
X148781204Y-96733476D02*
X148471680Y-96733476D01*
X148595490Y-97043000D02*
X148471680Y-96733476D01*
X148595490Y-96423952D01*
X148224061Y-96919190D02*
X148471680Y-96733476D01*
X148224061Y-96547761D01*
X147481204Y-95185857D02*
X148100252Y-95619190D01*
X147481204Y-95928714D02*
X148781204Y-95928714D01*
X148781204Y-95433476D01*
X148719300Y-95309666D01*
X148657395Y-95247761D01*
X148533585Y-95185857D01*
X148347871Y-95185857D01*
X148224061Y-95247761D01*
X148162157Y-95309666D01*
X148100252Y-95433476D01*
X148100252Y-95928714D01*
X148781204Y-94814428D02*
X148781204Y-94071571D01*
X147481204Y-94443000D02*
X148781204Y-94443000D01*
X147277171Y-94811871D02*
X147277171Y-95154728D01*
X147277171Y-94983300D02*
X147877171Y-94983300D01*
X147791457Y-95040442D01*
X147734314Y-95097585D01*
X147705742Y-95154728D01*
X147277171Y-93922871D02*
X147277171Y-94265728D01*
X147277171Y-94094300D02*
X147877171Y-94094300D01*
X147791457Y-94151442D01*
X147734314Y-94208585D01*
X147705742Y-94265728D01*
X149617071Y-94508599D02*
X149617071Y-94451456D01*
X149588500Y-94394313D01*
X149559928Y-94365742D01*
X149502785Y-94337170D01*
X149388500Y-94308599D01*
X149245642Y-94308599D01*
X149131357Y-94337170D01*
X149074214Y-94365742D01*
X149045642Y-94394313D01*
X149017071Y-94451456D01*
X149017071Y-94508599D01*
X149045642Y-94565742D01*
X149074214Y-94594313D01*
X149131357Y-94622885D01*
X149245642Y-94651456D01*
X149388500Y-94651456D01*
X149502785Y-94622885D01*
X149559928Y-94594313D01*
X149588500Y-94565742D01*
X149617071Y-94508599D01*
X149029771Y-95464299D02*
X149029771Y-95807156D01*
X149029771Y-95635728D02*
X149629771Y-95635728D01*
X149544057Y-95692870D01*
X149486914Y-95750013D01*
X149458342Y-95807156D01*
X149855271Y-96878757D02*
X150455271Y-96878757D01*
X150455271Y-96650186D01*
X150426700Y-96593043D01*
X150398128Y-96564472D01*
X150340985Y-96535900D01*
X150255271Y-96535900D01*
X150198128Y-96564472D01*
X150169557Y-96593043D01*
X150140985Y-96650186D01*
X150140985Y-96878757D01*
X149912414Y-95935900D02*
X149883842Y-95964472D01*
X149855271Y-96050186D01*
X149855271Y-96107329D01*
X149883842Y-96193043D01*
X149940985Y-96250186D01*
X149998128Y-96278757D01*
X150112414Y-96307329D01*
X150198128Y-96307329D01*
X150312414Y-96278757D01*
X150369557Y-96250186D01*
X150426700Y-96193043D01*
X150455271Y-96107329D01*
X150455271Y-96050186D01*
X150426700Y-95964472D01*
X150398128Y-95935900D01*
X149029771Y-92809999D02*
X149029771Y-93152856D01*
X149029771Y-92981428D02*
X149629771Y-92981428D01*
X149544057Y-93038570D01*
X149486914Y-93095713D01*
X149458342Y-93152856D01*
X149867971Y-93167142D02*
X150467971Y-93167142D01*
X150467971Y-92938571D01*
X150439400Y-92881428D01*
X150410828Y-92852857D01*
X150353685Y-92824285D01*
X150267971Y-92824285D01*
X150210828Y-92852857D01*
X150182257Y-92881428D01*
X150153685Y-92938571D01*
X150153685Y-93167142D01*
X150182257Y-92367142D02*
X150153685Y-92281428D01*
X150125114Y-92252857D01*
X150067971Y-92224285D01*
X149982257Y-92224285D01*
X149925114Y-92252857D01*
X149896542Y-92281428D01*
X149867971Y-92338571D01*
X149867971Y-92567142D01*
X150467971Y-92567142D01*
X150467971Y-92367142D01*
X150439400Y-92310000D01*
X150410828Y-92281428D01*
X150353685Y-92252857D01*
X150296542Y-92252857D01*
X150239400Y-92281428D01*
X150210828Y-92310000D01*
X150182257Y-92367142D01*
X150182257Y-92567142D01*
X149617071Y-91854299D02*
X149617071Y-91797156D01*
X149588500Y-91740013D01*
X149559928Y-91711442D01*
X149502785Y-91682870D01*
X149388500Y-91654299D01*
X149245642Y-91654299D01*
X149131357Y-91682870D01*
X149074214Y-91711442D01*
X149045642Y-91740013D01*
X149017071Y-91797156D01*
X149017071Y-91854299D01*
X149045642Y-91911442D01*
X149074214Y-91940013D01*
X149131357Y-91968585D01*
X149245642Y-91997156D01*
X149388500Y-91997156D01*
X149502785Y-91968585D01*
X149559928Y-91940013D01*
X149588500Y-91911442D01*
X149617071Y-91854299D01*
X153600451Y-87317242D02*
X153200451Y-87317242D01*
X153829022Y-87460099D02*
X153400451Y-87602956D01*
X153400451Y-87231528D01*
X153800451Y-88418970D02*
X153800451Y-88704685D01*
X153514737Y-88733256D01*
X153543308Y-88704685D01*
X153571880Y-88647542D01*
X153571880Y-88504685D01*
X153543308Y-88447542D01*
X153514737Y-88418970D01*
X153457594Y-88390399D01*
X153314737Y-88390399D01*
X153257594Y-88418970D01*
X153229022Y-88447542D01*
X153200451Y-88504685D01*
X153200451Y-88647542D01*
X153229022Y-88704685D01*
X153257594Y-88733256D01*
X153813151Y-89603242D02*
X153813151Y-89717528D01*
X153784580Y-89774670D01*
X153756008Y-89803242D01*
X153670294Y-89860385D01*
X153556008Y-89888956D01*
X153327437Y-89888956D01*
X153270294Y-89860385D01*
X153241722Y-89831813D01*
X153213151Y-89774670D01*
X153213151Y-89660385D01*
X153241722Y-89603242D01*
X153270294Y-89574670D01*
X153327437Y-89546099D01*
X153470294Y-89546099D01*
X153527437Y-89574670D01*
X153556008Y-89603242D01*
X153584580Y-89660385D01*
X153584580Y-89774670D01*
X153556008Y-89831813D01*
X153527437Y-89860385D01*
X153470294Y-89888956D01*
X154051351Y-89860385D02*
X154651351Y-89860385D01*
X154651351Y-89631814D01*
X154622780Y-89574671D01*
X154594208Y-89546100D01*
X154537065Y-89517528D01*
X154451351Y-89517528D01*
X154394208Y-89546100D01*
X154365637Y-89574671D01*
X154337065Y-89631814D01*
X154337065Y-89860385D01*
X154222780Y-89288957D02*
X154222780Y-89003242D01*
X154051351Y-89346100D02*
X154651351Y-89146100D01*
X154051351Y-88946100D01*
D10*
X150225760Y-86847680D02*
X150225760Y-91473020D01*
D11*
X164833252Y-96972428D02*
X164071347Y-96972428D01*
X164452300Y-97353380D02*
X164452300Y-96591476D01*
X168092300Y-96543066D02*
X167858966Y-97243066D01*
X167625633Y-96543066D01*
X167158966Y-96876400D02*
X167058966Y-96909733D01*
X167025633Y-96943066D01*
X166992300Y-97009733D01*
X166992300Y-97109733D01*
X167025633Y-97176400D01*
X167058966Y-97209733D01*
X167125633Y-97243066D01*
X167392300Y-97243066D01*
X167392300Y-96543066D01*
X167158966Y-96543066D01*
X167092300Y-96576400D01*
X167058966Y-96609733D01*
X167025633Y-96676400D01*
X167025633Y-96743066D01*
X167058966Y-96809733D01*
X167092300Y-96843066D01*
X167158966Y-96876400D01*
X167392300Y-96876400D01*
X166392300Y-97243066D02*
X166392300Y-96876400D01*
X166425633Y-96809733D01*
X166492300Y-96776400D01*
X166625633Y-96776400D01*
X166692300Y-96809733D01*
X166392300Y-97209733D02*
X166458966Y-97243066D01*
X166625633Y-97243066D01*
X166692300Y-97209733D01*
X166725633Y-97143066D01*
X166725633Y-97076400D01*
X166692300Y-97009733D01*
X166625633Y-96976400D01*
X166458966Y-96976400D01*
X166392300Y-96943066D01*
X166158966Y-96776400D02*
X165892300Y-96776400D01*
X166058966Y-96543066D02*
X166058966Y-97143066D01*
X166025633Y-97209733D01*
X165958966Y-97243066D01*
X165892300Y-97243066D01*
D10*
X150230840Y-88704420D02*
X148739860Y-87205820D01*
D11*
X150040971Y-85040828D02*
X149983828Y-85040828D01*
X149926685Y-85069400D01*
X149898114Y-85097971D01*
X149869542Y-85155114D01*
X149840971Y-85269400D01*
X149840971Y-85412257D01*
X149869542Y-85526542D01*
X149898114Y-85583685D01*
X149926685Y-85612257D01*
X149983828Y-85640828D01*
X150040971Y-85640828D01*
X150098114Y-85612257D01*
X150126685Y-85583685D01*
X150155257Y-85526542D01*
X150183828Y-85412257D01*
X150183828Y-85269400D01*
X150155257Y-85155114D01*
X150126685Y-85097971D01*
X150098114Y-85069400D01*
X150040971Y-85040828D01*
X151336371Y-85040828D02*
X151279228Y-85040828D01*
X151222085Y-85069400D01*
X151193514Y-85097971D01*
X151164942Y-85155114D01*
X151136371Y-85269400D01*
X151136371Y-85412257D01*
X151164942Y-85526542D01*
X151193514Y-85583685D01*
X151222085Y-85612257D01*
X151279228Y-85640828D01*
X151336371Y-85640828D01*
X151393514Y-85612257D01*
X151422085Y-85583685D01*
X151450657Y-85526542D01*
X151479228Y-85412257D01*
X151479228Y-85269400D01*
X151450657Y-85155114D01*
X151422085Y-85097971D01*
X151393514Y-85069400D01*
X151336371Y-85040828D01*
X156252919Y-87005966D02*
X157252919Y-87005966D01*
X157252919Y-86625014D01*
X157205300Y-86529776D01*
X157157680Y-86482157D01*
X157062442Y-86434538D01*
X156919585Y-86434538D01*
X156824347Y-86482157D01*
X156776728Y-86529776D01*
X156729109Y-86625014D01*
X156729109Y-87005966D01*
X156776728Y-85672633D02*
X156776728Y-86005966D01*
X156252919Y-86005966D02*
X157252919Y-86005966D01*
X157252919Y-85529776D01*
X157157680Y-85196442D02*
X157205300Y-85148823D01*
X157252919Y-85053585D01*
X157252919Y-84815490D01*
X157205300Y-84720252D01*
X157157680Y-84672633D01*
X157062442Y-84625014D01*
X156967204Y-84625014D01*
X156824347Y-84672633D01*
X156252919Y-85244061D01*
X156252919Y-84625014D01*
X155855919Y-87121809D02*
X155046395Y-87121809D01*
X154951157Y-87074190D01*
X154903538Y-87026571D01*
X154855919Y-86931333D01*
X154855919Y-86740857D01*
X154903538Y-86645619D01*
X154951157Y-86598000D01*
X155046395Y-86550380D01*
X155855919Y-86550380D01*
X154855919Y-86074190D02*
X155855919Y-86074190D01*
X155855919Y-85693238D01*
X155808300Y-85598000D01*
X155760680Y-85550380D01*
X155665442Y-85502761D01*
X155522585Y-85502761D01*
X155427347Y-85550380D01*
X155379728Y-85598000D01*
X155332109Y-85693238D01*
X155332109Y-86074190D01*
X154855919Y-85074190D02*
X155855919Y-85074190D01*
X155855919Y-84836095D01*
X155808300Y-84693238D01*
X155713061Y-84598000D01*
X155617823Y-84550380D01*
X155427347Y-84502761D01*
X155284490Y-84502761D01*
X155094014Y-84550380D01*
X154998776Y-84598000D01*
X154903538Y-84693238D01*
X154855919Y-84836095D01*
X154855919Y-85074190D01*
X154855919Y-84074190D02*
X155855919Y-84074190D01*
X151971257Y-84140757D02*
X151285542Y-84140757D01*
X151628400Y-85340757D02*
X151628400Y-84140757D01*
X150199828Y-85340757D02*
X150599828Y-84769328D01*
X150885542Y-85340757D02*
X150885542Y-84140757D01*
X150428400Y-84140757D01*
X150314114Y-84197900D01*
X150256971Y-84255042D01*
X150199828Y-84369328D01*
X150199828Y-84540757D01*
X150256971Y-84655042D01*
X150314114Y-84712185D01*
X150428400Y-84769328D01*
X150885542Y-84769328D01*
X151368712Y-91117728D02*
X150606807Y-91117728D01*
X152954194Y-90181061D02*
X152811337Y-90228680D01*
X152573241Y-90228680D01*
X152478003Y-90181061D01*
X152430384Y-90133442D01*
X152382765Y-90038204D01*
X152382765Y-89942966D01*
X152430384Y-89847728D01*
X152478003Y-89800109D01*
X152573241Y-89752490D01*
X152763718Y-89704871D01*
X152858956Y-89657252D01*
X152906575Y-89609633D01*
X152954194Y-89514395D01*
X152954194Y-89419157D01*
X152906575Y-89323919D01*
X152858956Y-89276300D01*
X152763718Y-89228680D01*
X152525622Y-89228680D01*
X152382765Y-89276300D01*
X151382765Y-90133442D02*
X151430384Y-90181061D01*
X151573241Y-90228680D01*
X151668480Y-90228680D01*
X151811337Y-90181061D01*
X151906575Y-90085823D01*
X151954194Y-89990585D01*
X152001813Y-89800109D01*
X152001813Y-89657252D01*
X151954194Y-89466776D01*
X151906575Y-89371538D01*
X151811337Y-89276300D01*
X151668480Y-89228680D01*
X151573241Y-89228680D01*
X151430384Y-89276300D01*
X151382765Y-89323919D01*
X150954194Y-90228680D02*
X150954194Y-89228680D01*
X150382765Y-90228680D02*
X150811337Y-89657252D01*
X150382765Y-89228680D02*
X150954194Y-89800109D01*
X152906575Y-89072980D02*
X152906575Y-88072980D01*
X152573242Y-88787266D01*
X152239908Y-88072980D01*
X152239908Y-89072980D01*
X151763718Y-89072980D02*
X151763718Y-88072980D01*
X152906575Y-87929980D02*
X152906575Y-86929980D01*
X152573242Y-87644266D01*
X152239909Y-86929980D01*
X152239909Y-87929980D01*
X151573242Y-86929980D02*
X151382766Y-86929980D01*
X151287528Y-86977600D01*
X151192290Y-87072838D01*
X151144671Y-87263314D01*
X151144671Y-87596647D01*
X151192290Y-87787123D01*
X151287528Y-87882361D01*
X151382766Y-87929980D01*
X151573242Y-87929980D01*
X151668480Y-87882361D01*
X151763718Y-87787123D01*
X151811337Y-87596647D01*
X151811337Y-87263314D01*
X151763718Y-87072838D01*
X151668480Y-86977600D01*
X151573242Y-86929980D01*
X147877171Y-92529000D02*
X147877171Y-92157571D01*
X147648600Y-92357571D01*
X147648600Y-92271857D01*
X147620028Y-92214714D01*
X147591457Y-92186142D01*
X147534314Y-92157571D01*
X147391457Y-92157571D01*
X147334314Y-92186142D01*
X147305742Y-92214714D01*
X147277171Y-92271857D01*
X147277171Y-92443285D01*
X147305742Y-92500428D01*
X147334314Y-92529000D01*
X147877171Y-91640000D02*
X147877171Y-91268571D01*
X147648600Y-91468571D01*
X147648600Y-91382857D01*
X147620028Y-91325714D01*
X147591457Y-91297142D01*
X147534314Y-91268571D01*
X147391457Y-91268571D01*
X147334314Y-91297142D01*
X147305742Y-91325714D01*
X147277171Y-91382857D01*
X147277171Y-91554285D01*
X147305742Y-91611428D01*
X147334314Y-91640000D01*
X147493904Y-92540819D02*
X148112952Y-92974152D01*
X147493904Y-93283676D02*
X148793904Y-93283676D01*
X148793904Y-92788438D01*
X148732000Y-92664628D01*
X148670095Y-92602723D01*
X148546285Y-92540819D01*
X148360571Y-92540819D01*
X148236761Y-92602723D01*
X148174857Y-92664628D01*
X148112952Y-92788438D01*
X148112952Y-93283676D01*
X148793904Y-92169390D02*
X148793904Y-91426533D01*
X147493904Y-91797961D02*
X148793904Y-91797961D01*
X147989142Y-90993200D02*
X147989142Y-90002723D01*
X147493904Y-90497961D02*
X148484380Y-90497961D01*
X147993085Y-106626985D02*
X147993085Y-105712700D01*
X148735942Y-105255557D02*
X148735942Y-104455557D01*
X147535942Y-104969842D01*
X148735942Y-103484128D02*
X148735942Y-103712700D01*
X148678800Y-103826985D01*
X148621657Y-103884128D01*
X148450228Y-103998414D01*
X148221657Y-104055557D01*
X147764514Y-104055557D01*
X147650228Y-103998414D01*
X147593085Y-103941271D01*
X147535942Y-103826985D01*
X147535942Y-103598414D01*
X147593085Y-103484128D01*
X147650228Y-103426985D01*
X147764514Y-103369842D01*
X148050228Y-103369842D01*
X148164514Y-103426985D01*
X148221657Y-103484128D01*
X148278800Y-103598414D01*
X148278800Y-103826985D01*
X148221657Y-103941271D01*
X148164514Y-103998414D01*
X148050228Y-104055557D01*
X148735942Y-102284128D02*
X148735942Y-102855557D01*
X148164514Y-102912700D01*
X148221657Y-102855557D01*
X148278800Y-102741271D01*
X148278800Y-102455557D01*
X148221657Y-102341271D01*
X148164514Y-102284128D01*
X148050228Y-102226985D01*
X147764514Y-102226985D01*
X147650228Y-102284128D01*
X147593085Y-102341271D01*
X147535942Y-102455557D01*
X147535942Y-102741271D01*
X147593085Y-102855557D01*
X147650228Y-102912700D01*
X148335942Y-101198414D02*
X147535942Y-101198414D01*
X148793085Y-101484128D02*
X147935942Y-101769842D01*
X147935942Y-101026985D01*
X158730985Y-105197357D02*
X159302414Y-105197357D01*
X159359557Y-105768785D01*
X159302414Y-105711642D01*
X159188128Y-105654500D01*
X158902414Y-105654500D01*
X158788128Y-105711642D01*
X158730985Y-105768785D01*
X158673842Y-105883071D01*
X158673842Y-106168785D01*
X158730985Y-106283071D01*
X158788128Y-106340214D01*
X158902414Y-106397357D01*
X159188128Y-106397357D01*
X159302414Y-106340214D01*
X159359557Y-106283071D01*
D10*
X149292540Y-100025200D02*
G75*
G03*
X149292540Y-100025200I-700000J0D01*
G01*
X154016400Y-94898399D02*
G75*
G03*
X154016400Y-94898399I-700000J0D01*
G01*
X156122600Y-94919800D02*
G75*
G03*
X156122600Y-94919800I-700000J0D01*
G01*
X149290000Y-88506300D02*
G75*
G03*
X149290000Y-88506300I-700000J0D01*
G01*
X154016400Y-92786200D02*
G75*
G03*
X154016400Y-92786200I-700000J0D01*
G01*
X156122600Y-92786200D02*
G75*
G03*
X156122600Y-92786200I-700000J0D01*
G01*
X149302700Y-86296500D02*
G75*
G03*
X149302700Y-86296500I-700000J0D01*
G01*
X149302700Y-84086700D02*
G75*
G03*
X149302700Y-84086700I-700000J0D01*
G01*
X159363600Y-84131800D02*
X159363600Y-84431800D01*
X159363600Y-84431800D02*
X158863600Y-84431800D01*
X161488600Y-83841800D02*
X159073600Y-83841800D01*
X159073600Y-83841800D02*
X159073600Y-84141800D01*
X159073600Y-84141800D02*
X158003600Y-84141800D01*
X158003600Y-84141800D02*
X158003600Y-78421800D01*
X158003600Y-78421800D02*
X161488600Y-78421800D01*
X161488600Y-83841800D02*
X163903600Y-83841800D01*
X163903600Y-83841800D02*
X163903600Y-84141800D01*
X163903600Y-84141800D02*
X164973600Y-84141800D01*
X164973600Y-84141800D02*
X164973600Y-78421800D01*
X164973600Y-78421800D02*
X161488600Y-78421800D01*
X147200000Y-98192400D02*
X147500000Y-98192400D01*
X147500000Y-98192400D02*
X147500000Y-98692400D01*
X146910000Y-94192400D02*
X146910000Y-98482400D01*
X146910000Y-98482400D02*
X147210000Y-98482400D01*
X147210000Y-98482400D02*
X147210000Y-99552400D01*
X147210000Y-99552400D02*
X141490000Y-99552400D01*
X141490000Y-99552400D02*
X141490000Y-94192400D01*
X146910000Y-94192400D02*
X146910000Y-89902400D01*
X146910000Y-89902400D02*
X147210000Y-89902400D01*
X147210000Y-89902400D02*
X147210000Y-88832400D01*
X147210000Y-88832400D02*
X141490000Y-88832400D01*
X141490000Y-88832400D02*
X141490000Y-94192400D01*
D11*
X149588571Y-100773137D02*
X150188571Y-100773137D01*
X150188571Y-100544565D01*
X150160000Y-100487422D01*
X150131428Y-100458851D01*
X150074285Y-100430280D01*
X149988571Y-100430280D01*
X149931428Y-100458851D01*
X149902857Y-100487422D01*
X149874285Y-100544565D01*
X149874285Y-100773137D01*
X149645714Y-99830280D02*
X149617142Y-99858851D01*
X149588571Y-99944565D01*
X149588571Y-100001708D01*
X149617142Y-100087422D01*
X149674285Y-100144565D01*
X149731428Y-100173137D01*
X149845714Y-100201708D01*
X149931428Y-100201708D01*
X150045714Y-100173137D01*
X150102857Y-100144565D01*
X150160000Y-100087422D01*
X150188571Y-100001708D01*
X150188571Y-99944565D01*
X150160000Y-99858851D01*
X150131428Y-99830280D01*
X150188571Y-99630280D02*
X150188571Y-99258851D01*
X149960000Y-99458851D01*
X149960000Y-99373137D01*
X149931428Y-99315994D01*
X149902857Y-99287422D01*
X149845714Y-99258851D01*
X149702857Y-99258851D01*
X149645714Y-99287422D01*
X149617142Y-99315994D01*
X149588571Y-99373137D01*
X149588571Y-99544565D01*
X149617142Y-99601708D01*
X149645714Y-99630280D01*
X161521733Y-79983080D02*
X161521733Y-80697366D01*
X161569352Y-80840223D01*
X161664590Y-80935461D01*
X161807447Y-80983080D01*
X161902685Y-80983080D01*
X160902685Y-80411652D02*
X160997923Y-80364033D01*
X161045542Y-80316414D01*
X161093161Y-80221176D01*
X161093161Y-80173557D01*
X161045542Y-80078319D01*
X160997923Y-80030700D01*
X160902685Y-79983080D01*
X160712209Y-79983080D01*
X160616971Y-80030700D01*
X160569352Y-80078319D01*
X160521733Y-80173557D01*
X160521733Y-80221176D01*
X160569352Y-80316414D01*
X160616971Y-80364033D01*
X160712209Y-80411652D01*
X160902685Y-80411652D01*
X160997923Y-80459271D01*
X161045542Y-80506890D01*
X161093161Y-80602128D01*
X161093161Y-80792604D01*
X161045542Y-80887842D01*
X160997923Y-80935461D01*
X160902685Y-80983080D01*
X160712209Y-80983080D01*
X160616971Y-80935461D01*
X160569352Y-80887842D01*
X160521733Y-80792604D01*
X160521733Y-80602128D01*
X160569352Y-80506890D01*
X160616971Y-80459271D01*
X160712209Y-80411652D01*
X142898880Y-95310366D02*
X143613166Y-95310366D01*
X143756023Y-95262747D01*
X143851261Y-95167509D01*
X143898880Y-95024652D01*
X143898880Y-94929414D01*
X142898880Y-95691319D02*
X142898880Y-96357985D01*
X143898880Y-95929414D01*
M02*
