G04 #@! TF.GenerationSoftware,KiCad,Pcbnew,(5.1.8-0-10_14)*
G04 #@! TF.CreationDate,2021-11-26T07:07:57-05:00*
G04 #@! TF.ProjectId,4809Rc,34383039-5263-42e6-9b69-6361645f7063,rev?*
G04 #@! TF.SameCoordinates,Original*
G04 #@! TF.FileFunction,Soldermask,Top*
G04 #@! TF.FilePolarity,Negative*
%FSLAX46Y46*%
G04 Gerber Fmt 4.6, Leading zero omitted, Abs format (unit mm)*
G04 Created by KiCad (PCBNEW (5.1.8-0-10_14)) date 2021-11-26 07:07:57*
%MOMM*%
%LPD*%
G01*
G04 APERTURE LIST*
%ADD10O,1.700000X1.700000*%
%ADD11R,1.700000X1.700000*%
%ADD12O,0.800000X1.300000*%
%ADD13R,0.250000X1.300000*%
%ADD14R,1.300000X0.250000*%
%ADD15O,1.300000X0.800000*%
%ADD16R,0.900000X0.800000*%
%ADD17R,0.800000X0.900000*%
G04 APERTURE END LIST*
D10*
X166966900Y-99809300D03*
D11*
X166966900Y-102349300D03*
D12*
X158972900Y-107403900D03*
X157722900Y-107403900D03*
X156472900Y-107403900D03*
X155222900Y-107403900D03*
X153972900Y-107403900D03*
X152722900Y-107403900D03*
G36*
G01*
X151072900Y-107853900D02*
X151072900Y-106953900D01*
G75*
G02*
X151272900Y-106753900I200000J0D01*
G01*
X151672900Y-106753900D01*
G75*
G02*
X151872900Y-106953900I0J-200000D01*
G01*
X151872900Y-107853900D01*
G75*
G02*
X151672900Y-108053900I-200000J0D01*
G01*
X151272900Y-108053900D01*
G75*
G02*
X151072900Y-107853900I0J200000D01*
G01*
G37*
G36*
G01*
X153535900Y-101369150D02*
X153535900Y-101881650D01*
G75*
G02*
X153317150Y-102100400I-218750J0D01*
G01*
X152879650Y-102100400D01*
G75*
G02*
X152660900Y-101881650I0J218750D01*
G01*
X152660900Y-101369150D01*
G75*
G02*
X152879650Y-101150400I218750J0D01*
G01*
X153317150Y-101150400D01*
G75*
G02*
X153535900Y-101369150I0J-218750D01*
G01*
G37*
G36*
G01*
X155110900Y-101369150D02*
X155110900Y-101881650D01*
G75*
G02*
X154892150Y-102100400I-218750J0D01*
G01*
X154454650Y-102100400D01*
G75*
G02*
X154235900Y-101881650I0J218750D01*
G01*
X154235900Y-101369150D01*
G75*
G02*
X154454650Y-101150400I218750J0D01*
G01*
X154892150Y-101150400D01*
G75*
G02*
X155110900Y-101369150I0J-218750D01*
G01*
G37*
D13*
X150285000Y-88360000D03*
X150785000Y-88360000D03*
X151285000Y-88360000D03*
X151785000Y-88360000D03*
X152285000Y-88360000D03*
X152785000Y-88360000D03*
X153285000Y-88360000D03*
X153785000Y-88360000D03*
X154285000Y-88360000D03*
X154785000Y-88360000D03*
X155285000Y-88360000D03*
X155785000Y-88360000D03*
D14*
X157385000Y-89960000D03*
X157385000Y-90460000D03*
X157385000Y-90960000D03*
X157385000Y-91460000D03*
X157385000Y-91960000D03*
X157385000Y-92460000D03*
X157385000Y-92960000D03*
X157385000Y-93460000D03*
X157385000Y-93960000D03*
X157385000Y-94460000D03*
X157385000Y-94960000D03*
X157385000Y-95460000D03*
D13*
X155785000Y-97060000D03*
X155285000Y-97060000D03*
X154785000Y-97060000D03*
X154285000Y-97060000D03*
X153785000Y-97060000D03*
X153285000Y-97060000D03*
X152785000Y-97060000D03*
X152285000Y-97060000D03*
X151785000Y-97060000D03*
X151285000Y-97060000D03*
X150785000Y-97060000D03*
X150285000Y-97060000D03*
D14*
X148685000Y-95460000D03*
X148685000Y-94960000D03*
X148685000Y-94460000D03*
X148685000Y-93960000D03*
X148685000Y-93460000D03*
X148685000Y-92960000D03*
X148685000Y-92460000D03*
X148685000Y-91960000D03*
X148685000Y-91460000D03*
X148685000Y-90960000D03*
X148685000Y-90460000D03*
X148685000Y-89960000D03*
D12*
X163363600Y-82981800D03*
X162113600Y-82981800D03*
X160863600Y-82981800D03*
G36*
G01*
X159213600Y-83431800D02*
X159213600Y-82531800D01*
G75*
G02*
X159413600Y-82331800I200000J0D01*
G01*
X159813600Y-82331800D01*
G75*
G02*
X160013600Y-82531800I0J-200000D01*
G01*
X160013600Y-83431800D01*
G75*
G02*
X159813600Y-83631800I-200000J0D01*
G01*
X159413600Y-83631800D01*
G75*
G02*
X159213600Y-83431800I0J200000D01*
G01*
G37*
G36*
G01*
X154894800Y-84732150D02*
X154894800Y-85244650D01*
G75*
G02*
X154676050Y-85463400I-218750J0D01*
G01*
X154238550Y-85463400D01*
G75*
G02*
X154019800Y-85244650I0J218750D01*
G01*
X154019800Y-84732150D01*
G75*
G02*
X154238550Y-84513400I218750J0D01*
G01*
X154676050Y-84513400D01*
G75*
G02*
X154894800Y-84732150I0J-218750D01*
G01*
G37*
G36*
G01*
X156469800Y-84732150D02*
X156469800Y-85244650D01*
G75*
G02*
X156251050Y-85463400I-218750J0D01*
G01*
X155813550Y-85463400D01*
G75*
G02*
X155594800Y-85244650I0J218750D01*
G01*
X155594800Y-84732150D01*
G75*
G02*
X155813550Y-84513400I218750J0D01*
G01*
X156251050Y-84513400D01*
G75*
G02*
X156469800Y-84732150I0J-218750D01*
G01*
G37*
D10*
X166979600Y-95084900D03*
X164439600Y-95084900D03*
D11*
X161899600Y-95084900D03*
D15*
X146050000Y-90442400D03*
X146050000Y-91692400D03*
X146050000Y-92942400D03*
X146050000Y-94192400D03*
X146050000Y-95442400D03*
X146050000Y-96692400D03*
G36*
G01*
X146500000Y-98342400D02*
X145600000Y-98342400D01*
G75*
G02*
X145400000Y-98142400I0J200000D01*
G01*
X145400000Y-97742400D01*
G75*
G02*
X145600000Y-97542400I200000J0D01*
G01*
X146500000Y-97542400D01*
G75*
G02*
X146700000Y-97742400I0J-200000D01*
G01*
X146700000Y-98142400D01*
G75*
G02*
X146500000Y-98342400I-200000J0D01*
G01*
G37*
X146050000Y-106180900D03*
X146050000Y-104930900D03*
X146050000Y-103680900D03*
X146050000Y-102430900D03*
G36*
G01*
X145600000Y-100780900D02*
X146500000Y-100780900D01*
G75*
G02*
X146700000Y-100980900I0J-200000D01*
G01*
X146700000Y-101380900D01*
G75*
G02*
X146500000Y-101580900I-200000J0D01*
G01*
X145600000Y-101580900D01*
G75*
G02*
X145400000Y-101380900I0J200000D01*
G01*
X145400000Y-100980900D01*
G75*
G02*
X145600000Y-100780900I200000J0D01*
G01*
G37*
X167436800Y-84986800D03*
X167436800Y-86236800D03*
X167436800Y-87486800D03*
X167436800Y-88736800D03*
X167436800Y-89986800D03*
G36*
G01*
X167886800Y-91636800D02*
X166986800Y-91636800D01*
G75*
G02*
X166786800Y-91436800I0J200000D01*
G01*
X166786800Y-91036800D01*
G75*
G02*
X166986800Y-90836800I200000J0D01*
G01*
X167886800Y-90836800D01*
G75*
G02*
X168086800Y-91036800I0J-200000D01*
G01*
X168086800Y-91436800D01*
G75*
G02*
X167886800Y-91636800I-200000J0D01*
G01*
G37*
D16*
X164296600Y-98679000D03*
X162296600Y-99629000D03*
X162296600Y-97729000D03*
G36*
G01*
X164018250Y-92094800D02*
X164530750Y-92094800D01*
G75*
G02*
X164749500Y-92313550I0J-218750D01*
G01*
X164749500Y-92751050D01*
G75*
G02*
X164530750Y-92969800I-218750J0D01*
G01*
X164018250Y-92969800D01*
G75*
G02*
X163799500Y-92751050I0J218750D01*
G01*
X163799500Y-92313550D01*
G75*
G02*
X164018250Y-92094800I218750J0D01*
G01*
G37*
G36*
G01*
X164018250Y-90519800D02*
X164530750Y-90519800D01*
G75*
G02*
X164749500Y-90738550I0J-218750D01*
G01*
X164749500Y-91176050D01*
G75*
G02*
X164530750Y-91394800I-218750J0D01*
G01*
X164018250Y-91394800D01*
G75*
G02*
X163799500Y-91176050I0J218750D01*
G01*
X163799500Y-90738550D01*
G75*
G02*
X164018250Y-90519800I218750J0D01*
G01*
G37*
G36*
G01*
X162494250Y-89097600D02*
X163006750Y-89097600D01*
G75*
G02*
X163225500Y-89316350I0J-218750D01*
G01*
X163225500Y-89753850D01*
G75*
G02*
X163006750Y-89972600I-218750J0D01*
G01*
X162494250Y-89972600D01*
G75*
G02*
X162275500Y-89753850I0J218750D01*
G01*
X162275500Y-89316350D01*
G75*
G02*
X162494250Y-89097600I218750J0D01*
G01*
G37*
G36*
G01*
X162494250Y-87522600D02*
X163006750Y-87522600D01*
G75*
G02*
X163225500Y-87741350I0J-218750D01*
G01*
X163225500Y-88178850D01*
G75*
G02*
X163006750Y-88397600I-218750J0D01*
G01*
X162494250Y-88397600D01*
G75*
G02*
X162275500Y-88178850I0J218750D01*
G01*
X162275500Y-87741350D01*
G75*
G02*
X162494250Y-87522600I218750J0D01*
G01*
G37*
G36*
G01*
X164530750Y-88397600D02*
X164018250Y-88397600D01*
G75*
G02*
X163799500Y-88178850I0J218750D01*
G01*
X163799500Y-87741350D01*
G75*
G02*
X164018250Y-87522600I218750J0D01*
G01*
X164530750Y-87522600D01*
G75*
G02*
X164749500Y-87741350I0J-218750D01*
G01*
X164749500Y-88178850D01*
G75*
G02*
X164530750Y-88397600I-218750J0D01*
G01*
G37*
G36*
G01*
X164530750Y-89972600D02*
X164018250Y-89972600D01*
G75*
G02*
X163799500Y-89753850I0J218750D01*
G01*
X163799500Y-89316350D01*
G75*
G02*
X164018250Y-89097600I218750J0D01*
G01*
X164530750Y-89097600D01*
G75*
G02*
X164749500Y-89316350I0J-218750D01*
G01*
X164749500Y-89753850D01*
G75*
G02*
X164530750Y-89972600I-218750J0D01*
G01*
G37*
G36*
G01*
X161021050Y-86100400D02*
X161533550Y-86100400D01*
G75*
G02*
X161752300Y-86319150I0J-218750D01*
G01*
X161752300Y-86756650D01*
G75*
G02*
X161533550Y-86975400I-218750J0D01*
G01*
X161021050Y-86975400D01*
G75*
G02*
X160802300Y-86756650I0J218750D01*
G01*
X160802300Y-86319150D01*
G75*
G02*
X161021050Y-86100400I218750J0D01*
G01*
G37*
G36*
G01*
X161021050Y-84525400D02*
X161533550Y-84525400D01*
G75*
G02*
X161752300Y-84744150I0J-218750D01*
G01*
X161752300Y-85181650D01*
G75*
G02*
X161533550Y-85400400I-218750J0D01*
G01*
X161021050Y-85400400D01*
G75*
G02*
X160802300Y-85181650I0J218750D01*
G01*
X160802300Y-84744150D01*
G75*
G02*
X161021050Y-84525400I218750J0D01*
G01*
G37*
G36*
G01*
X160009550Y-85400400D02*
X159497050Y-85400400D01*
G75*
G02*
X159278300Y-85181650I0J218750D01*
G01*
X159278300Y-84744150D01*
G75*
G02*
X159497050Y-84525400I218750J0D01*
G01*
X160009550Y-84525400D01*
G75*
G02*
X160228300Y-84744150I0J-218750D01*
G01*
X160228300Y-85181650D01*
G75*
G02*
X160009550Y-85400400I-218750J0D01*
G01*
G37*
G36*
G01*
X160009550Y-86975400D02*
X159497050Y-86975400D01*
G75*
G02*
X159278300Y-86756650I0J218750D01*
G01*
X159278300Y-86319150D01*
G75*
G02*
X159497050Y-86100400I218750J0D01*
G01*
X160009550Y-86100400D01*
G75*
G02*
X160228300Y-86319150I0J-218750D01*
G01*
X160228300Y-86756650D01*
G75*
G02*
X160009550Y-86975400I-218750J0D01*
G01*
G37*
D17*
X149174200Y-105101900D03*
X148224200Y-103101900D03*
X150124200Y-103101900D03*
D15*
X146050000Y-87252500D03*
X146050000Y-86002500D03*
X146050000Y-84752500D03*
G36*
G01*
X145600000Y-83102500D02*
X146500000Y-83102500D01*
G75*
G02*
X146700000Y-83302500I0J-200000D01*
G01*
X146700000Y-83702500D01*
G75*
G02*
X146500000Y-83902500I-200000J0D01*
G01*
X145600000Y-83902500D01*
G75*
G02*
X145400000Y-83702500I0J200000D01*
G01*
X145400000Y-83302500D01*
G75*
G02*
X145600000Y-83102500I200000J0D01*
G01*
G37*
G36*
G01*
X156545800Y-101369150D02*
X156545800Y-101881650D01*
G75*
G02*
X156327050Y-102100400I-218750J0D01*
G01*
X155889550Y-102100400D01*
G75*
G02*
X155670800Y-101881650I0J218750D01*
G01*
X155670800Y-101369150D01*
G75*
G02*
X155889550Y-101150400I218750J0D01*
G01*
X156327050Y-101150400D01*
G75*
G02*
X156545800Y-101369150I0J-218750D01*
G01*
G37*
G36*
G01*
X158120800Y-101369150D02*
X158120800Y-101881650D01*
G75*
G02*
X157902050Y-102100400I-218750J0D01*
G01*
X157464550Y-102100400D01*
G75*
G02*
X157245800Y-101881650I0J218750D01*
G01*
X157245800Y-101369150D01*
G75*
G02*
X157464550Y-101150400I218750J0D01*
G01*
X157902050Y-101150400D01*
G75*
G02*
X158120800Y-101369150I0J-218750D01*
G01*
G37*
D17*
X156273500Y-105114600D03*
X155323500Y-103114600D03*
X157223500Y-103114600D03*
G36*
G01*
X150526000Y-101369150D02*
X150526000Y-101881650D01*
G75*
G02*
X150307250Y-102100400I-218750J0D01*
G01*
X149869750Y-102100400D01*
G75*
G02*
X149651000Y-101881650I0J218750D01*
G01*
X149651000Y-101369150D01*
G75*
G02*
X149869750Y-101150400I218750J0D01*
G01*
X150307250Y-101150400D01*
G75*
G02*
X150526000Y-101369150I0J-218750D01*
G01*
G37*
G36*
G01*
X152101000Y-101369150D02*
X152101000Y-101881650D01*
G75*
G02*
X151882250Y-102100400I-218750J0D01*
G01*
X151444750Y-102100400D01*
G75*
G02*
X151226000Y-101881650I0J218750D01*
G01*
X151226000Y-101369150D01*
G75*
G02*
X151444750Y-101150400I218750J0D01*
G01*
X151882250Y-101150400D01*
G75*
G02*
X152101000Y-101369150I0J-218750D01*
G01*
G37*
D12*
X150353700Y-82969100D03*
X151603700Y-82969100D03*
X152853700Y-82969100D03*
X154103700Y-82969100D03*
X155353700Y-82969100D03*
G36*
G01*
X157003700Y-82519100D02*
X157003700Y-83419100D01*
G75*
G02*
X156803700Y-83619100I-200000J0D01*
G01*
X156403700Y-83619100D01*
G75*
G02*
X156203700Y-83419100I0J200000D01*
G01*
X156203700Y-82519100D01*
G75*
G02*
X156403700Y-82319100I200000J0D01*
G01*
X156803700Y-82319100D01*
G75*
G02*
X157003700Y-82519100I0J-200000D01*
G01*
G37*
G36*
G01*
X150705300Y-99303550D02*
X150705300Y-98791050D01*
G75*
G02*
X150924050Y-98572300I218750J0D01*
G01*
X151361550Y-98572300D01*
G75*
G02*
X151580300Y-98791050I0J-218750D01*
G01*
X151580300Y-99303550D01*
G75*
G02*
X151361550Y-99522300I-218750J0D01*
G01*
X150924050Y-99522300D01*
G75*
G02*
X150705300Y-99303550I0J218750D01*
G01*
G37*
G36*
G01*
X149130300Y-99303550D02*
X149130300Y-98791050D01*
G75*
G02*
X149349050Y-98572300I218750J0D01*
G01*
X149786550Y-98572300D01*
G75*
G02*
X150005300Y-98791050I0J-218750D01*
G01*
X150005300Y-99303550D01*
G75*
G02*
X149786550Y-99522300I-218750J0D01*
G01*
X149349050Y-99522300D01*
G75*
G02*
X149130300Y-99303550I0J218750D01*
G01*
G37*
G36*
G01*
X158922200Y-99582950D02*
X158922200Y-99070450D01*
G75*
G02*
X159140950Y-98851700I218750J0D01*
G01*
X159578450Y-98851700D01*
G75*
G02*
X159797200Y-99070450I0J-218750D01*
G01*
X159797200Y-99582950D01*
G75*
G02*
X159578450Y-99801700I-218750J0D01*
G01*
X159140950Y-99801700D01*
G75*
G02*
X158922200Y-99582950I0J218750D01*
G01*
G37*
G36*
G01*
X157347200Y-99582950D02*
X157347200Y-99070450D01*
G75*
G02*
X157565950Y-98851700I218750J0D01*
G01*
X158003450Y-98851700D01*
G75*
G02*
X158222200Y-99070450I0J-218750D01*
G01*
X158222200Y-99582950D01*
G75*
G02*
X158003450Y-99801700I-218750J0D01*
G01*
X157565950Y-99801700D01*
G75*
G02*
X157347200Y-99582950I0J218750D01*
G01*
G37*
G36*
G01*
X159590450Y-93503000D02*
X159077950Y-93503000D01*
G75*
G02*
X158859200Y-93284250I0J218750D01*
G01*
X158859200Y-92846750D01*
G75*
G02*
X159077950Y-92628000I218750J0D01*
G01*
X159590450Y-92628000D01*
G75*
G02*
X159809200Y-92846750I0J-218750D01*
G01*
X159809200Y-93284250D01*
G75*
G02*
X159590450Y-93503000I-218750J0D01*
G01*
G37*
G36*
G01*
X159590450Y-95078000D02*
X159077950Y-95078000D01*
G75*
G02*
X158859200Y-94859250I0J218750D01*
G01*
X158859200Y-94421750D01*
G75*
G02*
X159077950Y-94203000I218750J0D01*
G01*
X159590450Y-94203000D01*
G75*
G02*
X159809200Y-94421750I0J-218750D01*
G01*
X159809200Y-94859250D01*
G75*
G02*
X159590450Y-95078000I-218750J0D01*
G01*
G37*
G36*
G01*
X164018250Y-86100400D02*
X164530750Y-86100400D01*
G75*
G02*
X164749500Y-86319150I0J-218750D01*
G01*
X164749500Y-86756650D01*
G75*
G02*
X164530750Y-86975400I-218750J0D01*
G01*
X164018250Y-86975400D01*
G75*
G02*
X163799500Y-86756650I0J218750D01*
G01*
X163799500Y-86319150D01*
G75*
G02*
X164018250Y-86100400I218750J0D01*
G01*
G37*
G36*
G01*
X164018250Y-84525400D02*
X164530750Y-84525400D01*
G75*
G02*
X164749500Y-84744150I0J-218750D01*
G01*
X164749500Y-85181650D01*
G75*
G02*
X164530750Y-85400400I-218750J0D01*
G01*
X164018250Y-85400400D01*
G75*
G02*
X163799500Y-85181650I0J218750D01*
G01*
X163799500Y-84744150D01*
G75*
G02*
X164018250Y-84525400I218750J0D01*
G01*
G37*
G36*
G01*
X163006750Y-91394800D02*
X162494250Y-91394800D01*
G75*
G02*
X162275500Y-91176050I0J218750D01*
G01*
X162275500Y-90738550D01*
G75*
G02*
X162494250Y-90519800I218750J0D01*
G01*
X163006750Y-90519800D01*
G75*
G02*
X163225500Y-90738550I0J-218750D01*
G01*
X163225500Y-91176050D01*
G75*
G02*
X163006750Y-91394800I-218750J0D01*
G01*
G37*
G36*
G01*
X163006750Y-92969800D02*
X162494250Y-92969800D01*
G75*
G02*
X162275500Y-92751050I0J218750D01*
G01*
X162275500Y-92313550D01*
G75*
G02*
X162494250Y-92094800I218750J0D01*
G01*
X163006750Y-92094800D01*
G75*
G02*
X163225500Y-92313550I0J-218750D01*
G01*
X163225500Y-92751050D01*
G75*
G02*
X163006750Y-92969800I-218750J0D01*
G01*
G37*
G36*
G01*
X160576550Y-98863900D02*
X161089050Y-98863900D01*
G75*
G02*
X161307800Y-99082650I0J-218750D01*
G01*
X161307800Y-99520150D01*
G75*
G02*
X161089050Y-99738900I-218750J0D01*
G01*
X160576550Y-99738900D01*
G75*
G02*
X160357800Y-99520150I0J218750D01*
G01*
X160357800Y-99082650D01*
G75*
G02*
X160576550Y-98863900I218750J0D01*
G01*
G37*
G36*
G01*
X160576550Y-97288900D02*
X161089050Y-97288900D01*
G75*
G02*
X161307800Y-97507650I0J-218750D01*
G01*
X161307800Y-97945150D01*
G75*
G02*
X161089050Y-98163900I-218750J0D01*
G01*
X160576550Y-98163900D01*
G75*
G02*
X160357800Y-97945150I0J218750D01*
G01*
X160357800Y-97507650D01*
G75*
G02*
X160576550Y-97288900I218750J0D01*
G01*
G37*
G36*
G01*
X162514800Y-101381850D02*
X162514800Y-101894350D01*
G75*
G02*
X162296050Y-102113100I-218750J0D01*
G01*
X161858550Y-102113100D01*
G75*
G02*
X161639800Y-101894350I0J218750D01*
G01*
X161639800Y-101381850D01*
G75*
G02*
X161858550Y-101163100I218750J0D01*
G01*
X162296050Y-101163100D01*
G75*
G02*
X162514800Y-101381850I0J-218750D01*
G01*
G37*
G36*
G01*
X164089800Y-101381850D02*
X164089800Y-101894350D01*
G75*
G02*
X163871050Y-102113100I-218750J0D01*
G01*
X163433550Y-102113100D01*
G75*
G02*
X163214800Y-101894350I0J218750D01*
G01*
X163214800Y-101381850D01*
G75*
G02*
X163433550Y-101163100I218750J0D01*
G01*
X163871050Y-101163100D01*
G75*
G02*
X164089800Y-101381850I0J-218750D01*
G01*
G37*
G36*
G01*
X159530300Y-101369150D02*
X159530300Y-101881650D01*
G75*
G02*
X159311550Y-102100400I-218750J0D01*
G01*
X158874050Y-102100400D01*
G75*
G02*
X158655300Y-101881650I0J218750D01*
G01*
X158655300Y-101369150D01*
G75*
G02*
X158874050Y-101150400I218750J0D01*
G01*
X159311550Y-101150400D01*
G75*
G02*
X159530300Y-101369150I0J-218750D01*
G01*
G37*
G36*
G01*
X161105300Y-101369150D02*
X161105300Y-101881650D01*
G75*
G02*
X160886550Y-102100400I-218750J0D01*
G01*
X160449050Y-102100400D01*
G75*
G02*
X160230300Y-101881650I0J218750D01*
G01*
X160230300Y-101369150D01*
G75*
G02*
X160449050Y-101150400I218750J0D01*
G01*
X160886550Y-101150400D01*
G75*
G02*
X161105300Y-101369150I0J-218750D01*
G01*
G37*
D17*
X152717500Y-105114600D03*
X151767500Y-103114600D03*
X153667500Y-103114600D03*
X163372800Y-105114600D03*
X162422800Y-103114600D03*
X164322800Y-103114600D03*
X159829500Y-105114600D03*
X158879500Y-103114600D03*
X160779500Y-103114600D03*
G36*
G01*
X159590450Y-96500200D02*
X159077950Y-96500200D01*
G75*
G02*
X158859200Y-96281450I0J218750D01*
G01*
X158859200Y-95843950D01*
G75*
G02*
X159077950Y-95625200I218750J0D01*
G01*
X159590450Y-95625200D01*
G75*
G02*
X159809200Y-95843950I0J-218750D01*
G01*
X159809200Y-96281450D01*
G75*
G02*
X159590450Y-96500200I-218750J0D01*
G01*
G37*
G36*
G01*
X159590450Y-98075200D02*
X159077950Y-98075200D01*
G75*
G02*
X158859200Y-97856450I0J218750D01*
G01*
X158859200Y-97418950D01*
G75*
G02*
X159077950Y-97200200I218750J0D01*
G01*
X159590450Y-97200200D01*
G75*
G02*
X159809200Y-97418950I0J-218750D01*
G01*
X159809200Y-97856450D01*
G75*
G02*
X159590450Y-98075200I-218750J0D01*
G01*
G37*
G36*
G01*
X155648000Y-86648700D02*
X155648000Y-86223700D01*
G75*
G02*
X155860500Y-86011200I212500J0D01*
G01*
X156660500Y-86011200D01*
G75*
G02*
X156873000Y-86223700I0J-212500D01*
G01*
X156873000Y-86648700D01*
G75*
G02*
X156660500Y-86861200I-212500J0D01*
G01*
X155860500Y-86861200D01*
G75*
G02*
X155648000Y-86648700I0J212500D01*
G01*
G37*
G36*
G01*
X154023000Y-86648700D02*
X154023000Y-86223700D01*
G75*
G02*
X154235500Y-86011200I212500J0D01*
G01*
X155035500Y-86011200D01*
G75*
G02*
X155248000Y-86223700I0J-212500D01*
G01*
X155248000Y-86648700D01*
G75*
G02*
X155035500Y-86861200I-212500J0D01*
G01*
X154235500Y-86861200D01*
G75*
G02*
X154023000Y-86648700I0J212500D01*
G01*
G37*
G36*
G01*
X151882360Y-85445890D02*
X151882360Y-85958390D01*
G75*
G02*
X151663610Y-86177140I-218750J0D01*
G01*
X151226110Y-86177140D01*
G75*
G02*
X151007360Y-85958390I0J218750D01*
G01*
X151007360Y-85445890D01*
G75*
G02*
X151226110Y-85227140I218750J0D01*
G01*
X151663610Y-85227140D01*
G75*
G02*
X151882360Y-85445890I0J-218750D01*
G01*
G37*
G36*
G01*
X153457360Y-85445890D02*
X153457360Y-85958390D01*
G75*
G02*
X153238610Y-86177140I-218750J0D01*
G01*
X152801110Y-86177140D01*
G75*
G02*
X152582360Y-85958390I0J218750D01*
G01*
X152582360Y-85445890D01*
G75*
G02*
X152801110Y-85227140I218750J0D01*
G01*
X153238610Y-85227140D01*
G75*
G02*
X153457360Y-85445890I0J-218750D01*
G01*
G37*
G36*
G01*
X163032150Y-85400400D02*
X162519650Y-85400400D01*
G75*
G02*
X162300900Y-85181650I0J218750D01*
G01*
X162300900Y-84744150D01*
G75*
G02*
X162519650Y-84525400I218750J0D01*
G01*
X163032150Y-84525400D01*
G75*
G02*
X163250900Y-84744150I0J-218750D01*
G01*
X163250900Y-85181650D01*
G75*
G02*
X163032150Y-85400400I-218750J0D01*
G01*
G37*
G36*
G01*
X163032150Y-86975400D02*
X162519650Y-86975400D01*
G75*
G02*
X162300900Y-86756650I0J218750D01*
G01*
X162300900Y-86319150D01*
G75*
G02*
X162519650Y-86100400I218750J0D01*
G01*
X163032150Y-86100400D01*
G75*
G02*
X163250900Y-86319150I0J-218750D01*
G01*
X163250900Y-86756650D01*
G75*
G02*
X163032150Y-86975400I-218750J0D01*
G01*
G37*
G36*
G01*
X161482750Y-91394800D02*
X160970250Y-91394800D01*
G75*
G02*
X160751500Y-91176050I0J218750D01*
G01*
X160751500Y-90738550D01*
G75*
G02*
X160970250Y-90519800I218750J0D01*
G01*
X161482750Y-90519800D01*
G75*
G02*
X161701500Y-90738550I0J-218750D01*
G01*
X161701500Y-91176050D01*
G75*
G02*
X161482750Y-91394800I-218750J0D01*
G01*
G37*
G36*
G01*
X161482750Y-92969800D02*
X160970250Y-92969800D01*
G75*
G02*
X160751500Y-92751050I0J218750D01*
G01*
X160751500Y-92313550D01*
G75*
G02*
X160970250Y-92094800I218750J0D01*
G01*
X161482750Y-92094800D01*
G75*
G02*
X161701500Y-92313550I0J-218750D01*
G01*
X161701500Y-92751050D01*
G75*
G02*
X161482750Y-92969800I-218750J0D01*
G01*
G37*
G36*
G01*
X160970250Y-89097600D02*
X161482750Y-89097600D01*
G75*
G02*
X161701500Y-89316350I0J-218750D01*
G01*
X161701500Y-89753850D01*
G75*
G02*
X161482750Y-89972600I-218750J0D01*
G01*
X160970250Y-89972600D01*
G75*
G02*
X160751500Y-89753850I0J218750D01*
G01*
X160751500Y-89316350D01*
G75*
G02*
X160970250Y-89097600I218750J0D01*
G01*
G37*
G36*
G01*
X160970250Y-87522600D02*
X161482750Y-87522600D01*
G75*
G02*
X161701500Y-87741350I0J-218750D01*
G01*
X161701500Y-88178850D01*
G75*
G02*
X161482750Y-88397600I-218750J0D01*
G01*
X160970250Y-88397600D01*
G75*
G02*
X160751500Y-88178850I0J218750D01*
G01*
X160751500Y-87741350D01*
G75*
G02*
X160970250Y-87522600I218750J0D01*
G01*
G37*
M02*
