G04 #@! TF.GenerationSoftware,KiCad,Pcbnew,(5.1.8-0-10_14)*
G04 #@! TF.CreationDate,2021-11-26T07:07:57-05:00*
G04 #@! TF.ProjectId,4809Rc,34383039-5263-42e6-9b69-6361645f7063,rev?*
G04 #@! TF.SameCoordinates,Original*
G04 #@! TF.FileFunction,Copper,L2,Bot*
G04 #@! TF.FilePolarity,Positive*
%FSLAX46Y46*%
G04 Gerber Fmt 4.6, Leading zero omitted, Abs format (unit mm)*
G04 Created by KiCad (PCBNEW (5.1.8-0-10_14)) date 2021-11-26 07:07:57*
%MOMM*%
%LPD*%
G01*
G04 APERTURE LIST*
G04 #@! TA.AperFunction,SMDPad,CuDef*
%ADD10C,1.000000*%
G04 #@! TD*
G04 #@! TA.AperFunction,ComponentPad*
%ADD11O,1.700000X1.700000*%
G04 #@! TD*
G04 #@! TA.AperFunction,ComponentPad*
%ADD12R,1.700000X1.700000*%
G04 #@! TD*
G04 #@! TA.AperFunction,ComponentPad*
%ADD13O,0.800000X1.300000*%
G04 #@! TD*
G04 #@! TA.AperFunction,ComponentPad*
%ADD14O,1.300000X0.800000*%
G04 #@! TD*
G04 #@! TA.AperFunction,ViaPad*
%ADD15C,0.800000*%
G04 #@! TD*
G04 #@! TA.AperFunction,Conductor*
%ADD16C,0.300000*%
G04 #@! TD*
G04 #@! TA.AperFunction,Conductor*
%ADD17C,0.200000*%
G04 #@! TD*
G04 #@! TA.AperFunction,Conductor*
%ADD18C,0.254000*%
G04 #@! TD*
G04 #@! TA.AperFunction,Conductor*
%ADD19C,0.100000*%
G04 #@! TD*
G04 APERTURE END LIST*
D10*
X148592540Y-100025200D03*
X153316400Y-94898399D03*
X155422600Y-94919800D03*
X148590000Y-88506300D03*
X153316400Y-92786200D03*
X155422600Y-92786200D03*
X148602700Y-86296500D03*
X148602700Y-84086700D03*
D11*
X166966900Y-99809300D03*
D12*
X166966900Y-102349300D03*
D13*
X158972900Y-107403900D03*
X157722900Y-107403900D03*
X156472900Y-107403900D03*
X155222900Y-107403900D03*
X153972900Y-107403900D03*
X152722900Y-107403900D03*
G04 #@! TA.AperFunction,ComponentPad*
G36*
G01*
X151072900Y-107853900D02*
X151072900Y-106953900D01*
G75*
G02*
X151272900Y-106753900I200000J0D01*
G01*
X151672900Y-106753900D01*
G75*
G02*
X151872900Y-106953900I0J-200000D01*
G01*
X151872900Y-107853900D01*
G75*
G02*
X151672900Y-108053900I-200000J0D01*
G01*
X151272900Y-108053900D01*
G75*
G02*
X151072900Y-107853900I0J200000D01*
G01*
G37*
G04 #@! TD.AperFunction*
X163363600Y-82981800D03*
X162113600Y-82981800D03*
X160863600Y-82981800D03*
G04 #@! TA.AperFunction,ComponentPad*
G36*
G01*
X159213600Y-83431800D02*
X159213600Y-82531800D01*
G75*
G02*
X159413600Y-82331800I200000J0D01*
G01*
X159813600Y-82331800D01*
G75*
G02*
X160013600Y-82531800I0J-200000D01*
G01*
X160013600Y-83431800D01*
G75*
G02*
X159813600Y-83631800I-200000J0D01*
G01*
X159413600Y-83631800D01*
G75*
G02*
X159213600Y-83431800I0J200000D01*
G01*
G37*
G04 #@! TD.AperFunction*
D11*
X166979600Y-95084900D03*
X164439600Y-95084900D03*
D12*
X161899600Y-95084900D03*
D14*
X146050000Y-90442400D03*
X146050000Y-91692400D03*
X146050000Y-92942400D03*
X146050000Y-94192400D03*
X146050000Y-95442400D03*
X146050000Y-96692400D03*
G04 #@! TA.AperFunction,ComponentPad*
G36*
G01*
X146500000Y-98342400D02*
X145600000Y-98342400D01*
G75*
G02*
X145400000Y-98142400I0J200000D01*
G01*
X145400000Y-97742400D01*
G75*
G02*
X145600000Y-97542400I200000J0D01*
G01*
X146500000Y-97542400D01*
G75*
G02*
X146700000Y-97742400I0J-200000D01*
G01*
X146700000Y-98142400D01*
G75*
G02*
X146500000Y-98342400I-200000J0D01*
G01*
G37*
G04 #@! TD.AperFunction*
X146050000Y-106180900D03*
X146050000Y-104930900D03*
X146050000Y-103680900D03*
X146050000Y-102430900D03*
G04 #@! TA.AperFunction,ComponentPad*
G36*
G01*
X145600000Y-100780900D02*
X146500000Y-100780900D01*
G75*
G02*
X146700000Y-100980900I0J-200000D01*
G01*
X146700000Y-101380900D01*
G75*
G02*
X146500000Y-101580900I-200000J0D01*
G01*
X145600000Y-101580900D01*
G75*
G02*
X145400000Y-101380900I0J200000D01*
G01*
X145400000Y-100980900D01*
G75*
G02*
X145600000Y-100780900I200000J0D01*
G01*
G37*
G04 #@! TD.AperFunction*
X167436800Y-84986800D03*
X167436800Y-86236800D03*
X167436800Y-87486800D03*
X167436800Y-88736800D03*
X167436800Y-89986800D03*
G04 #@! TA.AperFunction,ComponentPad*
G36*
G01*
X167886800Y-91636800D02*
X166986800Y-91636800D01*
G75*
G02*
X166786800Y-91436800I0J200000D01*
G01*
X166786800Y-91036800D01*
G75*
G02*
X166986800Y-90836800I200000J0D01*
G01*
X167886800Y-90836800D01*
G75*
G02*
X168086800Y-91036800I0J-200000D01*
G01*
X168086800Y-91436800D01*
G75*
G02*
X167886800Y-91636800I-200000J0D01*
G01*
G37*
G04 #@! TD.AperFunction*
X146050000Y-87252500D03*
X146050000Y-86002500D03*
X146050000Y-84752500D03*
G04 #@! TA.AperFunction,ComponentPad*
G36*
G01*
X145600000Y-83102500D02*
X146500000Y-83102500D01*
G75*
G02*
X146700000Y-83302500I0J-200000D01*
G01*
X146700000Y-83702500D01*
G75*
G02*
X146500000Y-83902500I-200000J0D01*
G01*
X145600000Y-83902500D01*
G75*
G02*
X145400000Y-83702500I0J200000D01*
G01*
X145400000Y-83302500D01*
G75*
G02*
X145600000Y-83102500I200000J0D01*
G01*
G37*
G04 #@! TD.AperFunction*
D13*
X150353700Y-82969100D03*
X151603700Y-82969100D03*
X152853700Y-82969100D03*
X154103700Y-82969100D03*
X155353700Y-82969100D03*
G04 #@! TA.AperFunction,ComponentPad*
G36*
G01*
X157003700Y-82519100D02*
X157003700Y-83419100D01*
G75*
G02*
X156803700Y-83619100I-200000J0D01*
G01*
X156403700Y-83619100D01*
G75*
G02*
X156203700Y-83419100I0J200000D01*
G01*
X156203700Y-82519100D01*
G75*
G02*
X156403700Y-82319100I200000J0D01*
G01*
X156803700Y-82319100D01*
G75*
G02*
X157003700Y-82519100I0J-200000D01*
G01*
G37*
G04 #@! TD.AperFunction*
D15*
X159777900Y-104013000D03*
X161798000Y-104013000D03*
X158280100Y-104013000D03*
X156221900Y-104013000D03*
X152665900Y-104013000D03*
X154698700Y-104013000D03*
X163309300Y-104000300D03*
X149135300Y-104013000D03*
X151041114Y-104013000D03*
X148209000Y-104013000D03*
X152227957Y-95859988D03*
X151535018Y-95859994D03*
X163322000Y-99428300D03*
X163322000Y-100253800D03*
X165437940Y-86375120D03*
X160042860Y-91643200D03*
X152184100Y-86659720D03*
X160264355Y-100208310D03*
X148602700Y-84086700D03*
X148602700Y-86296500D03*
X155422600Y-92786200D03*
X153316400Y-92786200D03*
X148590000Y-88506300D03*
X155422600Y-94919800D03*
X153316400Y-94898399D03*
X148369551Y-99802211D03*
D16*
X151485000Y-95910012D02*
X151535018Y-95859994D01*
D17*
X167596500Y-89986800D02*
X167436800Y-89986800D01*
X168440100Y-93649800D02*
X168440100Y-90830400D01*
X168440100Y-90830400D02*
X167596500Y-89986800D01*
X166992300Y-95097600D02*
X168440100Y-93649800D01*
X148369551Y-99802211D02*
X148592540Y-100025200D01*
D18*
X149493120Y-82362636D02*
X149440113Y-82537376D01*
X149426700Y-82673562D01*
X149426700Y-83264637D01*
X149440113Y-83400823D01*
X149490450Y-83566761D01*
X149400423Y-83432026D01*
X149257374Y-83288977D01*
X149089167Y-83176585D01*
X148902265Y-83099167D01*
X148703851Y-83059700D01*
X148501549Y-83059700D01*
X148303135Y-83099167D01*
X148116233Y-83176585D01*
X147948026Y-83288977D01*
X147804977Y-83432026D01*
X147692585Y-83600233D01*
X147615167Y-83787135D01*
X147575700Y-83985549D01*
X147575700Y-84187851D01*
X147615167Y-84386265D01*
X147692585Y-84573167D01*
X147804977Y-84741374D01*
X147948026Y-84884423D01*
X148116233Y-84996815D01*
X148303135Y-85074233D01*
X148501549Y-85113700D01*
X148703851Y-85113700D01*
X148902265Y-85074233D01*
X149089167Y-84996815D01*
X149257374Y-84884423D01*
X149400423Y-84741374D01*
X149512815Y-84573167D01*
X149590233Y-84386265D01*
X149629700Y-84187851D01*
X149629700Y-83985549D01*
X149590233Y-83787135D01*
X149535225Y-83654336D01*
X149579199Y-83736604D01*
X149695041Y-83877759D01*
X149836195Y-83993601D01*
X149997236Y-84079680D01*
X150171976Y-84132687D01*
X150353700Y-84150585D01*
X150535423Y-84132687D01*
X150710163Y-84079680D01*
X150871204Y-83993601D01*
X150978700Y-83905382D01*
X151086195Y-83993601D01*
X151247236Y-84079680D01*
X151421976Y-84132687D01*
X151603700Y-84150585D01*
X151785423Y-84132687D01*
X151960163Y-84079680D01*
X152121204Y-83993601D01*
X152134631Y-83982582D01*
X152141417Y-83990212D01*
X152305540Y-84114355D01*
X152490728Y-84204094D01*
X152567577Y-84213766D01*
X152726700Y-84086098D01*
X152726700Y-83096100D01*
X152706700Y-83096100D01*
X152706700Y-82842100D01*
X152726700Y-82842100D01*
X152726700Y-82822100D01*
X152980700Y-82822100D01*
X152980700Y-82842100D01*
X153000700Y-82842100D01*
X153000700Y-83096100D01*
X152980700Y-83096100D01*
X152980700Y-84086098D01*
X153139823Y-84213766D01*
X153216672Y-84204094D01*
X153401860Y-84114355D01*
X153565983Y-83990212D01*
X153572768Y-83982582D01*
X153586195Y-83993601D01*
X153747236Y-84079680D01*
X153921976Y-84132687D01*
X154103700Y-84150585D01*
X154285423Y-84132687D01*
X154460163Y-84079680D01*
X154621204Y-83993601D01*
X154728700Y-83905382D01*
X154836195Y-83993601D01*
X154997236Y-84079680D01*
X155171976Y-84132687D01*
X155353700Y-84150585D01*
X155535423Y-84132687D01*
X155710163Y-84079680D01*
X155871204Y-83993601D01*
X155915239Y-83957462D01*
X155998384Y-84025698D01*
X156124514Y-84093115D01*
X156261372Y-84134631D01*
X156403700Y-84148649D01*
X156803700Y-84148649D01*
X156946028Y-84134631D01*
X157082886Y-84093115D01*
X157209016Y-84025698D01*
X157319569Y-83934969D01*
X157410298Y-83824416D01*
X157477715Y-83698286D01*
X157519231Y-83561428D01*
X157533249Y-83419100D01*
X157533249Y-82519100D01*
X157519231Y-82376772D01*
X157477715Y-82239914D01*
X157476692Y-82238000D01*
X158747396Y-82238000D01*
X158739585Y-82252614D01*
X158698069Y-82389472D01*
X158684051Y-82531800D01*
X158684051Y-83431800D01*
X158698069Y-83574128D01*
X158739585Y-83710986D01*
X158807002Y-83837116D01*
X158897731Y-83947669D01*
X159008284Y-84038398D01*
X159134414Y-84105815D01*
X159271272Y-84147331D01*
X159413600Y-84161349D01*
X159813600Y-84161349D01*
X159955928Y-84147331D01*
X160092786Y-84105815D01*
X160218916Y-84038398D01*
X160302061Y-83970162D01*
X160346096Y-84006301D01*
X160507137Y-84092380D01*
X160681877Y-84145387D01*
X160863600Y-84163285D01*
X161045324Y-84145387D01*
X161220064Y-84092380D01*
X161381105Y-84006301D01*
X161488601Y-83918082D01*
X161596096Y-84006301D01*
X161757137Y-84092380D01*
X161931877Y-84145387D01*
X162113600Y-84163285D01*
X162295324Y-84145387D01*
X162470064Y-84092380D01*
X162631105Y-84006301D01*
X162644532Y-83995282D01*
X162651317Y-84002912D01*
X162815440Y-84127055D01*
X163000628Y-84216794D01*
X163077477Y-84226466D01*
X163236600Y-84098798D01*
X163236600Y-83108800D01*
X163490600Y-83108800D01*
X163490600Y-84098798D01*
X163649723Y-84226466D01*
X163726572Y-84216794D01*
X163911760Y-84127055D01*
X164075883Y-84002912D01*
X164212633Y-83849136D01*
X164316755Y-83671636D01*
X164384248Y-83477233D01*
X164412518Y-83273399D01*
X164247362Y-83108800D01*
X163490600Y-83108800D01*
X163236600Y-83108800D01*
X163216600Y-83108800D01*
X163216600Y-82854800D01*
X163236600Y-82854800D01*
X163236600Y-82834800D01*
X163490600Y-82834800D01*
X163490600Y-82854800D01*
X164247362Y-82854800D01*
X164412518Y-82690201D01*
X164384248Y-82486367D01*
X164316755Y-82291964D01*
X164285100Y-82238000D01*
X168167629Y-82238000D01*
X168166708Y-84192203D01*
X168043264Y-84126220D01*
X167868524Y-84073213D01*
X167732338Y-84059800D01*
X167141262Y-84059800D01*
X167005076Y-84073213D01*
X166830336Y-84126220D01*
X166669295Y-84212299D01*
X166528141Y-84328141D01*
X166412299Y-84469295D01*
X166326220Y-84630336D01*
X166273213Y-84805076D01*
X166255315Y-84986800D01*
X166273213Y-85168524D01*
X166326220Y-85343264D01*
X166412299Y-85504305D01*
X166500518Y-85611800D01*
X166412299Y-85719295D01*
X166326220Y-85880336D01*
X166273213Y-86055076D01*
X166255315Y-86236800D01*
X166273213Y-86418524D01*
X166326220Y-86593264D01*
X166412299Y-86754305D01*
X166500518Y-86861800D01*
X166412299Y-86969295D01*
X166326220Y-87130336D01*
X166273213Y-87305076D01*
X166255315Y-87486800D01*
X166273213Y-87668524D01*
X166326220Y-87843264D01*
X166412299Y-88004305D01*
X166500518Y-88111800D01*
X166412299Y-88219295D01*
X166326220Y-88380336D01*
X166273213Y-88555076D01*
X166255315Y-88736800D01*
X166273213Y-88918524D01*
X166326220Y-89093264D01*
X166412299Y-89254305D01*
X166500518Y-89361800D01*
X166412299Y-89469295D01*
X166326220Y-89630336D01*
X166273213Y-89805076D01*
X166255315Y-89986800D01*
X166273213Y-90168524D01*
X166326220Y-90343264D01*
X166344820Y-90378061D01*
X166335615Y-90385615D01*
X166256263Y-90482306D01*
X166197298Y-90592620D01*
X166160988Y-90712318D01*
X166148728Y-90836800D01*
X166151800Y-90951050D01*
X166310550Y-91109800D01*
X167309800Y-91109800D01*
X167309800Y-91089800D01*
X167563800Y-91089800D01*
X167563800Y-91109800D01*
X167583800Y-91109800D01*
X167583800Y-91363800D01*
X167563800Y-91363800D01*
X167563800Y-92113050D01*
X167722550Y-92271800D01*
X167813100Y-92272564D01*
X167813100Y-93390088D01*
X167424471Y-93778717D01*
X167381256Y-93760817D01*
X167115223Y-93707900D01*
X166843977Y-93707900D01*
X166577944Y-93760817D01*
X166327346Y-93864618D01*
X166101813Y-94015314D01*
X165910014Y-94207113D01*
X165759318Y-94432646D01*
X165709600Y-94552676D01*
X165659882Y-94432646D01*
X165509186Y-94207113D01*
X165317387Y-94015314D01*
X165091854Y-93864618D01*
X164841256Y-93760817D01*
X164575223Y-93707900D01*
X164303977Y-93707900D01*
X164037944Y-93760817D01*
X163787346Y-93864618D01*
X163561813Y-94015314D01*
X163383597Y-94193530D01*
X163375412Y-94110418D01*
X163339102Y-93990720D01*
X163280137Y-93880406D01*
X163200785Y-93783715D01*
X163104094Y-93704363D01*
X162993780Y-93645398D01*
X162874082Y-93609088D01*
X162749600Y-93596828D01*
X162185350Y-93599900D01*
X162026600Y-93758650D01*
X162026600Y-94957900D01*
X162046600Y-94957900D01*
X162046600Y-95211900D01*
X162026600Y-95211900D01*
X162026600Y-96411150D01*
X162185350Y-96569900D01*
X162749600Y-96572972D01*
X162874082Y-96560712D01*
X162993780Y-96524402D01*
X163104094Y-96465437D01*
X163200785Y-96386085D01*
X163280137Y-96289394D01*
X163339102Y-96179080D01*
X163375412Y-96059382D01*
X163383597Y-95976270D01*
X163561813Y-96154486D01*
X163787346Y-96305182D01*
X164037944Y-96408983D01*
X164303977Y-96461900D01*
X164575223Y-96461900D01*
X164841256Y-96408983D01*
X165091854Y-96305182D01*
X165317387Y-96154486D01*
X165509186Y-95962687D01*
X165659882Y-95737154D01*
X165709600Y-95617124D01*
X165759318Y-95737154D01*
X165910014Y-95962687D01*
X166101813Y-96154486D01*
X166327346Y-96305182D01*
X166577944Y-96408983D01*
X166843977Y-96461900D01*
X167115223Y-96461900D01*
X167381256Y-96408983D01*
X167631854Y-96305182D01*
X167857387Y-96154486D01*
X168049186Y-95962687D01*
X168161243Y-95794982D01*
X168159679Y-99115884D01*
X168036486Y-98931513D01*
X167844687Y-98739714D01*
X167619154Y-98589018D01*
X167368556Y-98485217D01*
X167102523Y-98432300D01*
X166831277Y-98432300D01*
X166565244Y-98485217D01*
X166314646Y-98589018D01*
X166089113Y-98739714D01*
X165897314Y-98931513D01*
X165746618Y-99157046D01*
X165642817Y-99407644D01*
X165589900Y-99673677D01*
X165589900Y-99944923D01*
X165642817Y-100210956D01*
X165746618Y-100461554D01*
X165897314Y-100687087D01*
X166075530Y-100865303D01*
X165992418Y-100873488D01*
X165872720Y-100909798D01*
X165762406Y-100968763D01*
X165665715Y-101048115D01*
X165586363Y-101144806D01*
X165527398Y-101255120D01*
X165491088Y-101374818D01*
X165478828Y-101499300D01*
X165481900Y-102063550D01*
X165640650Y-102222300D01*
X166839900Y-102222300D01*
X166839900Y-102202300D01*
X167093900Y-102202300D01*
X167093900Y-102222300D01*
X167113900Y-102222300D01*
X167113900Y-102476300D01*
X167093900Y-102476300D01*
X167093900Y-103675550D01*
X167252650Y-103834300D01*
X167816900Y-103837372D01*
X167941382Y-103825112D01*
X168061080Y-103788802D01*
X168157502Y-103737263D01*
X168155472Y-108046100D01*
X159814379Y-108046100D01*
X159833480Y-108010364D01*
X159886487Y-107835624D01*
X159899900Y-107699438D01*
X159899900Y-107108362D01*
X159886487Y-106972176D01*
X159833480Y-106797436D01*
X159747401Y-106636395D01*
X159631559Y-106495241D01*
X159490404Y-106379399D01*
X159329363Y-106293320D01*
X159154623Y-106240313D01*
X158972900Y-106222415D01*
X158791176Y-106240313D01*
X158616436Y-106293320D01*
X158455395Y-106379399D01*
X158347900Y-106467618D01*
X158240404Y-106379399D01*
X158079363Y-106293320D01*
X157904623Y-106240313D01*
X157722900Y-106222415D01*
X157541176Y-106240313D01*
X157366436Y-106293320D01*
X157205395Y-106379399D01*
X157097900Y-106467618D01*
X156990404Y-106379399D01*
X156829363Y-106293320D01*
X156654623Y-106240313D01*
X156472900Y-106222415D01*
X156291176Y-106240313D01*
X156116436Y-106293320D01*
X155955395Y-106379399D01*
X155847900Y-106467618D01*
X155740404Y-106379399D01*
X155579363Y-106293320D01*
X155404623Y-106240313D01*
X155222900Y-106222415D01*
X155041176Y-106240313D01*
X154866436Y-106293320D01*
X154705395Y-106379399D01*
X154597900Y-106467618D01*
X154490404Y-106379399D01*
X154329363Y-106293320D01*
X154154623Y-106240313D01*
X153972900Y-106222415D01*
X153791176Y-106240313D01*
X153616436Y-106293320D01*
X153455395Y-106379399D01*
X153347900Y-106467618D01*
X153240404Y-106379399D01*
X153079363Y-106293320D01*
X152904623Y-106240313D01*
X152722900Y-106222415D01*
X152541176Y-106240313D01*
X152366436Y-106293320D01*
X152331639Y-106311920D01*
X152324085Y-106302715D01*
X152227394Y-106223363D01*
X152117080Y-106164398D01*
X151997382Y-106128088D01*
X151872900Y-106115828D01*
X151758650Y-106118900D01*
X151599900Y-106277650D01*
X151599900Y-107276900D01*
X151619900Y-107276900D01*
X151619900Y-107530900D01*
X151599900Y-107530900D01*
X151599900Y-107550900D01*
X151345900Y-107550900D01*
X151345900Y-107530900D01*
X150596650Y-107530900D01*
X150437900Y-107689650D01*
X150434894Y-108046100D01*
X145293771Y-108046100D01*
X145294219Y-107095372D01*
X145360164Y-107134055D01*
X145554567Y-107201548D01*
X145758401Y-107229818D01*
X145923000Y-107064662D01*
X145923000Y-106307900D01*
X146177000Y-106307900D01*
X146177000Y-107064662D01*
X146341599Y-107229818D01*
X146545433Y-107201548D01*
X146739836Y-107134055D01*
X146917336Y-107029933D01*
X147071112Y-106893183D01*
X147176465Y-106753900D01*
X150434828Y-106753900D01*
X150437900Y-107118150D01*
X150596650Y-107276900D01*
X151345900Y-107276900D01*
X151345900Y-106277650D01*
X151187150Y-106118900D01*
X151072900Y-106115828D01*
X150948418Y-106128088D01*
X150828720Y-106164398D01*
X150718406Y-106223363D01*
X150621715Y-106302715D01*
X150542363Y-106399406D01*
X150483398Y-106509720D01*
X150447088Y-106629418D01*
X150434828Y-106753900D01*
X147176465Y-106753900D01*
X147195255Y-106729060D01*
X147284994Y-106543872D01*
X147294666Y-106467023D01*
X147166998Y-106307900D01*
X146177000Y-106307900D01*
X145923000Y-106307900D01*
X145903000Y-106307900D01*
X145903000Y-106053900D01*
X145923000Y-106053900D01*
X145923000Y-106033900D01*
X146177000Y-106033900D01*
X146177000Y-106053900D01*
X147166998Y-106053900D01*
X147294666Y-105894777D01*
X147284994Y-105817928D01*
X147195255Y-105632740D01*
X147071112Y-105468617D01*
X147063482Y-105461832D01*
X147074501Y-105448405D01*
X147160580Y-105287364D01*
X147213587Y-105112624D01*
X147231485Y-104930900D01*
X147213587Y-104749176D01*
X147160580Y-104574436D01*
X147074501Y-104413395D01*
X146986282Y-104305900D01*
X147074501Y-104198405D01*
X147160580Y-104037364D01*
X147213587Y-103862624D01*
X147231485Y-103680900D01*
X147213587Y-103499176D01*
X147160580Y-103324436D01*
X147093693Y-103199300D01*
X165478828Y-103199300D01*
X165491088Y-103323782D01*
X165527398Y-103443480D01*
X165586363Y-103553794D01*
X165665715Y-103650485D01*
X165762406Y-103729837D01*
X165872720Y-103788802D01*
X165992418Y-103825112D01*
X166116900Y-103837372D01*
X166681150Y-103834300D01*
X166839900Y-103675550D01*
X166839900Y-102476300D01*
X165640650Y-102476300D01*
X165481900Y-102635050D01*
X165478828Y-103199300D01*
X147093693Y-103199300D01*
X147074501Y-103163395D01*
X146986282Y-103055900D01*
X147074501Y-102948405D01*
X147160580Y-102787364D01*
X147213587Y-102612624D01*
X147231485Y-102430900D01*
X147213587Y-102249176D01*
X147160580Y-102074436D01*
X147074501Y-101913395D01*
X147038363Y-101869360D01*
X147106598Y-101786216D01*
X147174015Y-101660086D01*
X147215531Y-101523228D01*
X147229549Y-101380900D01*
X147229549Y-100980900D01*
X147215531Y-100838572D01*
X147174015Y-100701714D01*
X147106598Y-100575584D01*
X147015869Y-100465031D01*
X146905316Y-100374302D01*
X146779186Y-100306885D01*
X146642328Y-100265369D01*
X146500000Y-100251351D01*
X145600000Y-100251351D01*
X145457672Y-100265369D01*
X145320814Y-100306885D01*
X145297411Y-100319394D01*
X145297697Y-99710910D01*
X147442551Y-99710910D01*
X147442551Y-99893512D01*
X147478175Y-100072607D01*
X147548055Y-100241310D01*
X147606947Y-100329449D01*
X147682425Y-100511667D01*
X147794817Y-100679874D01*
X147937866Y-100822923D01*
X148106073Y-100935315D01*
X148292975Y-101012733D01*
X148491389Y-101052200D01*
X148693691Y-101052200D01*
X148892105Y-101012733D01*
X149079007Y-100935315D01*
X149247214Y-100822923D01*
X149390263Y-100679874D01*
X149502655Y-100511667D01*
X149580073Y-100324765D01*
X149619540Y-100126351D01*
X149619540Y-99924049D01*
X149580073Y-99725635D01*
X149502655Y-99538733D01*
X149390263Y-99370526D01*
X149247214Y-99227477D01*
X149079007Y-99115085D01*
X148896789Y-99039607D01*
X148808650Y-98980715D01*
X148639947Y-98910835D01*
X148460852Y-98875211D01*
X148278250Y-98875211D01*
X148099155Y-98910835D01*
X147930452Y-98980715D01*
X147778623Y-99082163D01*
X147649503Y-99211283D01*
X147548055Y-99363112D01*
X147478175Y-99531815D01*
X147442551Y-99710910D01*
X145297697Y-99710910D01*
X145298046Y-98970431D01*
X145400000Y-98980472D01*
X145764250Y-98977400D01*
X145923000Y-98818650D01*
X145923000Y-98069400D01*
X146177000Y-98069400D01*
X146177000Y-98818650D01*
X146335750Y-98977400D01*
X146700000Y-98980472D01*
X146824482Y-98968212D01*
X146944180Y-98931902D01*
X147054494Y-98872937D01*
X147151185Y-98793585D01*
X147230537Y-98696894D01*
X147289502Y-98586580D01*
X147325812Y-98466882D01*
X147338072Y-98342400D01*
X147335000Y-98228150D01*
X147176250Y-98069400D01*
X146177000Y-98069400D01*
X145923000Y-98069400D01*
X145903000Y-98069400D01*
X145903000Y-97815400D01*
X145923000Y-97815400D01*
X145923000Y-97795400D01*
X146177000Y-97795400D01*
X146177000Y-97815400D01*
X147176250Y-97815400D01*
X147335000Y-97656650D01*
X147338072Y-97542400D01*
X147325812Y-97417918D01*
X147289502Y-97298220D01*
X147230537Y-97187906D01*
X147151185Y-97091215D01*
X147141980Y-97083661D01*
X147160580Y-97048864D01*
X147213587Y-96874124D01*
X147231485Y-96692400D01*
X147213587Y-96510676D01*
X147160580Y-96335936D01*
X147074501Y-96174895D01*
X146986282Y-96067400D01*
X147074501Y-95959905D01*
X147160580Y-95798864D01*
X147213587Y-95624124D01*
X147231485Y-95442400D01*
X147213587Y-95260676D01*
X147160580Y-95085936D01*
X147074501Y-94924895D01*
X146986282Y-94817400D01*
X147002820Y-94797248D01*
X152289400Y-94797248D01*
X152289400Y-94999550D01*
X152328867Y-95197964D01*
X152406285Y-95384866D01*
X152518677Y-95553073D01*
X152661726Y-95696122D01*
X152829933Y-95808514D01*
X153016835Y-95885932D01*
X153215249Y-95925399D01*
X153417551Y-95925399D01*
X153615965Y-95885932D01*
X153802867Y-95808514D01*
X153971074Y-95696122D01*
X154114123Y-95553073D01*
X154226515Y-95384866D01*
X154303933Y-95197964D01*
X154343400Y-94999550D01*
X154343400Y-94818649D01*
X154395600Y-94818649D01*
X154395600Y-95020951D01*
X154435067Y-95219365D01*
X154512485Y-95406267D01*
X154624877Y-95574474D01*
X154767926Y-95717523D01*
X154936133Y-95829915D01*
X155123035Y-95907333D01*
X155321449Y-95946800D01*
X155523751Y-95946800D01*
X155583576Y-95934900D01*
X160411528Y-95934900D01*
X160423788Y-96059382D01*
X160460098Y-96179080D01*
X160519063Y-96289394D01*
X160598415Y-96386085D01*
X160695106Y-96465437D01*
X160805420Y-96524402D01*
X160925118Y-96560712D01*
X161049600Y-96572972D01*
X161613850Y-96569900D01*
X161772600Y-96411150D01*
X161772600Y-95211900D01*
X160573350Y-95211900D01*
X160414600Y-95370650D01*
X160411528Y-95934900D01*
X155583576Y-95934900D01*
X155722165Y-95907333D01*
X155909067Y-95829915D01*
X156077274Y-95717523D01*
X156220323Y-95574474D01*
X156332715Y-95406267D01*
X156410133Y-95219365D01*
X156449600Y-95020951D01*
X156449600Y-94818649D01*
X156410133Y-94620235D01*
X156332715Y-94433333D01*
X156220323Y-94265126D01*
X156190097Y-94234900D01*
X160411528Y-94234900D01*
X160414600Y-94799150D01*
X160573350Y-94957900D01*
X161772600Y-94957900D01*
X161772600Y-93758650D01*
X161613850Y-93599900D01*
X161049600Y-93596828D01*
X160925118Y-93609088D01*
X160805420Y-93645398D01*
X160695106Y-93704363D01*
X160598415Y-93783715D01*
X160519063Y-93880406D01*
X160460098Y-93990720D01*
X160423788Y-94110418D01*
X160411528Y-94234900D01*
X156190097Y-94234900D01*
X156077274Y-94122077D01*
X155909067Y-94009685D01*
X155722165Y-93932267D01*
X155523751Y-93892800D01*
X155321449Y-93892800D01*
X155123035Y-93932267D01*
X154936133Y-94009685D01*
X154767926Y-94122077D01*
X154624877Y-94265126D01*
X154512485Y-94433333D01*
X154435067Y-94620235D01*
X154395600Y-94818649D01*
X154343400Y-94818649D01*
X154343400Y-94797248D01*
X154303933Y-94598834D01*
X154226515Y-94411932D01*
X154114123Y-94243725D01*
X153971074Y-94100676D01*
X153802867Y-93988284D01*
X153615965Y-93910866D01*
X153417551Y-93871399D01*
X153215249Y-93871399D01*
X153016835Y-93910866D01*
X152829933Y-93988284D01*
X152661726Y-94100676D01*
X152518677Y-94243725D01*
X152406285Y-94411932D01*
X152328867Y-94598834D01*
X152289400Y-94797248D01*
X147002820Y-94797248D01*
X147074501Y-94709905D01*
X147160580Y-94548864D01*
X147213587Y-94374124D01*
X147231485Y-94192400D01*
X147213587Y-94010676D01*
X147160580Y-93835936D01*
X147074501Y-93674895D01*
X146986282Y-93567400D01*
X147074501Y-93459905D01*
X147160580Y-93298864D01*
X147213587Y-93124124D01*
X147231485Y-92942400D01*
X147213587Y-92760676D01*
X147190646Y-92685049D01*
X152289400Y-92685049D01*
X152289400Y-92887351D01*
X152328867Y-93085765D01*
X152406285Y-93272667D01*
X152518677Y-93440874D01*
X152661726Y-93583923D01*
X152829933Y-93696315D01*
X153016835Y-93773733D01*
X153215249Y-93813200D01*
X153417551Y-93813200D01*
X153615965Y-93773733D01*
X153802867Y-93696315D01*
X153971074Y-93583923D01*
X154114123Y-93440874D01*
X154226515Y-93272667D01*
X154303933Y-93085765D01*
X154343400Y-92887351D01*
X154343400Y-92685049D01*
X154395600Y-92685049D01*
X154395600Y-92887351D01*
X154435067Y-93085765D01*
X154512485Y-93272667D01*
X154624877Y-93440874D01*
X154767926Y-93583923D01*
X154936133Y-93696315D01*
X155123035Y-93773733D01*
X155321449Y-93813200D01*
X155523751Y-93813200D01*
X155722165Y-93773733D01*
X155909067Y-93696315D01*
X156077274Y-93583923D01*
X156220323Y-93440874D01*
X156332715Y-93272667D01*
X156410133Y-93085765D01*
X156449600Y-92887351D01*
X156449600Y-92685049D01*
X156410133Y-92486635D01*
X156332715Y-92299733D01*
X156220323Y-92131526D01*
X156077274Y-91988477D01*
X155909067Y-91876085D01*
X155722165Y-91798667D01*
X155523751Y-91759200D01*
X155321449Y-91759200D01*
X155123035Y-91798667D01*
X154936133Y-91876085D01*
X154767926Y-91988477D01*
X154624877Y-92131526D01*
X154512485Y-92299733D01*
X154435067Y-92486635D01*
X154395600Y-92685049D01*
X154343400Y-92685049D01*
X154303933Y-92486635D01*
X154226515Y-92299733D01*
X154114123Y-92131526D01*
X153971074Y-91988477D01*
X153802867Y-91876085D01*
X153615965Y-91798667D01*
X153417551Y-91759200D01*
X153215249Y-91759200D01*
X153016835Y-91798667D01*
X152829933Y-91876085D01*
X152661726Y-91988477D01*
X152518677Y-92131526D01*
X152406285Y-92299733D01*
X152328867Y-92486635D01*
X152289400Y-92685049D01*
X147190646Y-92685049D01*
X147160580Y-92585936D01*
X147074501Y-92424895D01*
X146986282Y-92317400D01*
X147074501Y-92209905D01*
X147160580Y-92048864D01*
X147213587Y-91874124D01*
X147231485Y-91692400D01*
X147226009Y-91636800D01*
X166148728Y-91636800D01*
X166160988Y-91761282D01*
X166197298Y-91880980D01*
X166256263Y-91991294D01*
X166335615Y-92087985D01*
X166432306Y-92167337D01*
X166542620Y-92226302D01*
X166662318Y-92262612D01*
X166786800Y-92274872D01*
X167151050Y-92271800D01*
X167309800Y-92113050D01*
X167309800Y-91363800D01*
X166310550Y-91363800D01*
X166151800Y-91522550D01*
X166148728Y-91636800D01*
X147226009Y-91636800D01*
X147213587Y-91510676D01*
X147160580Y-91335936D01*
X147074501Y-91174895D01*
X146986282Y-91067400D01*
X147074501Y-90959905D01*
X147160580Y-90798864D01*
X147213587Y-90624124D01*
X147231485Y-90442400D01*
X147213587Y-90260676D01*
X147160580Y-90085936D01*
X147074501Y-89924895D01*
X146958659Y-89783741D01*
X146817505Y-89667899D01*
X146656464Y-89581820D01*
X146481724Y-89528813D01*
X146345538Y-89515400D01*
X145754462Y-89515400D01*
X145618276Y-89528813D01*
X145443536Y-89581820D01*
X145302433Y-89657242D01*
X145303023Y-88405149D01*
X147563000Y-88405149D01*
X147563000Y-88607451D01*
X147602467Y-88805865D01*
X147679885Y-88992767D01*
X147792277Y-89160974D01*
X147935326Y-89304023D01*
X148103533Y-89416415D01*
X148290435Y-89493833D01*
X148488849Y-89533300D01*
X148691151Y-89533300D01*
X148889565Y-89493833D01*
X149076467Y-89416415D01*
X149244674Y-89304023D01*
X149387723Y-89160974D01*
X149500115Y-88992767D01*
X149577533Y-88805865D01*
X149617000Y-88607451D01*
X149617000Y-88405149D01*
X149577533Y-88206735D01*
X149500115Y-88019833D01*
X149387723Y-87851626D01*
X149244674Y-87708577D01*
X149076467Y-87596185D01*
X148889565Y-87518767D01*
X148691151Y-87479300D01*
X148488849Y-87479300D01*
X148290435Y-87518767D01*
X148103533Y-87596185D01*
X147935326Y-87708577D01*
X147792277Y-87851626D01*
X147679885Y-88019833D01*
X147602467Y-88206735D01*
X147563000Y-88405149D01*
X145303023Y-88405149D01*
X145303133Y-88172200D01*
X145360164Y-88205655D01*
X145554567Y-88273148D01*
X145758401Y-88301418D01*
X145923000Y-88136262D01*
X145923000Y-87379500D01*
X146177000Y-87379500D01*
X146177000Y-88136262D01*
X146341599Y-88301418D01*
X146545433Y-88273148D01*
X146739836Y-88205655D01*
X146917336Y-88101533D01*
X147071112Y-87964783D01*
X147195255Y-87800660D01*
X147284994Y-87615472D01*
X147294666Y-87538623D01*
X147166998Y-87379500D01*
X146177000Y-87379500D01*
X145923000Y-87379500D01*
X145903000Y-87379500D01*
X145903000Y-87125500D01*
X145923000Y-87125500D01*
X145923000Y-87105500D01*
X146177000Y-87105500D01*
X146177000Y-87125500D01*
X147166998Y-87125500D01*
X147294666Y-86966377D01*
X147284994Y-86889528D01*
X147195255Y-86704340D01*
X147071112Y-86540217D01*
X147063482Y-86533432D01*
X147074501Y-86520005D01*
X147160580Y-86358964D01*
X147210212Y-86195349D01*
X147575700Y-86195349D01*
X147575700Y-86397651D01*
X147615167Y-86596065D01*
X147692585Y-86782967D01*
X147804977Y-86951174D01*
X147948026Y-87094223D01*
X148116233Y-87206615D01*
X148303135Y-87284033D01*
X148501549Y-87323500D01*
X148703851Y-87323500D01*
X148902265Y-87284033D01*
X149089167Y-87206615D01*
X149257374Y-87094223D01*
X149400423Y-86951174D01*
X149512815Y-86782967D01*
X149590233Y-86596065D01*
X149629700Y-86397651D01*
X149629700Y-86195349D01*
X149590233Y-85996935D01*
X149512815Y-85810033D01*
X149400423Y-85641826D01*
X149257374Y-85498777D01*
X149089167Y-85386385D01*
X148902265Y-85308967D01*
X148703851Y-85269500D01*
X148501549Y-85269500D01*
X148303135Y-85308967D01*
X148116233Y-85386385D01*
X147948026Y-85498777D01*
X147804977Y-85641826D01*
X147692585Y-85810033D01*
X147615167Y-85996935D01*
X147575700Y-86195349D01*
X147210212Y-86195349D01*
X147213587Y-86184224D01*
X147231485Y-86002500D01*
X147213587Y-85820776D01*
X147160580Y-85646036D01*
X147074501Y-85484995D01*
X146986282Y-85377500D01*
X147074501Y-85270005D01*
X147160580Y-85108964D01*
X147213587Y-84934224D01*
X147231485Y-84752500D01*
X147213587Y-84570776D01*
X147160580Y-84396036D01*
X147074501Y-84234995D01*
X147038363Y-84190960D01*
X147106598Y-84107816D01*
X147174015Y-83981686D01*
X147215531Y-83844828D01*
X147229549Y-83702500D01*
X147229549Y-83302500D01*
X147215531Y-83160172D01*
X147174015Y-83023314D01*
X147106598Y-82897184D01*
X147015869Y-82786631D01*
X146905316Y-82695902D01*
X146779186Y-82628485D01*
X146642328Y-82586969D01*
X146500000Y-82572951D01*
X145600000Y-82572951D01*
X145457672Y-82586969D01*
X145320814Y-82628485D01*
X145305740Y-82636542D01*
X145305928Y-82238000D01*
X149559741Y-82238000D01*
X149493120Y-82362636D01*
G04 #@! TA.AperFunction,Conductor*
D19*
G36*
X149493120Y-82362636D02*
G01*
X149440113Y-82537376D01*
X149426700Y-82673562D01*
X149426700Y-83264637D01*
X149440113Y-83400823D01*
X149490450Y-83566761D01*
X149400423Y-83432026D01*
X149257374Y-83288977D01*
X149089167Y-83176585D01*
X148902265Y-83099167D01*
X148703851Y-83059700D01*
X148501549Y-83059700D01*
X148303135Y-83099167D01*
X148116233Y-83176585D01*
X147948026Y-83288977D01*
X147804977Y-83432026D01*
X147692585Y-83600233D01*
X147615167Y-83787135D01*
X147575700Y-83985549D01*
X147575700Y-84187851D01*
X147615167Y-84386265D01*
X147692585Y-84573167D01*
X147804977Y-84741374D01*
X147948026Y-84884423D01*
X148116233Y-84996815D01*
X148303135Y-85074233D01*
X148501549Y-85113700D01*
X148703851Y-85113700D01*
X148902265Y-85074233D01*
X149089167Y-84996815D01*
X149257374Y-84884423D01*
X149400423Y-84741374D01*
X149512815Y-84573167D01*
X149590233Y-84386265D01*
X149629700Y-84187851D01*
X149629700Y-83985549D01*
X149590233Y-83787135D01*
X149535225Y-83654336D01*
X149579199Y-83736604D01*
X149695041Y-83877759D01*
X149836195Y-83993601D01*
X149997236Y-84079680D01*
X150171976Y-84132687D01*
X150353700Y-84150585D01*
X150535423Y-84132687D01*
X150710163Y-84079680D01*
X150871204Y-83993601D01*
X150978700Y-83905382D01*
X151086195Y-83993601D01*
X151247236Y-84079680D01*
X151421976Y-84132687D01*
X151603700Y-84150585D01*
X151785423Y-84132687D01*
X151960163Y-84079680D01*
X152121204Y-83993601D01*
X152134631Y-83982582D01*
X152141417Y-83990212D01*
X152305540Y-84114355D01*
X152490728Y-84204094D01*
X152567577Y-84213766D01*
X152726700Y-84086098D01*
X152726700Y-83096100D01*
X152706700Y-83096100D01*
X152706700Y-82842100D01*
X152726700Y-82842100D01*
X152726700Y-82822100D01*
X152980700Y-82822100D01*
X152980700Y-82842100D01*
X153000700Y-82842100D01*
X153000700Y-83096100D01*
X152980700Y-83096100D01*
X152980700Y-84086098D01*
X153139823Y-84213766D01*
X153216672Y-84204094D01*
X153401860Y-84114355D01*
X153565983Y-83990212D01*
X153572768Y-83982582D01*
X153586195Y-83993601D01*
X153747236Y-84079680D01*
X153921976Y-84132687D01*
X154103700Y-84150585D01*
X154285423Y-84132687D01*
X154460163Y-84079680D01*
X154621204Y-83993601D01*
X154728700Y-83905382D01*
X154836195Y-83993601D01*
X154997236Y-84079680D01*
X155171976Y-84132687D01*
X155353700Y-84150585D01*
X155535423Y-84132687D01*
X155710163Y-84079680D01*
X155871204Y-83993601D01*
X155915239Y-83957462D01*
X155998384Y-84025698D01*
X156124514Y-84093115D01*
X156261372Y-84134631D01*
X156403700Y-84148649D01*
X156803700Y-84148649D01*
X156946028Y-84134631D01*
X157082886Y-84093115D01*
X157209016Y-84025698D01*
X157319569Y-83934969D01*
X157410298Y-83824416D01*
X157477715Y-83698286D01*
X157519231Y-83561428D01*
X157533249Y-83419100D01*
X157533249Y-82519100D01*
X157519231Y-82376772D01*
X157477715Y-82239914D01*
X157476692Y-82238000D01*
X158747396Y-82238000D01*
X158739585Y-82252614D01*
X158698069Y-82389472D01*
X158684051Y-82531800D01*
X158684051Y-83431800D01*
X158698069Y-83574128D01*
X158739585Y-83710986D01*
X158807002Y-83837116D01*
X158897731Y-83947669D01*
X159008284Y-84038398D01*
X159134414Y-84105815D01*
X159271272Y-84147331D01*
X159413600Y-84161349D01*
X159813600Y-84161349D01*
X159955928Y-84147331D01*
X160092786Y-84105815D01*
X160218916Y-84038398D01*
X160302061Y-83970162D01*
X160346096Y-84006301D01*
X160507137Y-84092380D01*
X160681877Y-84145387D01*
X160863600Y-84163285D01*
X161045324Y-84145387D01*
X161220064Y-84092380D01*
X161381105Y-84006301D01*
X161488601Y-83918082D01*
X161596096Y-84006301D01*
X161757137Y-84092380D01*
X161931877Y-84145387D01*
X162113600Y-84163285D01*
X162295324Y-84145387D01*
X162470064Y-84092380D01*
X162631105Y-84006301D01*
X162644532Y-83995282D01*
X162651317Y-84002912D01*
X162815440Y-84127055D01*
X163000628Y-84216794D01*
X163077477Y-84226466D01*
X163236600Y-84098798D01*
X163236600Y-83108800D01*
X163490600Y-83108800D01*
X163490600Y-84098798D01*
X163649723Y-84226466D01*
X163726572Y-84216794D01*
X163911760Y-84127055D01*
X164075883Y-84002912D01*
X164212633Y-83849136D01*
X164316755Y-83671636D01*
X164384248Y-83477233D01*
X164412518Y-83273399D01*
X164247362Y-83108800D01*
X163490600Y-83108800D01*
X163236600Y-83108800D01*
X163216600Y-83108800D01*
X163216600Y-82854800D01*
X163236600Y-82854800D01*
X163236600Y-82834800D01*
X163490600Y-82834800D01*
X163490600Y-82854800D01*
X164247362Y-82854800D01*
X164412518Y-82690201D01*
X164384248Y-82486367D01*
X164316755Y-82291964D01*
X164285100Y-82238000D01*
X168167629Y-82238000D01*
X168166708Y-84192203D01*
X168043264Y-84126220D01*
X167868524Y-84073213D01*
X167732338Y-84059800D01*
X167141262Y-84059800D01*
X167005076Y-84073213D01*
X166830336Y-84126220D01*
X166669295Y-84212299D01*
X166528141Y-84328141D01*
X166412299Y-84469295D01*
X166326220Y-84630336D01*
X166273213Y-84805076D01*
X166255315Y-84986800D01*
X166273213Y-85168524D01*
X166326220Y-85343264D01*
X166412299Y-85504305D01*
X166500518Y-85611800D01*
X166412299Y-85719295D01*
X166326220Y-85880336D01*
X166273213Y-86055076D01*
X166255315Y-86236800D01*
X166273213Y-86418524D01*
X166326220Y-86593264D01*
X166412299Y-86754305D01*
X166500518Y-86861800D01*
X166412299Y-86969295D01*
X166326220Y-87130336D01*
X166273213Y-87305076D01*
X166255315Y-87486800D01*
X166273213Y-87668524D01*
X166326220Y-87843264D01*
X166412299Y-88004305D01*
X166500518Y-88111800D01*
X166412299Y-88219295D01*
X166326220Y-88380336D01*
X166273213Y-88555076D01*
X166255315Y-88736800D01*
X166273213Y-88918524D01*
X166326220Y-89093264D01*
X166412299Y-89254305D01*
X166500518Y-89361800D01*
X166412299Y-89469295D01*
X166326220Y-89630336D01*
X166273213Y-89805076D01*
X166255315Y-89986800D01*
X166273213Y-90168524D01*
X166326220Y-90343264D01*
X166344820Y-90378061D01*
X166335615Y-90385615D01*
X166256263Y-90482306D01*
X166197298Y-90592620D01*
X166160988Y-90712318D01*
X166148728Y-90836800D01*
X166151800Y-90951050D01*
X166310550Y-91109800D01*
X167309800Y-91109800D01*
X167309800Y-91089800D01*
X167563800Y-91089800D01*
X167563800Y-91109800D01*
X167583800Y-91109800D01*
X167583800Y-91363800D01*
X167563800Y-91363800D01*
X167563800Y-92113050D01*
X167722550Y-92271800D01*
X167813100Y-92272564D01*
X167813100Y-93390088D01*
X167424471Y-93778717D01*
X167381256Y-93760817D01*
X167115223Y-93707900D01*
X166843977Y-93707900D01*
X166577944Y-93760817D01*
X166327346Y-93864618D01*
X166101813Y-94015314D01*
X165910014Y-94207113D01*
X165759318Y-94432646D01*
X165709600Y-94552676D01*
X165659882Y-94432646D01*
X165509186Y-94207113D01*
X165317387Y-94015314D01*
X165091854Y-93864618D01*
X164841256Y-93760817D01*
X164575223Y-93707900D01*
X164303977Y-93707900D01*
X164037944Y-93760817D01*
X163787346Y-93864618D01*
X163561813Y-94015314D01*
X163383597Y-94193530D01*
X163375412Y-94110418D01*
X163339102Y-93990720D01*
X163280137Y-93880406D01*
X163200785Y-93783715D01*
X163104094Y-93704363D01*
X162993780Y-93645398D01*
X162874082Y-93609088D01*
X162749600Y-93596828D01*
X162185350Y-93599900D01*
X162026600Y-93758650D01*
X162026600Y-94957900D01*
X162046600Y-94957900D01*
X162046600Y-95211900D01*
X162026600Y-95211900D01*
X162026600Y-96411150D01*
X162185350Y-96569900D01*
X162749600Y-96572972D01*
X162874082Y-96560712D01*
X162993780Y-96524402D01*
X163104094Y-96465437D01*
X163200785Y-96386085D01*
X163280137Y-96289394D01*
X163339102Y-96179080D01*
X163375412Y-96059382D01*
X163383597Y-95976270D01*
X163561813Y-96154486D01*
X163787346Y-96305182D01*
X164037944Y-96408983D01*
X164303977Y-96461900D01*
X164575223Y-96461900D01*
X164841256Y-96408983D01*
X165091854Y-96305182D01*
X165317387Y-96154486D01*
X165509186Y-95962687D01*
X165659882Y-95737154D01*
X165709600Y-95617124D01*
X165759318Y-95737154D01*
X165910014Y-95962687D01*
X166101813Y-96154486D01*
X166327346Y-96305182D01*
X166577944Y-96408983D01*
X166843977Y-96461900D01*
X167115223Y-96461900D01*
X167381256Y-96408983D01*
X167631854Y-96305182D01*
X167857387Y-96154486D01*
X168049186Y-95962687D01*
X168161243Y-95794982D01*
X168159679Y-99115884D01*
X168036486Y-98931513D01*
X167844687Y-98739714D01*
X167619154Y-98589018D01*
X167368556Y-98485217D01*
X167102523Y-98432300D01*
X166831277Y-98432300D01*
X166565244Y-98485217D01*
X166314646Y-98589018D01*
X166089113Y-98739714D01*
X165897314Y-98931513D01*
X165746618Y-99157046D01*
X165642817Y-99407644D01*
X165589900Y-99673677D01*
X165589900Y-99944923D01*
X165642817Y-100210956D01*
X165746618Y-100461554D01*
X165897314Y-100687087D01*
X166075530Y-100865303D01*
X165992418Y-100873488D01*
X165872720Y-100909798D01*
X165762406Y-100968763D01*
X165665715Y-101048115D01*
X165586363Y-101144806D01*
X165527398Y-101255120D01*
X165491088Y-101374818D01*
X165478828Y-101499300D01*
X165481900Y-102063550D01*
X165640650Y-102222300D01*
X166839900Y-102222300D01*
X166839900Y-102202300D01*
X167093900Y-102202300D01*
X167093900Y-102222300D01*
X167113900Y-102222300D01*
X167113900Y-102476300D01*
X167093900Y-102476300D01*
X167093900Y-103675550D01*
X167252650Y-103834300D01*
X167816900Y-103837372D01*
X167941382Y-103825112D01*
X168061080Y-103788802D01*
X168157502Y-103737263D01*
X168155472Y-108046100D01*
X159814379Y-108046100D01*
X159833480Y-108010364D01*
X159886487Y-107835624D01*
X159899900Y-107699438D01*
X159899900Y-107108362D01*
X159886487Y-106972176D01*
X159833480Y-106797436D01*
X159747401Y-106636395D01*
X159631559Y-106495241D01*
X159490404Y-106379399D01*
X159329363Y-106293320D01*
X159154623Y-106240313D01*
X158972900Y-106222415D01*
X158791176Y-106240313D01*
X158616436Y-106293320D01*
X158455395Y-106379399D01*
X158347900Y-106467618D01*
X158240404Y-106379399D01*
X158079363Y-106293320D01*
X157904623Y-106240313D01*
X157722900Y-106222415D01*
X157541176Y-106240313D01*
X157366436Y-106293320D01*
X157205395Y-106379399D01*
X157097900Y-106467618D01*
X156990404Y-106379399D01*
X156829363Y-106293320D01*
X156654623Y-106240313D01*
X156472900Y-106222415D01*
X156291176Y-106240313D01*
X156116436Y-106293320D01*
X155955395Y-106379399D01*
X155847900Y-106467618D01*
X155740404Y-106379399D01*
X155579363Y-106293320D01*
X155404623Y-106240313D01*
X155222900Y-106222415D01*
X155041176Y-106240313D01*
X154866436Y-106293320D01*
X154705395Y-106379399D01*
X154597900Y-106467618D01*
X154490404Y-106379399D01*
X154329363Y-106293320D01*
X154154623Y-106240313D01*
X153972900Y-106222415D01*
X153791176Y-106240313D01*
X153616436Y-106293320D01*
X153455395Y-106379399D01*
X153347900Y-106467618D01*
X153240404Y-106379399D01*
X153079363Y-106293320D01*
X152904623Y-106240313D01*
X152722900Y-106222415D01*
X152541176Y-106240313D01*
X152366436Y-106293320D01*
X152331639Y-106311920D01*
X152324085Y-106302715D01*
X152227394Y-106223363D01*
X152117080Y-106164398D01*
X151997382Y-106128088D01*
X151872900Y-106115828D01*
X151758650Y-106118900D01*
X151599900Y-106277650D01*
X151599900Y-107276900D01*
X151619900Y-107276900D01*
X151619900Y-107530900D01*
X151599900Y-107530900D01*
X151599900Y-107550900D01*
X151345900Y-107550900D01*
X151345900Y-107530900D01*
X150596650Y-107530900D01*
X150437900Y-107689650D01*
X150434894Y-108046100D01*
X145293771Y-108046100D01*
X145294219Y-107095372D01*
X145360164Y-107134055D01*
X145554567Y-107201548D01*
X145758401Y-107229818D01*
X145923000Y-107064662D01*
X145923000Y-106307900D01*
X146177000Y-106307900D01*
X146177000Y-107064662D01*
X146341599Y-107229818D01*
X146545433Y-107201548D01*
X146739836Y-107134055D01*
X146917336Y-107029933D01*
X147071112Y-106893183D01*
X147176465Y-106753900D01*
X150434828Y-106753900D01*
X150437900Y-107118150D01*
X150596650Y-107276900D01*
X151345900Y-107276900D01*
X151345900Y-106277650D01*
X151187150Y-106118900D01*
X151072900Y-106115828D01*
X150948418Y-106128088D01*
X150828720Y-106164398D01*
X150718406Y-106223363D01*
X150621715Y-106302715D01*
X150542363Y-106399406D01*
X150483398Y-106509720D01*
X150447088Y-106629418D01*
X150434828Y-106753900D01*
X147176465Y-106753900D01*
X147195255Y-106729060D01*
X147284994Y-106543872D01*
X147294666Y-106467023D01*
X147166998Y-106307900D01*
X146177000Y-106307900D01*
X145923000Y-106307900D01*
X145903000Y-106307900D01*
X145903000Y-106053900D01*
X145923000Y-106053900D01*
X145923000Y-106033900D01*
X146177000Y-106033900D01*
X146177000Y-106053900D01*
X147166998Y-106053900D01*
X147294666Y-105894777D01*
X147284994Y-105817928D01*
X147195255Y-105632740D01*
X147071112Y-105468617D01*
X147063482Y-105461832D01*
X147074501Y-105448405D01*
X147160580Y-105287364D01*
X147213587Y-105112624D01*
X147231485Y-104930900D01*
X147213587Y-104749176D01*
X147160580Y-104574436D01*
X147074501Y-104413395D01*
X146986282Y-104305900D01*
X147074501Y-104198405D01*
X147160580Y-104037364D01*
X147213587Y-103862624D01*
X147231485Y-103680900D01*
X147213587Y-103499176D01*
X147160580Y-103324436D01*
X147093693Y-103199300D01*
X165478828Y-103199300D01*
X165491088Y-103323782D01*
X165527398Y-103443480D01*
X165586363Y-103553794D01*
X165665715Y-103650485D01*
X165762406Y-103729837D01*
X165872720Y-103788802D01*
X165992418Y-103825112D01*
X166116900Y-103837372D01*
X166681150Y-103834300D01*
X166839900Y-103675550D01*
X166839900Y-102476300D01*
X165640650Y-102476300D01*
X165481900Y-102635050D01*
X165478828Y-103199300D01*
X147093693Y-103199300D01*
X147074501Y-103163395D01*
X146986282Y-103055900D01*
X147074501Y-102948405D01*
X147160580Y-102787364D01*
X147213587Y-102612624D01*
X147231485Y-102430900D01*
X147213587Y-102249176D01*
X147160580Y-102074436D01*
X147074501Y-101913395D01*
X147038363Y-101869360D01*
X147106598Y-101786216D01*
X147174015Y-101660086D01*
X147215531Y-101523228D01*
X147229549Y-101380900D01*
X147229549Y-100980900D01*
X147215531Y-100838572D01*
X147174015Y-100701714D01*
X147106598Y-100575584D01*
X147015869Y-100465031D01*
X146905316Y-100374302D01*
X146779186Y-100306885D01*
X146642328Y-100265369D01*
X146500000Y-100251351D01*
X145600000Y-100251351D01*
X145457672Y-100265369D01*
X145320814Y-100306885D01*
X145297411Y-100319394D01*
X145297697Y-99710910D01*
X147442551Y-99710910D01*
X147442551Y-99893512D01*
X147478175Y-100072607D01*
X147548055Y-100241310D01*
X147606947Y-100329449D01*
X147682425Y-100511667D01*
X147794817Y-100679874D01*
X147937866Y-100822923D01*
X148106073Y-100935315D01*
X148292975Y-101012733D01*
X148491389Y-101052200D01*
X148693691Y-101052200D01*
X148892105Y-101012733D01*
X149079007Y-100935315D01*
X149247214Y-100822923D01*
X149390263Y-100679874D01*
X149502655Y-100511667D01*
X149580073Y-100324765D01*
X149619540Y-100126351D01*
X149619540Y-99924049D01*
X149580073Y-99725635D01*
X149502655Y-99538733D01*
X149390263Y-99370526D01*
X149247214Y-99227477D01*
X149079007Y-99115085D01*
X148896789Y-99039607D01*
X148808650Y-98980715D01*
X148639947Y-98910835D01*
X148460852Y-98875211D01*
X148278250Y-98875211D01*
X148099155Y-98910835D01*
X147930452Y-98980715D01*
X147778623Y-99082163D01*
X147649503Y-99211283D01*
X147548055Y-99363112D01*
X147478175Y-99531815D01*
X147442551Y-99710910D01*
X145297697Y-99710910D01*
X145298046Y-98970431D01*
X145400000Y-98980472D01*
X145764250Y-98977400D01*
X145923000Y-98818650D01*
X145923000Y-98069400D01*
X146177000Y-98069400D01*
X146177000Y-98818650D01*
X146335750Y-98977400D01*
X146700000Y-98980472D01*
X146824482Y-98968212D01*
X146944180Y-98931902D01*
X147054494Y-98872937D01*
X147151185Y-98793585D01*
X147230537Y-98696894D01*
X147289502Y-98586580D01*
X147325812Y-98466882D01*
X147338072Y-98342400D01*
X147335000Y-98228150D01*
X147176250Y-98069400D01*
X146177000Y-98069400D01*
X145923000Y-98069400D01*
X145903000Y-98069400D01*
X145903000Y-97815400D01*
X145923000Y-97815400D01*
X145923000Y-97795400D01*
X146177000Y-97795400D01*
X146177000Y-97815400D01*
X147176250Y-97815400D01*
X147335000Y-97656650D01*
X147338072Y-97542400D01*
X147325812Y-97417918D01*
X147289502Y-97298220D01*
X147230537Y-97187906D01*
X147151185Y-97091215D01*
X147141980Y-97083661D01*
X147160580Y-97048864D01*
X147213587Y-96874124D01*
X147231485Y-96692400D01*
X147213587Y-96510676D01*
X147160580Y-96335936D01*
X147074501Y-96174895D01*
X146986282Y-96067400D01*
X147074501Y-95959905D01*
X147160580Y-95798864D01*
X147213587Y-95624124D01*
X147231485Y-95442400D01*
X147213587Y-95260676D01*
X147160580Y-95085936D01*
X147074501Y-94924895D01*
X146986282Y-94817400D01*
X147002820Y-94797248D01*
X152289400Y-94797248D01*
X152289400Y-94999550D01*
X152328867Y-95197964D01*
X152406285Y-95384866D01*
X152518677Y-95553073D01*
X152661726Y-95696122D01*
X152829933Y-95808514D01*
X153016835Y-95885932D01*
X153215249Y-95925399D01*
X153417551Y-95925399D01*
X153615965Y-95885932D01*
X153802867Y-95808514D01*
X153971074Y-95696122D01*
X154114123Y-95553073D01*
X154226515Y-95384866D01*
X154303933Y-95197964D01*
X154343400Y-94999550D01*
X154343400Y-94818649D01*
X154395600Y-94818649D01*
X154395600Y-95020951D01*
X154435067Y-95219365D01*
X154512485Y-95406267D01*
X154624877Y-95574474D01*
X154767926Y-95717523D01*
X154936133Y-95829915D01*
X155123035Y-95907333D01*
X155321449Y-95946800D01*
X155523751Y-95946800D01*
X155583576Y-95934900D01*
X160411528Y-95934900D01*
X160423788Y-96059382D01*
X160460098Y-96179080D01*
X160519063Y-96289394D01*
X160598415Y-96386085D01*
X160695106Y-96465437D01*
X160805420Y-96524402D01*
X160925118Y-96560712D01*
X161049600Y-96572972D01*
X161613850Y-96569900D01*
X161772600Y-96411150D01*
X161772600Y-95211900D01*
X160573350Y-95211900D01*
X160414600Y-95370650D01*
X160411528Y-95934900D01*
X155583576Y-95934900D01*
X155722165Y-95907333D01*
X155909067Y-95829915D01*
X156077274Y-95717523D01*
X156220323Y-95574474D01*
X156332715Y-95406267D01*
X156410133Y-95219365D01*
X156449600Y-95020951D01*
X156449600Y-94818649D01*
X156410133Y-94620235D01*
X156332715Y-94433333D01*
X156220323Y-94265126D01*
X156190097Y-94234900D01*
X160411528Y-94234900D01*
X160414600Y-94799150D01*
X160573350Y-94957900D01*
X161772600Y-94957900D01*
X161772600Y-93758650D01*
X161613850Y-93599900D01*
X161049600Y-93596828D01*
X160925118Y-93609088D01*
X160805420Y-93645398D01*
X160695106Y-93704363D01*
X160598415Y-93783715D01*
X160519063Y-93880406D01*
X160460098Y-93990720D01*
X160423788Y-94110418D01*
X160411528Y-94234900D01*
X156190097Y-94234900D01*
X156077274Y-94122077D01*
X155909067Y-94009685D01*
X155722165Y-93932267D01*
X155523751Y-93892800D01*
X155321449Y-93892800D01*
X155123035Y-93932267D01*
X154936133Y-94009685D01*
X154767926Y-94122077D01*
X154624877Y-94265126D01*
X154512485Y-94433333D01*
X154435067Y-94620235D01*
X154395600Y-94818649D01*
X154343400Y-94818649D01*
X154343400Y-94797248D01*
X154303933Y-94598834D01*
X154226515Y-94411932D01*
X154114123Y-94243725D01*
X153971074Y-94100676D01*
X153802867Y-93988284D01*
X153615965Y-93910866D01*
X153417551Y-93871399D01*
X153215249Y-93871399D01*
X153016835Y-93910866D01*
X152829933Y-93988284D01*
X152661726Y-94100676D01*
X152518677Y-94243725D01*
X152406285Y-94411932D01*
X152328867Y-94598834D01*
X152289400Y-94797248D01*
X147002820Y-94797248D01*
X147074501Y-94709905D01*
X147160580Y-94548864D01*
X147213587Y-94374124D01*
X147231485Y-94192400D01*
X147213587Y-94010676D01*
X147160580Y-93835936D01*
X147074501Y-93674895D01*
X146986282Y-93567400D01*
X147074501Y-93459905D01*
X147160580Y-93298864D01*
X147213587Y-93124124D01*
X147231485Y-92942400D01*
X147213587Y-92760676D01*
X147190646Y-92685049D01*
X152289400Y-92685049D01*
X152289400Y-92887351D01*
X152328867Y-93085765D01*
X152406285Y-93272667D01*
X152518677Y-93440874D01*
X152661726Y-93583923D01*
X152829933Y-93696315D01*
X153016835Y-93773733D01*
X153215249Y-93813200D01*
X153417551Y-93813200D01*
X153615965Y-93773733D01*
X153802867Y-93696315D01*
X153971074Y-93583923D01*
X154114123Y-93440874D01*
X154226515Y-93272667D01*
X154303933Y-93085765D01*
X154343400Y-92887351D01*
X154343400Y-92685049D01*
X154395600Y-92685049D01*
X154395600Y-92887351D01*
X154435067Y-93085765D01*
X154512485Y-93272667D01*
X154624877Y-93440874D01*
X154767926Y-93583923D01*
X154936133Y-93696315D01*
X155123035Y-93773733D01*
X155321449Y-93813200D01*
X155523751Y-93813200D01*
X155722165Y-93773733D01*
X155909067Y-93696315D01*
X156077274Y-93583923D01*
X156220323Y-93440874D01*
X156332715Y-93272667D01*
X156410133Y-93085765D01*
X156449600Y-92887351D01*
X156449600Y-92685049D01*
X156410133Y-92486635D01*
X156332715Y-92299733D01*
X156220323Y-92131526D01*
X156077274Y-91988477D01*
X155909067Y-91876085D01*
X155722165Y-91798667D01*
X155523751Y-91759200D01*
X155321449Y-91759200D01*
X155123035Y-91798667D01*
X154936133Y-91876085D01*
X154767926Y-91988477D01*
X154624877Y-92131526D01*
X154512485Y-92299733D01*
X154435067Y-92486635D01*
X154395600Y-92685049D01*
X154343400Y-92685049D01*
X154303933Y-92486635D01*
X154226515Y-92299733D01*
X154114123Y-92131526D01*
X153971074Y-91988477D01*
X153802867Y-91876085D01*
X153615965Y-91798667D01*
X153417551Y-91759200D01*
X153215249Y-91759200D01*
X153016835Y-91798667D01*
X152829933Y-91876085D01*
X152661726Y-91988477D01*
X152518677Y-92131526D01*
X152406285Y-92299733D01*
X152328867Y-92486635D01*
X152289400Y-92685049D01*
X147190646Y-92685049D01*
X147160580Y-92585936D01*
X147074501Y-92424895D01*
X146986282Y-92317400D01*
X147074501Y-92209905D01*
X147160580Y-92048864D01*
X147213587Y-91874124D01*
X147231485Y-91692400D01*
X147226009Y-91636800D01*
X166148728Y-91636800D01*
X166160988Y-91761282D01*
X166197298Y-91880980D01*
X166256263Y-91991294D01*
X166335615Y-92087985D01*
X166432306Y-92167337D01*
X166542620Y-92226302D01*
X166662318Y-92262612D01*
X166786800Y-92274872D01*
X167151050Y-92271800D01*
X167309800Y-92113050D01*
X167309800Y-91363800D01*
X166310550Y-91363800D01*
X166151800Y-91522550D01*
X166148728Y-91636800D01*
X147226009Y-91636800D01*
X147213587Y-91510676D01*
X147160580Y-91335936D01*
X147074501Y-91174895D01*
X146986282Y-91067400D01*
X147074501Y-90959905D01*
X147160580Y-90798864D01*
X147213587Y-90624124D01*
X147231485Y-90442400D01*
X147213587Y-90260676D01*
X147160580Y-90085936D01*
X147074501Y-89924895D01*
X146958659Y-89783741D01*
X146817505Y-89667899D01*
X146656464Y-89581820D01*
X146481724Y-89528813D01*
X146345538Y-89515400D01*
X145754462Y-89515400D01*
X145618276Y-89528813D01*
X145443536Y-89581820D01*
X145302433Y-89657242D01*
X145303023Y-88405149D01*
X147563000Y-88405149D01*
X147563000Y-88607451D01*
X147602467Y-88805865D01*
X147679885Y-88992767D01*
X147792277Y-89160974D01*
X147935326Y-89304023D01*
X148103533Y-89416415D01*
X148290435Y-89493833D01*
X148488849Y-89533300D01*
X148691151Y-89533300D01*
X148889565Y-89493833D01*
X149076467Y-89416415D01*
X149244674Y-89304023D01*
X149387723Y-89160974D01*
X149500115Y-88992767D01*
X149577533Y-88805865D01*
X149617000Y-88607451D01*
X149617000Y-88405149D01*
X149577533Y-88206735D01*
X149500115Y-88019833D01*
X149387723Y-87851626D01*
X149244674Y-87708577D01*
X149076467Y-87596185D01*
X148889565Y-87518767D01*
X148691151Y-87479300D01*
X148488849Y-87479300D01*
X148290435Y-87518767D01*
X148103533Y-87596185D01*
X147935326Y-87708577D01*
X147792277Y-87851626D01*
X147679885Y-88019833D01*
X147602467Y-88206735D01*
X147563000Y-88405149D01*
X145303023Y-88405149D01*
X145303133Y-88172200D01*
X145360164Y-88205655D01*
X145554567Y-88273148D01*
X145758401Y-88301418D01*
X145923000Y-88136262D01*
X145923000Y-87379500D01*
X146177000Y-87379500D01*
X146177000Y-88136262D01*
X146341599Y-88301418D01*
X146545433Y-88273148D01*
X146739836Y-88205655D01*
X146917336Y-88101533D01*
X147071112Y-87964783D01*
X147195255Y-87800660D01*
X147284994Y-87615472D01*
X147294666Y-87538623D01*
X147166998Y-87379500D01*
X146177000Y-87379500D01*
X145923000Y-87379500D01*
X145903000Y-87379500D01*
X145903000Y-87125500D01*
X145923000Y-87125500D01*
X145923000Y-87105500D01*
X146177000Y-87105500D01*
X146177000Y-87125500D01*
X147166998Y-87125500D01*
X147294666Y-86966377D01*
X147284994Y-86889528D01*
X147195255Y-86704340D01*
X147071112Y-86540217D01*
X147063482Y-86533432D01*
X147074501Y-86520005D01*
X147160580Y-86358964D01*
X147210212Y-86195349D01*
X147575700Y-86195349D01*
X147575700Y-86397651D01*
X147615167Y-86596065D01*
X147692585Y-86782967D01*
X147804977Y-86951174D01*
X147948026Y-87094223D01*
X148116233Y-87206615D01*
X148303135Y-87284033D01*
X148501549Y-87323500D01*
X148703851Y-87323500D01*
X148902265Y-87284033D01*
X149089167Y-87206615D01*
X149257374Y-87094223D01*
X149400423Y-86951174D01*
X149512815Y-86782967D01*
X149590233Y-86596065D01*
X149629700Y-86397651D01*
X149629700Y-86195349D01*
X149590233Y-85996935D01*
X149512815Y-85810033D01*
X149400423Y-85641826D01*
X149257374Y-85498777D01*
X149089167Y-85386385D01*
X148902265Y-85308967D01*
X148703851Y-85269500D01*
X148501549Y-85269500D01*
X148303135Y-85308967D01*
X148116233Y-85386385D01*
X147948026Y-85498777D01*
X147804977Y-85641826D01*
X147692585Y-85810033D01*
X147615167Y-85996935D01*
X147575700Y-86195349D01*
X147210212Y-86195349D01*
X147213587Y-86184224D01*
X147231485Y-86002500D01*
X147213587Y-85820776D01*
X147160580Y-85646036D01*
X147074501Y-85484995D01*
X146986282Y-85377500D01*
X147074501Y-85270005D01*
X147160580Y-85108964D01*
X147213587Y-84934224D01*
X147231485Y-84752500D01*
X147213587Y-84570776D01*
X147160580Y-84396036D01*
X147074501Y-84234995D01*
X147038363Y-84190960D01*
X147106598Y-84107816D01*
X147174015Y-83981686D01*
X147215531Y-83844828D01*
X147229549Y-83702500D01*
X147229549Y-83302500D01*
X147215531Y-83160172D01*
X147174015Y-83023314D01*
X147106598Y-82897184D01*
X147015869Y-82786631D01*
X146905316Y-82695902D01*
X146779186Y-82628485D01*
X146642328Y-82586969D01*
X146500000Y-82572951D01*
X145600000Y-82572951D01*
X145457672Y-82586969D01*
X145320814Y-82628485D01*
X145305740Y-82636542D01*
X145305928Y-82238000D01*
X149559741Y-82238000D01*
X149493120Y-82362636D01*
G37*
G04 #@! TD.AperFunction*
M02*
