G04 #@! TF.GenerationSoftware,KiCad,Pcbnew,(5.1.8-0-10_14)*
G04 #@! TF.CreationDate,2021-11-26T07:07:57-05:00*
G04 #@! TF.ProjectId,4809Rc,34383039-5263-42e6-9b69-6361645f7063,rev?*
G04 #@! TF.SameCoordinates,Original*
G04 #@! TF.FileFunction,Legend,Top*
G04 #@! TF.FilePolarity,Positive*
%FSLAX46Y46*%
G04 Gerber Fmt 4.6, Leading zero omitted, Abs format (unit mm)*
G04 Created by KiCad (PCBNEW (5.1.8-0-10_14)) date 2021-11-26 07:07:57*
%MOMM*%
%LPD*%
G01*
G04 APERTURE LIST*
%ADD10C,0.100000*%
%ADD11C,0.120000*%
%ADD12C,0.150000*%
G04 APERTURE END LIST*
D10*
G36*
X161975800Y-93230700D02*
G01*
X160489900Y-93230700D01*
X160489900Y-90246200D01*
X161975800Y-90246200D01*
X161975800Y-93230700D01*
G37*
X161975800Y-93230700D02*
X160489900Y-93230700D01*
X160489900Y-90246200D01*
X161975800Y-90246200D01*
X161975800Y-93230700D01*
G36*
X161975800Y-90233500D02*
G01*
X160489900Y-90233500D01*
X160489900Y-87249000D01*
X161975800Y-87249000D01*
X161975800Y-90233500D01*
G37*
X161975800Y-90233500D02*
X160489900Y-90233500D01*
X160489900Y-87249000D01*
X161975800Y-87249000D01*
X161975800Y-90233500D01*
G36*
X160464500Y-87249000D02*
G01*
X158978600Y-87249000D01*
X158978600Y-84264500D01*
X160464500Y-84264500D01*
X160464500Y-87249000D01*
G37*
X160464500Y-87249000D02*
X158978600Y-87249000D01*
X158978600Y-84264500D01*
X160464500Y-84264500D01*
X160464500Y-87249000D01*
G36*
X163525200Y-87261700D02*
G01*
X162039300Y-87261700D01*
X162039300Y-84277200D01*
X163525200Y-84277200D01*
X163525200Y-87261700D01*
G37*
X163525200Y-87261700D02*
X162039300Y-87261700D01*
X162039300Y-84277200D01*
X163525200Y-84277200D01*
X163525200Y-87261700D01*
D11*
X165011100Y-90233500D02*
X160515300Y-90233500D01*
X165011100Y-87236300D02*
X165011100Y-90233500D01*
X165011100Y-93218000D02*
X165011100Y-87236300D01*
X160489900Y-93218000D02*
X165011100Y-93218000D01*
X160489900Y-87274400D02*
X160489900Y-93218000D01*
X162026600Y-87249000D02*
X162026600Y-84289900D01*
X159016700Y-87249000D02*
X159016700Y-84264500D01*
X165011100Y-87249000D02*
X159016700Y-87249000D01*
X165011100Y-84264500D02*
X165011100Y-87249000D01*
X159016700Y-84264500D02*
X165011100Y-84264500D01*
X168296900Y-103679300D02*
X166966900Y-103679300D01*
X168296900Y-102349300D02*
X168296900Y-103679300D01*
X168296900Y-101079300D02*
X165636900Y-101079300D01*
X165636900Y-101079300D02*
X165636900Y-98479300D01*
X168296900Y-101079300D02*
X168296900Y-98479300D01*
X168296900Y-98479300D02*
X165636900Y-98479300D01*
X151222900Y-106253900D02*
X151222900Y-105953900D01*
X151222900Y-105953900D02*
X150722900Y-105953900D01*
X155222900Y-106543900D02*
X150932900Y-106543900D01*
X150932900Y-106543900D02*
X150932900Y-106243900D01*
X150932900Y-106243900D02*
X149862900Y-106243900D01*
X149862900Y-106243900D02*
X149862900Y-111963900D01*
X149862900Y-111963900D02*
X155222900Y-111963900D01*
X155222900Y-106543900D02*
X159512900Y-106543900D01*
X159512900Y-106543900D02*
X159512900Y-106243900D01*
X159512900Y-106243900D02*
X160582900Y-106243900D01*
X160582900Y-106243900D02*
X160582900Y-111963900D01*
X160582900Y-111963900D02*
X155222900Y-111963900D01*
X154048679Y-102135400D02*
X153723121Y-102135400D01*
X154048679Y-101115400D02*
X153723121Y-101115400D01*
D12*
X149410000Y-89085000D02*
X149410000Y-89510000D01*
X156660000Y-89085000D02*
X156660000Y-89610000D01*
X156660000Y-96335000D02*
X156660000Y-95810000D01*
X149410000Y-96335000D02*
X149410000Y-95810000D01*
X149410000Y-89085000D02*
X149935000Y-89085000D01*
X149410000Y-96335000D02*
X149935000Y-96335000D01*
X156660000Y-96335000D02*
X156135000Y-96335000D01*
X156660000Y-89085000D02*
X156135000Y-89085000D01*
X149410000Y-89510000D02*
X148035000Y-89510000D01*
D11*
X155407579Y-85498400D02*
X155082021Y-85498400D01*
X155407579Y-84478400D02*
X155082021Y-84478400D01*
X168309600Y-96414900D02*
X168309600Y-93754900D01*
X163169600Y-96414900D02*
X168309600Y-96414900D01*
X163169600Y-93754900D02*
X168309600Y-93754900D01*
X163169600Y-96414900D02*
X163169600Y-93754900D01*
X161899600Y-96414900D02*
X160569600Y-96414900D01*
X160569600Y-96414900D02*
X160569600Y-95084900D01*
X147200000Y-100930900D02*
X147500000Y-100930900D01*
X147500000Y-100930900D02*
X147500000Y-100430900D01*
X146910000Y-103680900D02*
X146910000Y-100640900D01*
X146910000Y-100640900D02*
X147210000Y-100640900D01*
X147210000Y-100640900D02*
X147210000Y-99570900D01*
X147210000Y-99570900D02*
X141490000Y-99570900D01*
X141490000Y-99570900D02*
X141490000Y-103680900D01*
X146910000Y-103680900D02*
X146910000Y-106720900D01*
X146910000Y-106720900D02*
X147210000Y-106720900D01*
X147210000Y-106720900D02*
X147210000Y-107790900D01*
X147210000Y-107790900D02*
X141490000Y-107790900D01*
X141490000Y-107790900D02*
X141490000Y-103680900D01*
X166286800Y-91486800D02*
X165986800Y-91486800D01*
X165986800Y-91486800D02*
X165986800Y-91986800D01*
X166576800Y-88111800D02*
X166576800Y-91776800D01*
X166576800Y-91776800D02*
X166276800Y-91776800D01*
X166276800Y-91776800D02*
X166276800Y-92846800D01*
X166276800Y-92846800D02*
X171996800Y-92846800D01*
X171996800Y-92846800D02*
X171996800Y-88111800D01*
X166576800Y-88111800D02*
X166576800Y-84446800D01*
X166576800Y-84446800D02*
X166276800Y-84446800D01*
X166276800Y-84446800D02*
X166276800Y-83376800D01*
X166276800Y-83376800D02*
X171996800Y-83376800D01*
X171996800Y-83376800D02*
X171996800Y-88111800D01*
X164056600Y-100259000D02*
X164056600Y-99329000D01*
X164056600Y-97099000D02*
X164056600Y-98029000D01*
X164056600Y-97099000D02*
X161896600Y-97099000D01*
X164056600Y-100259000D02*
X162596600Y-100259000D01*
X164784500Y-91582021D02*
X164784500Y-91907579D01*
X163764500Y-91582021D02*
X163764500Y-91907579D01*
X163260500Y-88584821D02*
X163260500Y-88910379D01*
X162240500Y-88584821D02*
X162240500Y-88910379D01*
X163764500Y-88910379D02*
X163764500Y-88584821D01*
X164784500Y-88910379D02*
X164784500Y-88584821D01*
X161787300Y-85587621D02*
X161787300Y-85913179D01*
X160767300Y-85587621D02*
X160767300Y-85913179D01*
X159243300Y-85913179D02*
X159243300Y-85587621D01*
X160263300Y-85913179D02*
X160263300Y-85587621D01*
X147594200Y-104861900D02*
X148524200Y-104861900D01*
X150754200Y-104861900D02*
X149824200Y-104861900D01*
X150754200Y-104861900D02*
X150754200Y-102701900D01*
X147594200Y-104861900D02*
X147594200Y-103401900D01*
X147200000Y-83252500D02*
X147500000Y-83252500D01*
X147500000Y-83252500D02*
X147500000Y-82752500D01*
X146910000Y-85377500D02*
X146910000Y-82962500D01*
X146910000Y-82962500D02*
X147210000Y-82962500D01*
X147210000Y-82962500D02*
X147210000Y-81892500D01*
X147210000Y-81892500D02*
X141490000Y-81892500D01*
X141490000Y-81892500D02*
X141490000Y-85377500D01*
X146910000Y-85377500D02*
X146910000Y-87792500D01*
X146910000Y-87792500D02*
X147210000Y-87792500D01*
X147210000Y-87792500D02*
X147210000Y-88862500D01*
X147210000Y-88862500D02*
X141490000Y-88862500D01*
X141490000Y-88862500D02*
X141490000Y-85377500D01*
X157058579Y-102135400D02*
X156733021Y-102135400D01*
X157058579Y-101115400D02*
X156733021Y-101115400D01*
X154693500Y-104874600D02*
X155623500Y-104874600D01*
X157853500Y-104874600D02*
X156923500Y-104874600D01*
X157853500Y-104874600D02*
X157853500Y-102714600D01*
X154693500Y-104874600D02*
X154693500Y-103414600D01*
X151038779Y-102135400D02*
X150713221Y-102135400D01*
X151038779Y-101115400D02*
X150713221Y-101115400D01*
X156853700Y-84119100D02*
X156853700Y-84419100D01*
X156853700Y-84419100D02*
X157353700Y-84419100D01*
X153478700Y-83829100D02*
X157143700Y-83829100D01*
X157143700Y-83829100D02*
X157143700Y-84129100D01*
X157143700Y-84129100D02*
X158213700Y-84129100D01*
X158213700Y-84129100D02*
X158213700Y-78409100D01*
X158213700Y-78409100D02*
X153478700Y-78409100D01*
X153478700Y-83829100D02*
X149813700Y-83829100D01*
X149813700Y-83829100D02*
X149813700Y-84129100D01*
X149813700Y-84129100D02*
X148743700Y-84129100D01*
X148743700Y-84129100D02*
X148743700Y-78409100D01*
X148743700Y-78409100D02*
X153478700Y-78409100D01*
X150192521Y-98537300D02*
X150518079Y-98537300D01*
X150192521Y-99557300D02*
X150518079Y-99557300D01*
X158409421Y-98816700D02*
X158734979Y-98816700D01*
X158409421Y-99836700D02*
X158734979Y-99836700D01*
X158824200Y-94015779D02*
X158824200Y-93690221D01*
X159844200Y-94015779D02*
X159844200Y-93690221D01*
X164784500Y-85587621D02*
X164784500Y-85913179D01*
X163764500Y-85587621D02*
X163764500Y-85913179D01*
X162240500Y-91907579D02*
X162240500Y-91582021D01*
X163260500Y-91907579D02*
X163260500Y-91582021D01*
X161342800Y-98351121D02*
X161342800Y-98676679D01*
X160322800Y-98351121D02*
X160322800Y-98676679D01*
X163027579Y-102148100D02*
X162702021Y-102148100D01*
X163027579Y-101128100D02*
X162702021Y-101128100D01*
X160043079Y-102135400D02*
X159717521Y-102135400D01*
X160043079Y-101115400D02*
X159717521Y-101115400D01*
X151137500Y-104874600D02*
X152067500Y-104874600D01*
X154297500Y-104874600D02*
X153367500Y-104874600D01*
X154297500Y-104874600D02*
X154297500Y-102714600D01*
X151137500Y-104874600D02*
X151137500Y-103414600D01*
X161792800Y-104874600D02*
X162722800Y-104874600D01*
X164952800Y-104874600D02*
X164022800Y-104874600D01*
X164952800Y-104874600D02*
X164952800Y-102714600D01*
X161792800Y-104874600D02*
X161792800Y-103414600D01*
X158249500Y-104874600D02*
X159179500Y-104874600D01*
X161409500Y-104874600D02*
X160479500Y-104874600D01*
X161409500Y-104874600D02*
X161409500Y-102714600D01*
X158249500Y-104874600D02*
X158249500Y-103414600D01*
X158824200Y-97012979D02*
X158824200Y-96687421D01*
X159844200Y-97012979D02*
X159844200Y-96687421D01*
X156248000Y-85751200D02*
X153763000Y-85751200D01*
X153763000Y-85751200D02*
X153763000Y-87121200D01*
X153763000Y-87121200D02*
X156248000Y-87121200D01*
X152395139Y-86212140D02*
X152069581Y-86212140D01*
X152395139Y-85192140D02*
X152069581Y-85192140D01*
X162265900Y-85913179D02*
X162265900Y-85587621D01*
X163285900Y-85913179D02*
X163285900Y-85587621D01*
X160716500Y-91907579D02*
X160716500Y-91582021D01*
X161736500Y-91907579D02*
X161736500Y-91582021D01*
X161736500Y-88584821D02*
X161736500Y-88910379D01*
X160716500Y-88584821D02*
X160716500Y-88910379D01*
D12*
X154888606Y-109734100D02*
X154888606Y-110448386D01*
X154840987Y-110591243D01*
X154745749Y-110686481D01*
X154602892Y-110734100D01*
X154507654Y-110734100D01*
X155888606Y-110734100D02*
X155317178Y-110734100D01*
X155602892Y-110734100D02*
X155602892Y-109734100D01*
X155507654Y-109876958D01*
X155412416Y-109972196D01*
X155317178Y-110019815D01*
X149987095Y-89622380D02*
X149987095Y-90431904D01*
X150034714Y-90527142D01*
X150082333Y-90574761D01*
X150177571Y-90622380D01*
X150368047Y-90622380D01*
X150463285Y-90574761D01*
X150510904Y-90527142D01*
X150558523Y-90431904D01*
X150558523Y-89622380D01*
X151558523Y-90622380D02*
X150987095Y-90622380D01*
X151272809Y-90622380D02*
X151272809Y-89622380D01*
X151177571Y-89765238D01*
X151082333Y-89860476D01*
X150987095Y-89908095D01*
X143305280Y-103355733D02*
X144019566Y-103355733D01*
X144162423Y-103403352D01*
X144257661Y-103498590D01*
X144305280Y-103641447D01*
X144305280Y-103736685D01*
X143305280Y-102403352D02*
X143305280Y-102879542D01*
X143781471Y-102927161D01*
X143733852Y-102879542D01*
X143686233Y-102784304D01*
X143686233Y-102546209D01*
X143733852Y-102450971D01*
X143781471Y-102403352D01*
X143876709Y-102355733D01*
X144114804Y-102355733D01*
X144210042Y-102403352D01*
X144257661Y-102450971D01*
X144305280Y-102546209D01*
X144305280Y-102784304D01*
X144257661Y-102879542D01*
X144210042Y-102927161D01*
X169175180Y-88395133D02*
X169889466Y-88395133D01*
X170032323Y-88442752D01*
X170127561Y-88537990D01*
X170175180Y-88680847D01*
X170175180Y-88776085D01*
X169270419Y-87966561D02*
X169222800Y-87918942D01*
X169175180Y-87823704D01*
X169175180Y-87585609D01*
X169222800Y-87490371D01*
X169270419Y-87442752D01*
X169365657Y-87395133D01*
X169460895Y-87395133D01*
X169603752Y-87442752D01*
X170175180Y-88014180D01*
X170175180Y-87395133D01*
X163844219Y-98774238D02*
X163796600Y-98869476D01*
X163701361Y-98964714D01*
X163558504Y-99107571D01*
X163510885Y-99202809D01*
X163510885Y-99298047D01*
X163748980Y-99250428D02*
X163701361Y-99345666D01*
X163606123Y-99440904D01*
X163415647Y-99488523D01*
X163082314Y-99488523D01*
X162891838Y-99440904D01*
X162796600Y-99345666D01*
X162748980Y-99250428D01*
X162748980Y-99059952D01*
X162796600Y-98964714D01*
X162891838Y-98869476D01*
X163082314Y-98821857D01*
X163415647Y-98821857D01*
X163606123Y-98869476D01*
X163701361Y-98964714D01*
X163748980Y-99059952D01*
X163748980Y-99250428D01*
X162748980Y-97964714D02*
X162748980Y-98155190D01*
X162796600Y-98250428D01*
X162844219Y-98298047D01*
X162987076Y-98393285D01*
X163177552Y-98440904D01*
X163558504Y-98440904D01*
X163653742Y-98393285D01*
X163701361Y-98345666D01*
X163748980Y-98250428D01*
X163748980Y-98059952D01*
X163701361Y-97964714D01*
X163653742Y-97917095D01*
X163558504Y-97869476D01*
X163320409Y-97869476D01*
X163225171Y-97917095D01*
X163177552Y-97964714D01*
X163129933Y-98059952D01*
X163129933Y-98250428D01*
X163177552Y-98345666D01*
X163225171Y-98393285D01*
X163320409Y-98440904D01*
X149713961Y-104776519D02*
X149618723Y-104728900D01*
X149523485Y-104633661D01*
X149380628Y-104490804D01*
X149285390Y-104443185D01*
X149190152Y-104443185D01*
X149237771Y-104681280D02*
X149142533Y-104633661D01*
X149047295Y-104538423D01*
X148999676Y-104347947D01*
X148999676Y-104014614D01*
X149047295Y-103824138D01*
X149142533Y-103728900D01*
X149237771Y-103681280D01*
X149428247Y-103681280D01*
X149523485Y-103728900D01*
X149618723Y-103824138D01*
X149666342Y-104014614D01*
X149666342Y-104347947D01*
X149618723Y-104538423D01*
X149523485Y-104633661D01*
X149428247Y-104681280D01*
X149237771Y-104681280D01*
X150618723Y-104681280D02*
X150047295Y-104681280D01*
X150333009Y-104681280D02*
X150333009Y-103681280D01*
X150237771Y-103824138D01*
X150142533Y-103919376D01*
X150047295Y-103966995D01*
X143216380Y-85740833D02*
X143930666Y-85740833D01*
X144073523Y-85788452D01*
X144168761Y-85883690D01*
X144216380Y-86026547D01*
X144216380Y-86121785D01*
X143216380Y-84836071D02*
X143216380Y-85026547D01*
X143264000Y-85121785D01*
X143311619Y-85169404D01*
X143454476Y-85264642D01*
X143644952Y-85312261D01*
X144025904Y-85312261D01*
X144121142Y-85264642D01*
X144168761Y-85217023D01*
X144216380Y-85121785D01*
X144216380Y-84931309D01*
X144168761Y-84836071D01*
X144121142Y-84788452D01*
X144025904Y-84740833D01*
X143787809Y-84740833D01*
X143692571Y-84788452D01*
X143644952Y-84836071D01*
X143597333Y-84931309D01*
X143597333Y-85121785D01*
X143644952Y-85217023D01*
X143692571Y-85264642D01*
X143787809Y-85312261D01*
X156813261Y-104789219D02*
X156718023Y-104741600D01*
X156622785Y-104646361D01*
X156479928Y-104503504D01*
X156384690Y-104455885D01*
X156289452Y-104455885D01*
X156337071Y-104693980D02*
X156241833Y-104646361D01*
X156146595Y-104551123D01*
X156098976Y-104360647D01*
X156098976Y-104027314D01*
X156146595Y-103836838D01*
X156241833Y-103741600D01*
X156337071Y-103693980D01*
X156527547Y-103693980D01*
X156622785Y-103741600D01*
X156718023Y-103836838D01*
X156765642Y-104027314D01*
X156765642Y-104360647D01*
X156718023Y-104551123D01*
X156622785Y-104646361D01*
X156527547Y-104693980D01*
X156337071Y-104693980D01*
X157098976Y-103693980D02*
X157718023Y-103693980D01*
X157384690Y-104074933D01*
X157527547Y-104074933D01*
X157622785Y-104122552D01*
X157670404Y-104170171D01*
X157718023Y-104265409D01*
X157718023Y-104503504D01*
X157670404Y-104598742D01*
X157622785Y-104646361D01*
X157527547Y-104693980D01*
X157241833Y-104693980D01*
X157146595Y-104646361D01*
X157098976Y-104598742D01*
X153222366Y-80643480D02*
X153222366Y-81357766D01*
X153174747Y-81500623D01*
X153079509Y-81595861D01*
X152936652Y-81643480D01*
X152841414Y-81643480D01*
X154127128Y-80976814D02*
X154127128Y-81643480D01*
X153889033Y-80595861D02*
X153650938Y-81310147D01*
X154269985Y-81310147D01*
X149274506Y-100616186D02*
X148874506Y-100616186D01*
X149074506Y-100616186D02*
X149074506Y-99916186D01*
X149007840Y-100016186D01*
X148941173Y-100082853D01*
X148874506Y-100116186D01*
X149707840Y-99916186D02*
X149774506Y-99916186D01*
X149841173Y-99949520D01*
X149874506Y-99982853D01*
X149907840Y-100049520D01*
X149941173Y-100182853D01*
X149941173Y-100349520D01*
X149907840Y-100482853D01*
X149874506Y-100549520D01*
X149841173Y-100582853D01*
X149774506Y-100616186D01*
X149707840Y-100616186D01*
X149641173Y-100582853D01*
X149607840Y-100549520D01*
X149574506Y-100482853D01*
X149541173Y-100349520D01*
X149541173Y-100182853D01*
X149574506Y-100049520D01*
X149607840Y-99982853D01*
X149641173Y-99949520D01*
X149707840Y-99916186D01*
X150374506Y-99916186D02*
X150441173Y-99916186D01*
X150507840Y-99949520D01*
X150541173Y-99982853D01*
X150574506Y-100049520D01*
X150607840Y-100182853D01*
X150607840Y-100349520D01*
X150574506Y-100482853D01*
X150541173Y-100549520D01*
X150507840Y-100582853D01*
X150441173Y-100616186D01*
X150374506Y-100616186D01*
X150307840Y-100582853D01*
X150274506Y-100549520D01*
X150241173Y-100482853D01*
X150207840Y-100349520D01*
X150207840Y-100182853D01*
X150241173Y-100049520D01*
X150274506Y-99982853D01*
X150307840Y-99949520D01*
X150374506Y-99916186D01*
X150907840Y-100149520D02*
X150907840Y-100616186D01*
X150907840Y-100216186D02*
X150941173Y-100182853D01*
X151007840Y-100149520D01*
X151107840Y-100149520D01*
X151174506Y-100182853D01*
X151207840Y-100249520D01*
X151207840Y-100616186D01*
X151774506Y-100249520D02*
X151541173Y-100249520D01*
X151541173Y-100616186D02*
X151541173Y-99916186D01*
X151874506Y-99916186D01*
X157293633Y-100122553D02*
X157326966Y-100089220D01*
X157393633Y-100055886D01*
X157560300Y-100055886D01*
X157626966Y-100089220D01*
X157660300Y-100122553D01*
X157693633Y-100189220D01*
X157693633Y-100255886D01*
X157660300Y-100355886D01*
X157260300Y-100755886D01*
X157693633Y-100755886D01*
X157993633Y-100689220D02*
X158026966Y-100722553D01*
X157993633Y-100755886D01*
X157960300Y-100722553D01*
X157993633Y-100689220D01*
X157993633Y-100755886D01*
X158293633Y-100122553D02*
X158326966Y-100089220D01*
X158393633Y-100055886D01*
X158560300Y-100055886D01*
X158626966Y-100089220D01*
X158660300Y-100122553D01*
X158693633Y-100189220D01*
X158693633Y-100255886D01*
X158660300Y-100355886D01*
X158260300Y-100755886D01*
X158693633Y-100755886D01*
X159293633Y-100289220D02*
X159293633Y-100755886D01*
X158993633Y-100289220D02*
X158993633Y-100655886D01*
X159026966Y-100722553D01*
X159093633Y-100755886D01*
X159193633Y-100755886D01*
X159260300Y-100722553D01*
X159293633Y-100689220D01*
X159860300Y-100389220D02*
X159626966Y-100389220D01*
X159626966Y-100755886D02*
X159626966Y-100055886D01*
X159960300Y-100055886D01*
X160737986Y-94961733D02*
X160737986Y-95361733D01*
X160737986Y-95161733D02*
X160037986Y-95161733D01*
X160137986Y-95228400D01*
X160204653Y-95295066D01*
X160237986Y-95361733D01*
X160037986Y-94528400D02*
X160037986Y-94461733D01*
X160071320Y-94395066D01*
X160104653Y-94361733D01*
X160171320Y-94328400D01*
X160304653Y-94295066D01*
X160471320Y-94295066D01*
X160604653Y-94328400D01*
X160671320Y-94361733D01*
X160704653Y-94395066D01*
X160737986Y-94461733D01*
X160737986Y-94528400D01*
X160704653Y-94595066D01*
X160671320Y-94628400D01*
X160604653Y-94661733D01*
X160471320Y-94695066D01*
X160304653Y-94695066D01*
X160171320Y-94661733D01*
X160104653Y-94628400D01*
X160071320Y-94595066D01*
X160037986Y-94528400D01*
X160037986Y-93861733D02*
X160037986Y-93795066D01*
X160071320Y-93728400D01*
X160104653Y-93695066D01*
X160171320Y-93661733D01*
X160304653Y-93628400D01*
X160471320Y-93628400D01*
X160604653Y-93661733D01*
X160671320Y-93695066D01*
X160704653Y-93728400D01*
X160737986Y-93795066D01*
X160737986Y-93861733D01*
X160704653Y-93928400D01*
X160671320Y-93961733D01*
X160604653Y-93995066D01*
X160471320Y-94028400D01*
X160304653Y-94028400D01*
X160171320Y-93995066D01*
X160104653Y-93961733D01*
X160071320Y-93928400D01*
X160037986Y-93861733D01*
X160271320Y-93328400D02*
X160737986Y-93328400D01*
X160337986Y-93328400D02*
X160304653Y-93295066D01*
X160271320Y-93228400D01*
X160271320Y-93128400D01*
X160304653Y-93061733D01*
X160371320Y-93028400D01*
X160737986Y-93028400D01*
X160371320Y-92461733D02*
X160371320Y-92695066D01*
X160737986Y-92695066D02*
X160037986Y-92695066D01*
X160037986Y-92361733D01*
X153257261Y-104789219D02*
X153162023Y-104741600D01*
X153066785Y-104646361D01*
X152923928Y-104503504D01*
X152828690Y-104455885D01*
X152733452Y-104455885D01*
X152781071Y-104693980D02*
X152685833Y-104646361D01*
X152590595Y-104551123D01*
X152542976Y-104360647D01*
X152542976Y-104027314D01*
X152590595Y-103836838D01*
X152685833Y-103741600D01*
X152781071Y-103693980D01*
X152971547Y-103693980D01*
X153066785Y-103741600D01*
X153162023Y-103836838D01*
X153209642Y-104027314D01*
X153209642Y-104360647D01*
X153162023Y-104551123D01*
X153066785Y-104646361D01*
X152971547Y-104693980D01*
X152781071Y-104693980D01*
X153590595Y-103789219D02*
X153638214Y-103741600D01*
X153733452Y-103693980D01*
X153971547Y-103693980D01*
X154066785Y-103741600D01*
X154114404Y-103789219D01*
X154162023Y-103884457D01*
X154162023Y-103979695D01*
X154114404Y-104122552D01*
X153542976Y-104693980D01*
X154162023Y-104693980D01*
X164039561Y-104789219D02*
X163944323Y-104741600D01*
X163849085Y-104646361D01*
X163706228Y-104503504D01*
X163610990Y-104455885D01*
X163515752Y-104455885D01*
X163563371Y-104693980D02*
X163468133Y-104646361D01*
X163372895Y-104551123D01*
X163325276Y-104360647D01*
X163325276Y-104027314D01*
X163372895Y-103836838D01*
X163468133Y-103741600D01*
X163563371Y-103693980D01*
X163753847Y-103693980D01*
X163849085Y-103741600D01*
X163944323Y-103836838D01*
X163991942Y-104027314D01*
X163991942Y-104360647D01*
X163944323Y-104551123D01*
X163849085Y-104646361D01*
X163753847Y-104693980D01*
X163563371Y-104693980D01*
X164896704Y-103693980D02*
X164420514Y-103693980D01*
X164372895Y-104170171D01*
X164420514Y-104122552D01*
X164515752Y-104074933D01*
X164753847Y-104074933D01*
X164849085Y-104122552D01*
X164896704Y-104170171D01*
X164944323Y-104265409D01*
X164944323Y-104503504D01*
X164896704Y-104598742D01*
X164849085Y-104646361D01*
X164753847Y-104693980D01*
X164515752Y-104693980D01*
X164420514Y-104646361D01*
X164372895Y-104598742D01*
X160242261Y-104789219D02*
X160147023Y-104741600D01*
X160051785Y-104646361D01*
X159908928Y-104503504D01*
X159813690Y-104455885D01*
X159718452Y-104455885D01*
X159766071Y-104693980D02*
X159670833Y-104646361D01*
X159575595Y-104551123D01*
X159527976Y-104360647D01*
X159527976Y-104027314D01*
X159575595Y-103836838D01*
X159670833Y-103741600D01*
X159766071Y-103693980D01*
X159956547Y-103693980D01*
X160051785Y-103741600D01*
X160147023Y-103836838D01*
X160194642Y-104027314D01*
X160194642Y-104360647D01*
X160147023Y-104551123D01*
X160051785Y-104646361D01*
X159956547Y-104693980D01*
X159766071Y-104693980D01*
X161051785Y-104027314D02*
X161051785Y-104693980D01*
X160813690Y-103646361D02*
X160575595Y-104360647D01*
X161194642Y-104360647D01*
X158584066Y-96933846D02*
X158584066Y-97267180D01*
X157884066Y-97267180D01*
X158584066Y-96333846D02*
X158584066Y-96733846D01*
X158584066Y-96533846D02*
X157884066Y-96533846D01*
X157984066Y-96600513D01*
X158050733Y-96667180D01*
X158084066Y-96733846D01*
X157255433Y-86765566D02*
X157255433Y-86065566D01*
X157422100Y-86065566D01*
X157522100Y-86098900D01*
X157588766Y-86165566D01*
X157622100Y-86232233D01*
X157655433Y-86365566D01*
X157655433Y-86465566D01*
X157622100Y-86598900D01*
X157588766Y-86665566D01*
X157522100Y-86732233D01*
X157422100Y-86765566D01*
X157255433Y-86765566D01*
X158322100Y-86765566D02*
X157922100Y-86765566D01*
X158122100Y-86765566D02*
X158122100Y-86065566D01*
X158055433Y-86165566D01*
X157988766Y-86232233D01*
X157922100Y-86265566D01*
X151138866Y-87253246D02*
X150738866Y-87253246D01*
X150938866Y-87253246D02*
X150938866Y-86553246D01*
X150872200Y-86653246D01*
X150805533Y-86719913D01*
X150738866Y-86753246D01*
X151572200Y-86553246D02*
X151638866Y-86553246D01*
X151705533Y-86586580D01*
X151738866Y-86619913D01*
X151772200Y-86686580D01*
X151805533Y-86819913D01*
X151805533Y-86986580D01*
X151772200Y-87119913D01*
X151738866Y-87186580D01*
X151705533Y-87219913D01*
X151638866Y-87253246D01*
X151572200Y-87253246D01*
X151505533Y-87219913D01*
X151472200Y-87186580D01*
X151438866Y-87119913D01*
X151405533Y-86986580D01*
X151405533Y-86819913D01*
X151438866Y-86686580D01*
X151472200Y-86619913D01*
X151505533Y-86586580D01*
X151572200Y-86553246D01*
X152238866Y-86553246D02*
X152305533Y-86553246D01*
X152372200Y-86586580D01*
X152405533Y-86619913D01*
X152438866Y-86686580D01*
X152472200Y-86819913D01*
X152472200Y-86986580D01*
X152438866Y-87119913D01*
X152405533Y-87186580D01*
X152372200Y-87219913D01*
X152305533Y-87253246D01*
X152238866Y-87253246D01*
X152172200Y-87219913D01*
X152138866Y-87186580D01*
X152105533Y-87119913D01*
X152072200Y-86986580D01*
X152072200Y-86819913D01*
X152105533Y-86686580D01*
X152138866Y-86619913D01*
X152172200Y-86586580D01*
X152238866Y-86553246D01*
X152772200Y-86786580D02*
X152772200Y-87253246D01*
X152772200Y-86853246D02*
X152805533Y-86819913D01*
X152872200Y-86786580D01*
X152972200Y-86786580D01*
X153038866Y-86819913D01*
X153072200Y-86886580D01*
X153072200Y-87253246D01*
X153638866Y-86886580D02*
X153405533Y-86886580D01*
X153405533Y-87253246D02*
X153405533Y-86553246D01*
X153738866Y-86553246D01*
M02*
