G04 #@! TF.GenerationSoftware,KiCad,Pcbnew,(5.1.8-0-10_14)*
G04 #@! TF.CreationDate,2021-11-26T07:07:57-05:00*
G04 #@! TF.ProjectId,4809Rc,34383039-5263-42e6-9b69-6361645f7063,rev?*
G04 #@! TF.SameCoordinates,Original*
G04 #@! TF.FileFunction,Copper,L1,Top*
G04 #@! TF.FilePolarity,Positive*
%FSLAX46Y46*%
G04 Gerber Fmt 4.6, Leading zero omitted, Abs format (unit mm)*
G04 Created by KiCad (PCBNEW (5.1.8-0-10_14)) date 2021-11-26 07:07:57*
%MOMM*%
%LPD*%
G01*
G04 APERTURE LIST*
G04 #@! TA.AperFunction,ComponentPad*
%ADD10O,1.700000X1.700000*%
G04 #@! TD*
G04 #@! TA.AperFunction,ComponentPad*
%ADD11R,1.700000X1.700000*%
G04 #@! TD*
G04 #@! TA.AperFunction,ComponentPad*
%ADD12O,0.800000X1.300000*%
G04 #@! TD*
G04 #@! TA.AperFunction,SMDPad,CuDef*
%ADD13R,0.250000X1.300000*%
G04 #@! TD*
G04 #@! TA.AperFunction,SMDPad,CuDef*
%ADD14R,1.300000X0.250000*%
G04 #@! TD*
G04 #@! TA.AperFunction,ComponentPad*
%ADD15O,1.300000X0.800000*%
G04 #@! TD*
G04 #@! TA.AperFunction,SMDPad,CuDef*
%ADD16R,0.900000X0.800000*%
G04 #@! TD*
G04 #@! TA.AperFunction,SMDPad,CuDef*
%ADD17R,0.800000X0.900000*%
G04 #@! TD*
G04 #@! TA.AperFunction,ViaPad*
%ADD18C,0.800000*%
G04 #@! TD*
G04 #@! TA.AperFunction,Conductor*
%ADD19C,0.300000*%
G04 #@! TD*
G04 #@! TA.AperFunction,Conductor*
%ADD20C,0.200000*%
G04 #@! TD*
G04 #@! TA.AperFunction,Conductor*
%ADD21C,0.500000*%
G04 #@! TD*
G04 APERTURE END LIST*
D10*
X166966900Y-99809300D03*
D11*
X166966900Y-102349300D03*
D12*
X158972900Y-107403900D03*
X157722900Y-107403900D03*
X156472900Y-107403900D03*
X155222900Y-107403900D03*
X153972900Y-107403900D03*
X152722900Y-107403900D03*
G04 #@! TA.AperFunction,ComponentPad*
G36*
G01*
X151072900Y-107853900D02*
X151072900Y-106953900D01*
G75*
G02*
X151272900Y-106753900I200000J0D01*
G01*
X151672900Y-106753900D01*
G75*
G02*
X151872900Y-106953900I0J-200000D01*
G01*
X151872900Y-107853900D01*
G75*
G02*
X151672900Y-108053900I-200000J0D01*
G01*
X151272900Y-108053900D01*
G75*
G02*
X151072900Y-107853900I0J200000D01*
G01*
G37*
G04 #@! TD.AperFunction*
G04 #@! TA.AperFunction,SMDPad,CuDef*
G36*
G01*
X153535900Y-101369150D02*
X153535900Y-101881650D01*
G75*
G02*
X153317150Y-102100400I-218750J0D01*
G01*
X152879650Y-102100400D01*
G75*
G02*
X152660900Y-101881650I0J218750D01*
G01*
X152660900Y-101369150D01*
G75*
G02*
X152879650Y-101150400I218750J0D01*
G01*
X153317150Y-101150400D01*
G75*
G02*
X153535900Y-101369150I0J-218750D01*
G01*
G37*
G04 #@! TD.AperFunction*
G04 #@! TA.AperFunction,SMDPad,CuDef*
G36*
G01*
X155110900Y-101369150D02*
X155110900Y-101881650D01*
G75*
G02*
X154892150Y-102100400I-218750J0D01*
G01*
X154454650Y-102100400D01*
G75*
G02*
X154235900Y-101881650I0J218750D01*
G01*
X154235900Y-101369150D01*
G75*
G02*
X154454650Y-101150400I218750J0D01*
G01*
X154892150Y-101150400D01*
G75*
G02*
X155110900Y-101369150I0J-218750D01*
G01*
G37*
G04 #@! TD.AperFunction*
D13*
X150285000Y-88360000D03*
X150785000Y-88360000D03*
X151285000Y-88360000D03*
X151785000Y-88360000D03*
X152285000Y-88360000D03*
X152785000Y-88360000D03*
X153285000Y-88360000D03*
X153785000Y-88360000D03*
X154285000Y-88360000D03*
X154785000Y-88360000D03*
X155285000Y-88360000D03*
X155785000Y-88360000D03*
D14*
X157385000Y-89960000D03*
X157385000Y-90460000D03*
X157385000Y-90960000D03*
X157385000Y-91460000D03*
X157385000Y-91960000D03*
X157385000Y-92460000D03*
X157385000Y-92960000D03*
X157385000Y-93460000D03*
X157385000Y-93960000D03*
X157385000Y-94460000D03*
X157385000Y-94960000D03*
X157385000Y-95460000D03*
D13*
X155785000Y-97060000D03*
X155285000Y-97060000D03*
X154785000Y-97060000D03*
X154285000Y-97060000D03*
X153785000Y-97060000D03*
X153285000Y-97060000D03*
X152785000Y-97060000D03*
X152285000Y-97060000D03*
X151785000Y-97060000D03*
X151285000Y-97060000D03*
X150785000Y-97060000D03*
X150285000Y-97060000D03*
D14*
X148685000Y-95460000D03*
X148685000Y-94960000D03*
X148685000Y-94460000D03*
X148685000Y-93960000D03*
X148685000Y-93460000D03*
X148685000Y-92960000D03*
X148685000Y-92460000D03*
X148685000Y-91960000D03*
X148685000Y-91460000D03*
X148685000Y-90960000D03*
X148685000Y-90460000D03*
X148685000Y-89960000D03*
D12*
X163363600Y-82981800D03*
X162113600Y-82981800D03*
X160863600Y-82981800D03*
G04 #@! TA.AperFunction,ComponentPad*
G36*
G01*
X159213600Y-83431800D02*
X159213600Y-82531800D01*
G75*
G02*
X159413600Y-82331800I200000J0D01*
G01*
X159813600Y-82331800D01*
G75*
G02*
X160013600Y-82531800I0J-200000D01*
G01*
X160013600Y-83431800D01*
G75*
G02*
X159813600Y-83631800I-200000J0D01*
G01*
X159413600Y-83631800D01*
G75*
G02*
X159213600Y-83431800I0J200000D01*
G01*
G37*
G04 #@! TD.AperFunction*
G04 #@! TA.AperFunction,SMDPad,CuDef*
G36*
G01*
X154894800Y-84732150D02*
X154894800Y-85244650D01*
G75*
G02*
X154676050Y-85463400I-218750J0D01*
G01*
X154238550Y-85463400D01*
G75*
G02*
X154019800Y-85244650I0J218750D01*
G01*
X154019800Y-84732150D01*
G75*
G02*
X154238550Y-84513400I218750J0D01*
G01*
X154676050Y-84513400D01*
G75*
G02*
X154894800Y-84732150I0J-218750D01*
G01*
G37*
G04 #@! TD.AperFunction*
G04 #@! TA.AperFunction,SMDPad,CuDef*
G36*
G01*
X156469800Y-84732150D02*
X156469800Y-85244650D01*
G75*
G02*
X156251050Y-85463400I-218750J0D01*
G01*
X155813550Y-85463400D01*
G75*
G02*
X155594800Y-85244650I0J218750D01*
G01*
X155594800Y-84732150D01*
G75*
G02*
X155813550Y-84513400I218750J0D01*
G01*
X156251050Y-84513400D01*
G75*
G02*
X156469800Y-84732150I0J-218750D01*
G01*
G37*
G04 #@! TD.AperFunction*
D10*
X166979600Y-95084900D03*
X164439600Y-95084900D03*
D11*
X161899600Y-95084900D03*
D15*
X146050000Y-90442400D03*
X146050000Y-91692400D03*
X146050000Y-92942400D03*
X146050000Y-94192400D03*
X146050000Y-95442400D03*
X146050000Y-96692400D03*
G04 #@! TA.AperFunction,ComponentPad*
G36*
G01*
X146500000Y-98342400D02*
X145600000Y-98342400D01*
G75*
G02*
X145400000Y-98142400I0J200000D01*
G01*
X145400000Y-97742400D01*
G75*
G02*
X145600000Y-97542400I200000J0D01*
G01*
X146500000Y-97542400D01*
G75*
G02*
X146700000Y-97742400I0J-200000D01*
G01*
X146700000Y-98142400D01*
G75*
G02*
X146500000Y-98342400I-200000J0D01*
G01*
G37*
G04 #@! TD.AperFunction*
X146050000Y-106180900D03*
X146050000Y-104930900D03*
X146050000Y-103680900D03*
X146050000Y-102430900D03*
G04 #@! TA.AperFunction,ComponentPad*
G36*
G01*
X145600000Y-100780900D02*
X146500000Y-100780900D01*
G75*
G02*
X146700000Y-100980900I0J-200000D01*
G01*
X146700000Y-101380900D01*
G75*
G02*
X146500000Y-101580900I-200000J0D01*
G01*
X145600000Y-101580900D01*
G75*
G02*
X145400000Y-101380900I0J200000D01*
G01*
X145400000Y-100980900D01*
G75*
G02*
X145600000Y-100780900I200000J0D01*
G01*
G37*
G04 #@! TD.AperFunction*
X167436800Y-84986800D03*
X167436800Y-86236800D03*
X167436800Y-87486800D03*
X167436800Y-88736800D03*
X167436800Y-89986800D03*
G04 #@! TA.AperFunction,ComponentPad*
G36*
G01*
X167886800Y-91636800D02*
X166986800Y-91636800D01*
G75*
G02*
X166786800Y-91436800I0J200000D01*
G01*
X166786800Y-91036800D01*
G75*
G02*
X166986800Y-90836800I200000J0D01*
G01*
X167886800Y-90836800D01*
G75*
G02*
X168086800Y-91036800I0J-200000D01*
G01*
X168086800Y-91436800D01*
G75*
G02*
X167886800Y-91636800I-200000J0D01*
G01*
G37*
G04 #@! TD.AperFunction*
D16*
X164296600Y-98679000D03*
X162296600Y-99629000D03*
X162296600Y-97729000D03*
G04 #@! TA.AperFunction,SMDPad,CuDef*
G36*
G01*
X164018250Y-92094800D02*
X164530750Y-92094800D01*
G75*
G02*
X164749500Y-92313550I0J-218750D01*
G01*
X164749500Y-92751050D01*
G75*
G02*
X164530750Y-92969800I-218750J0D01*
G01*
X164018250Y-92969800D01*
G75*
G02*
X163799500Y-92751050I0J218750D01*
G01*
X163799500Y-92313550D01*
G75*
G02*
X164018250Y-92094800I218750J0D01*
G01*
G37*
G04 #@! TD.AperFunction*
G04 #@! TA.AperFunction,SMDPad,CuDef*
G36*
G01*
X164018250Y-90519800D02*
X164530750Y-90519800D01*
G75*
G02*
X164749500Y-90738550I0J-218750D01*
G01*
X164749500Y-91176050D01*
G75*
G02*
X164530750Y-91394800I-218750J0D01*
G01*
X164018250Y-91394800D01*
G75*
G02*
X163799500Y-91176050I0J218750D01*
G01*
X163799500Y-90738550D01*
G75*
G02*
X164018250Y-90519800I218750J0D01*
G01*
G37*
G04 #@! TD.AperFunction*
G04 #@! TA.AperFunction,SMDPad,CuDef*
G36*
G01*
X162494250Y-89097600D02*
X163006750Y-89097600D01*
G75*
G02*
X163225500Y-89316350I0J-218750D01*
G01*
X163225500Y-89753850D01*
G75*
G02*
X163006750Y-89972600I-218750J0D01*
G01*
X162494250Y-89972600D01*
G75*
G02*
X162275500Y-89753850I0J218750D01*
G01*
X162275500Y-89316350D01*
G75*
G02*
X162494250Y-89097600I218750J0D01*
G01*
G37*
G04 #@! TD.AperFunction*
G04 #@! TA.AperFunction,SMDPad,CuDef*
G36*
G01*
X162494250Y-87522600D02*
X163006750Y-87522600D01*
G75*
G02*
X163225500Y-87741350I0J-218750D01*
G01*
X163225500Y-88178850D01*
G75*
G02*
X163006750Y-88397600I-218750J0D01*
G01*
X162494250Y-88397600D01*
G75*
G02*
X162275500Y-88178850I0J218750D01*
G01*
X162275500Y-87741350D01*
G75*
G02*
X162494250Y-87522600I218750J0D01*
G01*
G37*
G04 #@! TD.AperFunction*
G04 #@! TA.AperFunction,SMDPad,CuDef*
G36*
G01*
X164530750Y-88397600D02*
X164018250Y-88397600D01*
G75*
G02*
X163799500Y-88178850I0J218750D01*
G01*
X163799500Y-87741350D01*
G75*
G02*
X164018250Y-87522600I218750J0D01*
G01*
X164530750Y-87522600D01*
G75*
G02*
X164749500Y-87741350I0J-218750D01*
G01*
X164749500Y-88178850D01*
G75*
G02*
X164530750Y-88397600I-218750J0D01*
G01*
G37*
G04 #@! TD.AperFunction*
G04 #@! TA.AperFunction,SMDPad,CuDef*
G36*
G01*
X164530750Y-89972600D02*
X164018250Y-89972600D01*
G75*
G02*
X163799500Y-89753850I0J218750D01*
G01*
X163799500Y-89316350D01*
G75*
G02*
X164018250Y-89097600I218750J0D01*
G01*
X164530750Y-89097600D01*
G75*
G02*
X164749500Y-89316350I0J-218750D01*
G01*
X164749500Y-89753850D01*
G75*
G02*
X164530750Y-89972600I-218750J0D01*
G01*
G37*
G04 #@! TD.AperFunction*
G04 #@! TA.AperFunction,SMDPad,CuDef*
G36*
G01*
X161021050Y-86100400D02*
X161533550Y-86100400D01*
G75*
G02*
X161752300Y-86319150I0J-218750D01*
G01*
X161752300Y-86756650D01*
G75*
G02*
X161533550Y-86975400I-218750J0D01*
G01*
X161021050Y-86975400D01*
G75*
G02*
X160802300Y-86756650I0J218750D01*
G01*
X160802300Y-86319150D01*
G75*
G02*
X161021050Y-86100400I218750J0D01*
G01*
G37*
G04 #@! TD.AperFunction*
G04 #@! TA.AperFunction,SMDPad,CuDef*
G36*
G01*
X161021050Y-84525400D02*
X161533550Y-84525400D01*
G75*
G02*
X161752300Y-84744150I0J-218750D01*
G01*
X161752300Y-85181650D01*
G75*
G02*
X161533550Y-85400400I-218750J0D01*
G01*
X161021050Y-85400400D01*
G75*
G02*
X160802300Y-85181650I0J218750D01*
G01*
X160802300Y-84744150D01*
G75*
G02*
X161021050Y-84525400I218750J0D01*
G01*
G37*
G04 #@! TD.AperFunction*
G04 #@! TA.AperFunction,SMDPad,CuDef*
G36*
G01*
X160009550Y-85400400D02*
X159497050Y-85400400D01*
G75*
G02*
X159278300Y-85181650I0J218750D01*
G01*
X159278300Y-84744150D01*
G75*
G02*
X159497050Y-84525400I218750J0D01*
G01*
X160009550Y-84525400D01*
G75*
G02*
X160228300Y-84744150I0J-218750D01*
G01*
X160228300Y-85181650D01*
G75*
G02*
X160009550Y-85400400I-218750J0D01*
G01*
G37*
G04 #@! TD.AperFunction*
G04 #@! TA.AperFunction,SMDPad,CuDef*
G36*
G01*
X160009550Y-86975400D02*
X159497050Y-86975400D01*
G75*
G02*
X159278300Y-86756650I0J218750D01*
G01*
X159278300Y-86319150D01*
G75*
G02*
X159497050Y-86100400I218750J0D01*
G01*
X160009550Y-86100400D01*
G75*
G02*
X160228300Y-86319150I0J-218750D01*
G01*
X160228300Y-86756650D01*
G75*
G02*
X160009550Y-86975400I-218750J0D01*
G01*
G37*
G04 #@! TD.AperFunction*
D17*
X149174200Y-105101900D03*
X148224200Y-103101900D03*
X150124200Y-103101900D03*
D15*
X146050000Y-87252500D03*
X146050000Y-86002500D03*
X146050000Y-84752500D03*
G04 #@! TA.AperFunction,ComponentPad*
G36*
G01*
X145600000Y-83102500D02*
X146500000Y-83102500D01*
G75*
G02*
X146700000Y-83302500I0J-200000D01*
G01*
X146700000Y-83702500D01*
G75*
G02*
X146500000Y-83902500I-200000J0D01*
G01*
X145600000Y-83902500D01*
G75*
G02*
X145400000Y-83702500I0J200000D01*
G01*
X145400000Y-83302500D01*
G75*
G02*
X145600000Y-83102500I200000J0D01*
G01*
G37*
G04 #@! TD.AperFunction*
G04 #@! TA.AperFunction,SMDPad,CuDef*
G36*
G01*
X156545800Y-101369150D02*
X156545800Y-101881650D01*
G75*
G02*
X156327050Y-102100400I-218750J0D01*
G01*
X155889550Y-102100400D01*
G75*
G02*
X155670800Y-101881650I0J218750D01*
G01*
X155670800Y-101369150D01*
G75*
G02*
X155889550Y-101150400I218750J0D01*
G01*
X156327050Y-101150400D01*
G75*
G02*
X156545800Y-101369150I0J-218750D01*
G01*
G37*
G04 #@! TD.AperFunction*
G04 #@! TA.AperFunction,SMDPad,CuDef*
G36*
G01*
X158120800Y-101369150D02*
X158120800Y-101881650D01*
G75*
G02*
X157902050Y-102100400I-218750J0D01*
G01*
X157464550Y-102100400D01*
G75*
G02*
X157245800Y-101881650I0J218750D01*
G01*
X157245800Y-101369150D01*
G75*
G02*
X157464550Y-101150400I218750J0D01*
G01*
X157902050Y-101150400D01*
G75*
G02*
X158120800Y-101369150I0J-218750D01*
G01*
G37*
G04 #@! TD.AperFunction*
D17*
X156273500Y-105114600D03*
X155323500Y-103114600D03*
X157223500Y-103114600D03*
G04 #@! TA.AperFunction,SMDPad,CuDef*
G36*
G01*
X150526000Y-101369150D02*
X150526000Y-101881650D01*
G75*
G02*
X150307250Y-102100400I-218750J0D01*
G01*
X149869750Y-102100400D01*
G75*
G02*
X149651000Y-101881650I0J218750D01*
G01*
X149651000Y-101369150D01*
G75*
G02*
X149869750Y-101150400I218750J0D01*
G01*
X150307250Y-101150400D01*
G75*
G02*
X150526000Y-101369150I0J-218750D01*
G01*
G37*
G04 #@! TD.AperFunction*
G04 #@! TA.AperFunction,SMDPad,CuDef*
G36*
G01*
X152101000Y-101369150D02*
X152101000Y-101881650D01*
G75*
G02*
X151882250Y-102100400I-218750J0D01*
G01*
X151444750Y-102100400D01*
G75*
G02*
X151226000Y-101881650I0J218750D01*
G01*
X151226000Y-101369150D01*
G75*
G02*
X151444750Y-101150400I218750J0D01*
G01*
X151882250Y-101150400D01*
G75*
G02*
X152101000Y-101369150I0J-218750D01*
G01*
G37*
G04 #@! TD.AperFunction*
D12*
X150353700Y-82969100D03*
X151603700Y-82969100D03*
X152853700Y-82969100D03*
X154103700Y-82969100D03*
X155353700Y-82969100D03*
G04 #@! TA.AperFunction,ComponentPad*
G36*
G01*
X157003700Y-82519100D02*
X157003700Y-83419100D01*
G75*
G02*
X156803700Y-83619100I-200000J0D01*
G01*
X156403700Y-83619100D01*
G75*
G02*
X156203700Y-83419100I0J200000D01*
G01*
X156203700Y-82519100D01*
G75*
G02*
X156403700Y-82319100I200000J0D01*
G01*
X156803700Y-82319100D01*
G75*
G02*
X157003700Y-82519100I0J-200000D01*
G01*
G37*
G04 #@! TD.AperFunction*
G04 #@! TA.AperFunction,SMDPad,CuDef*
G36*
G01*
X150705300Y-99303550D02*
X150705300Y-98791050D01*
G75*
G02*
X150924050Y-98572300I218750J0D01*
G01*
X151361550Y-98572300D01*
G75*
G02*
X151580300Y-98791050I0J-218750D01*
G01*
X151580300Y-99303550D01*
G75*
G02*
X151361550Y-99522300I-218750J0D01*
G01*
X150924050Y-99522300D01*
G75*
G02*
X150705300Y-99303550I0J218750D01*
G01*
G37*
G04 #@! TD.AperFunction*
G04 #@! TA.AperFunction,SMDPad,CuDef*
G36*
G01*
X149130300Y-99303550D02*
X149130300Y-98791050D01*
G75*
G02*
X149349050Y-98572300I218750J0D01*
G01*
X149786550Y-98572300D01*
G75*
G02*
X150005300Y-98791050I0J-218750D01*
G01*
X150005300Y-99303550D01*
G75*
G02*
X149786550Y-99522300I-218750J0D01*
G01*
X149349050Y-99522300D01*
G75*
G02*
X149130300Y-99303550I0J218750D01*
G01*
G37*
G04 #@! TD.AperFunction*
G04 #@! TA.AperFunction,SMDPad,CuDef*
G36*
G01*
X158922200Y-99582950D02*
X158922200Y-99070450D01*
G75*
G02*
X159140950Y-98851700I218750J0D01*
G01*
X159578450Y-98851700D01*
G75*
G02*
X159797200Y-99070450I0J-218750D01*
G01*
X159797200Y-99582950D01*
G75*
G02*
X159578450Y-99801700I-218750J0D01*
G01*
X159140950Y-99801700D01*
G75*
G02*
X158922200Y-99582950I0J218750D01*
G01*
G37*
G04 #@! TD.AperFunction*
G04 #@! TA.AperFunction,SMDPad,CuDef*
G36*
G01*
X157347200Y-99582950D02*
X157347200Y-99070450D01*
G75*
G02*
X157565950Y-98851700I218750J0D01*
G01*
X158003450Y-98851700D01*
G75*
G02*
X158222200Y-99070450I0J-218750D01*
G01*
X158222200Y-99582950D01*
G75*
G02*
X158003450Y-99801700I-218750J0D01*
G01*
X157565950Y-99801700D01*
G75*
G02*
X157347200Y-99582950I0J218750D01*
G01*
G37*
G04 #@! TD.AperFunction*
G04 #@! TA.AperFunction,SMDPad,CuDef*
G36*
G01*
X159590450Y-93503000D02*
X159077950Y-93503000D01*
G75*
G02*
X158859200Y-93284250I0J218750D01*
G01*
X158859200Y-92846750D01*
G75*
G02*
X159077950Y-92628000I218750J0D01*
G01*
X159590450Y-92628000D01*
G75*
G02*
X159809200Y-92846750I0J-218750D01*
G01*
X159809200Y-93284250D01*
G75*
G02*
X159590450Y-93503000I-218750J0D01*
G01*
G37*
G04 #@! TD.AperFunction*
G04 #@! TA.AperFunction,SMDPad,CuDef*
G36*
G01*
X159590450Y-95078000D02*
X159077950Y-95078000D01*
G75*
G02*
X158859200Y-94859250I0J218750D01*
G01*
X158859200Y-94421750D01*
G75*
G02*
X159077950Y-94203000I218750J0D01*
G01*
X159590450Y-94203000D01*
G75*
G02*
X159809200Y-94421750I0J-218750D01*
G01*
X159809200Y-94859250D01*
G75*
G02*
X159590450Y-95078000I-218750J0D01*
G01*
G37*
G04 #@! TD.AperFunction*
G04 #@! TA.AperFunction,SMDPad,CuDef*
G36*
G01*
X164018250Y-86100400D02*
X164530750Y-86100400D01*
G75*
G02*
X164749500Y-86319150I0J-218750D01*
G01*
X164749500Y-86756650D01*
G75*
G02*
X164530750Y-86975400I-218750J0D01*
G01*
X164018250Y-86975400D01*
G75*
G02*
X163799500Y-86756650I0J218750D01*
G01*
X163799500Y-86319150D01*
G75*
G02*
X164018250Y-86100400I218750J0D01*
G01*
G37*
G04 #@! TD.AperFunction*
G04 #@! TA.AperFunction,SMDPad,CuDef*
G36*
G01*
X164018250Y-84525400D02*
X164530750Y-84525400D01*
G75*
G02*
X164749500Y-84744150I0J-218750D01*
G01*
X164749500Y-85181650D01*
G75*
G02*
X164530750Y-85400400I-218750J0D01*
G01*
X164018250Y-85400400D01*
G75*
G02*
X163799500Y-85181650I0J218750D01*
G01*
X163799500Y-84744150D01*
G75*
G02*
X164018250Y-84525400I218750J0D01*
G01*
G37*
G04 #@! TD.AperFunction*
G04 #@! TA.AperFunction,SMDPad,CuDef*
G36*
G01*
X163006750Y-91394800D02*
X162494250Y-91394800D01*
G75*
G02*
X162275500Y-91176050I0J218750D01*
G01*
X162275500Y-90738550D01*
G75*
G02*
X162494250Y-90519800I218750J0D01*
G01*
X163006750Y-90519800D01*
G75*
G02*
X163225500Y-90738550I0J-218750D01*
G01*
X163225500Y-91176050D01*
G75*
G02*
X163006750Y-91394800I-218750J0D01*
G01*
G37*
G04 #@! TD.AperFunction*
G04 #@! TA.AperFunction,SMDPad,CuDef*
G36*
G01*
X163006750Y-92969800D02*
X162494250Y-92969800D01*
G75*
G02*
X162275500Y-92751050I0J218750D01*
G01*
X162275500Y-92313550D01*
G75*
G02*
X162494250Y-92094800I218750J0D01*
G01*
X163006750Y-92094800D01*
G75*
G02*
X163225500Y-92313550I0J-218750D01*
G01*
X163225500Y-92751050D01*
G75*
G02*
X163006750Y-92969800I-218750J0D01*
G01*
G37*
G04 #@! TD.AperFunction*
G04 #@! TA.AperFunction,SMDPad,CuDef*
G36*
G01*
X160576550Y-98863900D02*
X161089050Y-98863900D01*
G75*
G02*
X161307800Y-99082650I0J-218750D01*
G01*
X161307800Y-99520150D01*
G75*
G02*
X161089050Y-99738900I-218750J0D01*
G01*
X160576550Y-99738900D01*
G75*
G02*
X160357800Y-99520150I0J218750D01*
G01*
X160357800Y-99082650D01*
G75*
G02*
X160576550Y-98863900I218750J0D01*
G01*
G37*
G04 #@! TD.AperFunction*
G04 #@! TA.AperFunction,SMDPad,CuDef*
G36*
G01*
X160576550Y-97288900D02*
X161089050Y-97288900D01*
G75*
G02*
X161307800Y-97507650I0J-218750D01*
G01*
X161307800Y-97945150D01*
G75*
G02*
X161089050Y-98163900I-218750J0D01*
G01*
X160576550Y-98163900D01*
G75*
G02*
X160357800Y-97945150I0J218750D01*
G01*
X160357800Y-97507650D01*
G75*
G02*
X160576550Y-97288900I218750J0D01*
G01*
G37*
G04 #@! TD.AperFunction*
G04 #@! TA.AperFunction,SMDPad,CuDef*
G36*
G01*
X162514800Y-101381850D02*
X162514800Y-101894350D01*
G75*
G02*
X162296050Y-102113100I-218750J0D01*
G01*
X161858550Y-102113100D01*
G75*
G02*
X161639800Y-101894350I0J218750D01*
G01*
X161639800Y-101381850D01*
G75*
G02*
X161858550Y-101163100I218750J0D01*
G01*
X162296050Y-101163100D01*
G75*
G02*
X162514800Y-101381850I0J-218750D01*
G01*
G37*
G04 #@! TD.AperFunction*
G04 #@! TA.AperFunction,SMDPad,CuDef*
G36*
G01*
X164089800Y-101381850D02*
X164089800Y-101894350D01*
G75*
G02*
X163871050Y-102113100I-218750J0D01*
G01*
X163433550Y-102113100D01*
G75*
G02*
X163214800Y-101894350I0J218750D01*
G01*
X163214800Y-101381850D01*
G75*
G02*
X163433550Y-101163100I218750J0D01*
G01*
X163871050Y-101163100D01*
G75*
G02*
X164089800Y-101381850I0J-218750D01*
G01*
G37*
G04 #@! TD.AperFunction*
G04 #@! TA.AperFunction,SMDPad,CuDef*
G36*
G01*
X159530300Y-101369150D02*
X159530300Y-101881650D01*
G75*
G02*
X159311550Y-102100400I-218750J0D01*
G01*
X158874050Y-102100400D01*
G75*
G02*
X158655300Y-101881650I0J218750D01*
G01*
X158655300Y-101369150D01*
G75*
G02*
X158874050Y-101150400I218750J0D01*
G01*
X159311550Y-101150400D01*
G75*
G02*
X159530300Y-101369150I0J-218750D01*
G01*
G37*
G04 #@! TD.AperFunction*
G04 #@! TA.AperFunction,SMDPad,CuDef*
G36*
G01*
X161105300Y-101369150D02*
X161105300Y-101881650D01*
G75*
G02*
X160886550Y-102100400I-218750J0D01*
G01*
X160449050Y-102100400D01*
G75*
G02*
X160230300Y-101881650I0J218750D01*
G01*
X160230300Y-101369150D01*
G75*
G02*
X160449050Y-101150400I218750J0D01*
G01*
X160886550Y-101150400D01*
G75*
G02*
X161105300Y-101369150I0J-218750D01*
G01*
G37*
G04 #@! TD.AperFunction*
D17*
X152717500Y-105114600D03*
X151767500Y-103114600D03*
X153667500Y-103114600D03*
X163372800Y-105114600D03*
X162422800Y-103114600D03*
X164322800Y-103114600D03*
X159829500Y-105114600D03*
X158879500Y-103114600D03*
X160779500Y-103114600D03*
G04 #@! TA.AperFunction,SMDPad,CuDef*
G36*
G01*
X159590450Y-96500200D02*
X159077950Y-96500200D01*
G75*
G02*
X158859200Y-96281450I0J218750D01*
G01*
X158859200Y-95843950D01*
G75*
G02*
X159077950Y-95625200I218750J0D01*
G01*
X159590450Y-95625200D01*
G75*
G02*
X159809200Y-95843950I0J-218750D01*
G01*
X159809200Y-96281450D01*
G75*
G02*
X159590450Y-96500200I-218750J0D01*
G01*
G37*
G04 #@! TD.AperFunction*
G04 #@! TA.AperFunction,SMDPad,CuDef*
G36*
G01*
X159590450Y-98075200D02*
X159077950Y-98075200D01*
G75*
G02*
X158859200Y-97856450I0J218750D01*
G01*
X158859200Y-97418950D01*
G75*
G02*
X159077950Y-97200200I218750J0D01*
G01*
X159590450Y-97200200D01*
G75*
G02*
X159809200Y-97418950I0J-218750D01*
G01*
X159809200Y-97856450D01*
G75*
G02*
X159590450Y-98075200I-218750J0D01*
G01*
G37*
G04 #@! TD.AperFunction*
G04 #@! TA.AperFunction,SMDPad,CuDef*
G36*
G01*
X155648000Y-86648700D02*
X155648000Y-86223700D01*
G75*
G02*
X155860500Y-86011200I212500J0D01*
G01*
X156660500Y-86011200D01*
G75*
G02*
X156873000Y-86223700I0J-212500D01*
G01*
X156873000Y-86648700D01*
G75*
G02*
X156660500Y-86861200I-212500J0D01*
G01*
X155860500Y-86861200D01*
G75*
G02*
X155648000Y-86648700I0J212500D01*
G01*
G37*
G04 #@! TD.AperFunction*
G04 #@! TA.AperFunction,SMDPad,CuDef*
G36*
G01*
X154023000Y-86648700D02*
X154023000Y-86223700D01*
G75*
G02*
X154235500Y-86011200I212500J0D01*
G01*
X155035500Y-86011200D01*
G75*
G02*
X155248000Y-86223700I0J-212500D01*
G01*
X155248000Y-86648700D01*
G75*
G02*
X155035500Y-86861200I-212500J0D01*
G01*
X154235500Y-86861200D01*
G75*
G02*
X154023000Y-86648700I0J212500D01*
G01*
G37*
G04 #@! TD.AperFunction*
G04 #@! TA.AperFunction,SMDPad,CuDef*
G36*
G01*
X151882360Y-85445890D02*
X151882360Y-85958390D01*
G75*
G02*
X151663610Y-86177140I-218750J0D01*
G01*
X151226110Y-86177140D01*
G75*
G02*
X151007360Y-85958390I0J218750D01*
G01*
X151007360Y-85445890D01*
G75*
G02*
X151226110Y-85227140I218750J0D01*
G01*
X151663610Y-85227140D01*
G75*
G02*
X151882360Y-85445890I0J-218750D01*
G01*
G37*
G04 #@! TD.AperFunction*
G04 #@! TA.AperFunction,SMDPad,CuDef*
G36*
G01*
X153457360Y-85445890D02*
X153457360Y-85958390D01*
G75*
G02*
X153238610Y-86177140I-218750J0D01*
G01*
X152801110Y-86177140D01*
G75*
G02*
X152582360Y-85958390I0J218750D01*
G01*
X152582360Y-85445890D01*
G75*
G02*
X152801110Y-85227140I218750J0D01*
G01*
X153238610Y-85227140D01*
G75*
G02*
X153457360Y-85445890I0J-218750D01*
G01*
G37*
G04 #@! TD.AperFunction*
G04 #@! TA.AperFunction,SMDPad,CuDef*
G36*
G01*
X163032150Y-85400400D02*
X162519650Y-85400400D01*
G75*
G02*
X162300900Y-85181650I0J218750D01*
G01*
X162300900Y-84744150D01*
G75*
G02*
X162519650Y-84525400I218750J0D01*
G01*
X163032150Y-84525400D01*
G75*
G02*
X163250900Y-84744150I0J-218750D01*
G01*
X163250900Y-85181650D01*
G75*
G02*
X163032150Y-85400400I-218750J0D01*
G01*
G37*
G04 #@! TD.AperFunction*
G04 #@! TA.AperFunction,SMDPad,CuDef*
G36*
G01*
X163032150Y-86975400D02*
X162519650Y-86975400D01*
G75*
G02*
X162300900Y-86756650I0J218750D01*
G01*
X162300900Y-86319150D01*
G75*
G02*
X162519650Y-86100400I218750J0D01*
G01*
X163032150Y-86100400D01*
G75*
G02*
X163250900Y-86319150I0J-218750D01*
G01*
X163250900Y-86756650D01*
G75*
G02*
X163032150Y-86975400I-218750J0D01*
G01*
G37*
G04 #@! TD.AperFunction*
G04 #@! TA.AperFunction,SMDPad,CuDef*
G36*
G01*
X161482750Y-91394800D02*
X160970250Y-91394800D01*
G75*
G02*
X160751500Y-91176050I0J218750D01*
G01*
X160751500Y-90738550D01*
G75*
G02*
X160970250Y-90519800I218750J0D01*
G01*
X161482750Y-90519800D01*
G75*
G02*
X161701500Y-90738550I0J-218750D01*
G01*
X161701500Y-91176050D01*
G75*
G02*
X161482750Y-91394800I-218750J0D01*
G01*
G37*
G04 #@! TD.AperFunction*
G04 #@! TA.AperFunction,SMDPad,CuDef*
G36*
G01*
X161482750Y-92969800D02*
X160970250Y-92969800D01*
G75*
G02*
X160751500Y-92751050I0J218750D01*
G01*
X160751500Y-92313550D01*
G75*
G02*
X160970250Y-92094800I218750J0D01*
G01*
X161482750Y-92094800D01*
G75*
G02*
X161701500Y-92313550I0J-218750D01*
G01*
X161701500Y-92751050D01*
G75*
G02*
X161482750Y-92969800I-218750J0D01*
G01*
G37*
G04 #@! TD.AperFunction*
G04 #@! TA.AperFunction,SMDPad,CuDef*
G36*
G01*
X160970250Y-89097600D02*
X161482750Y-89097600D01*
G75*
G02*
X161701500Y-89316350I0J-218750D01*
G01*
X161701500Y-89753850D01*
G75*
G02*
X161482750Y-89972600I-218750J0D01*
G01*
X160970250Y-89972600D01*
G75*
G02*
X160751500Y-89753850I0J218750D01*
G01*
X160751500Y-89316350D01*
G75*
G02*
X160970250Y-89097600I218750J0D01*
G01*
G37*
G04 #@! TD.AperFunction*
G04 #@! TA.AperFunction,SMDPad,CuDef*
G36*
G01*
X160970250Y-87522600D02*
X161482750Y-87522600D01*
G75*
G02*
X161701500Y-87741350I0J-218750D01*
G01*
X161701500Y-88178850D01*
G75*
G02*
X161482750Y-88397600I-218750J0D01*
G01*
X160970250Y-88397600D01*
G75*
G02*
X160751500Y-88178850I0J218750D01*
G01*
X160751500Y-87741350D01*
G75*
G02*
X160970250Y-87522600I218750J0D01*
G01*
G37*
G04 #@! TD.AperFunction*
D18*
X159777900Y-104013000D03*
X161798000Y-104013000D03*
X158280100Y-104013000D03*
X156221900Y-104013000D03*
X152665900Y-104013000D03*
X154698700Y-104013000D03*
X163309300Y-104000300D03*
X149135300Y-104013000D03*
X151041114Y-104013000D03*
X148209000Y-104013000D03*
X152227957Y-95859988D03*
X151535018Y-95859994D03*
X163322000Y-99428300D03*
X163322000Y-100253800D03*
X165437940Y-86375120D03*
X160042860Y-91643200D03*
X152184100Y-86659720D03*
X160264355Y-100208310D03*
X148602700Y-84086700D03*
X148602700Y-86296500D03*
X155422600Y-92786200D03*
X153316400Y-92786200D03*
X148590000Y-88506300D03*
X155422600Y-94919800D03*
X153316400Y-94898399D03*
X148369551Y-99802211D03*
D19*
X159777900Y-104013000D02*
X158879500Y-103114600D01*
X161798000Y-104013000D02*
X159777900Y-104013000D01*
X161798000Y-103739400D02*
X161798000Y-104013000D01*
X162422800Y-103114600D02*
X161798000Y-103739400D01*
X158280100Y-104013000D02*
X156221900Y-104013000D01*
X158879500Y-103114600D02*
X158280100Y-103714000D01*
X158280100Y-103714000D02*
X158280100Y-104013000D01*
X156221900Y-104013000D02*
X155323500Y-103114600D01*
X152665900Y-104013000D02*
X151767500Y-103114600D01*
X154698700Y-104013000D02*
X152665900Y-104013000D01*
X154698700Y-103739400D02*
X154698700Y-104013000D01*
X155323500Y-103114600D02*
X154698700Y-103739400D01*
X162423600Y-103114600D02*
X163309300Y-104000300D01*
X162422800Y-103114600D02*
X162423600Y-103114600D01*
D20*
X162001100Y-85737700D02*
X160528100Y-85737700D01*
X160528100Y-85737700D02*
X159753300Y-84962900D01*
X162775900Y-84962900D02*
X162001100Y-85737700D01*
D19*
X148224200Y-103101900D02*
X149135300Y-104013000D01*
X149135300Y-104013000D02*
X151041114Y-104013000D01*
X151041114Y-103840986D02*
X151041114Y-104013000D01*
X151767500Y-103114600D02*
X151041114Y-103840986D01*
X148224200Y-104239100D02*
X148209000Y-104254300D01*
X148224200Y-103101900D02*
X148224200Y-104239100D01*
X151285000Y-96110000D02*
X151535012Y-95859988D01*
X151285000Y-97060000D02*
X151285000Y-96110000D01*
X151535012Y-95859988D02*
X152227957Y-95859988D01*
X151285000Y-97060000D02*
X151285000Y-96110012D01*
X151285000Y-96110012D02*
X151535018Y-95859994D01*
X151285000Y-98905100D02*
X151142800Y-99047300D01*
X151285000Y-97060000D02*
X151285000Y-98905100D01*
X162077300Y-102769100D02*
X162422800Y-103114600D01*
X162077300Y-101638100D02*
X162077300Y-102769100D01*
X159092800Y-102901300D02*
X158879500Y-103114600D01*
X159092800Y-101625400D02*
X159092800Y-102901300D01*
X156108300Y-102329800D02*
X155323500Y-103114600D01*
X156108300Y-101625400D02*
X156108300Y-102329800D01*
X153098400Y-101783700D02*
X151767500Y-103114600D01*
X153098400Y-101625400D02*
X153098400Y-101783700D01*
X163322000Y-99428300D02*
X163334700Y-99428300D01*
X162497300Y-99428300D02*
X163322000Y-99428300D01*
X162296600Y-99629000D02*
X162497300Y-99428300D01*
X162921400Y-100253800D02*
X163322000Y-100253800D01*
X162296600Y-99629000D02*
X162921400Y-100253800D01*
X162281400Y-99613800D02*
X162281400Y-99644200D01*
X162281400Y-99644200D02*
X162296600Y-99629000D01*
X161969000Y-99301400D02*
X162281400Y-99613800D01*
X160832800Y-99301400D02*
X161969000Y-99301400D01*
X160807500Y-99326700D02*
X160832800Y-99301400D01*
X159359700Y-99326700D02*
X160807500Y-99326700D01*
X161361120Y-95097600D02*
X161912300Y-95097600D01*
X159334200Y-93070680D02*
X161361120Y-95097600D01*
X159334200Y-93065500D02*
X159334200Y-93070680D01*
X158939700Y-93460000D02*
X159334200Y-93065500D01*
X157385000Y-93460000D02*
X158939700Y-93460000D01*
X149700700Y-101625400D02*
X148224200Y-103101900D01*
X150088500Y-101625400D02*
X149700700Y-101625400D01*
D20*
X164815760Y-85752940D02*
X165437940Y-86375120D01*
X163565940Y-85752940D02*
X164815760Y-85752940D01*
X162775900Y-84962900D02*
X163565940Y-85752940D01*
X163532920Y-91739720D02*
X166933880Y-91739720D01*
X166933880Y-91739720D02*
X167436800Y-91236800D01*
X162750500Y-90957300D02*
X163532920Y-91739720D01*
X162750500Y-89535100D02*
X162750500Y-90957300D01*
X161226500Y-89535100D02*
X162750500Y-89535100D01*
X161226500Y-90957300D02*
X162750500Y-90957300D01*
X161226500Y-89535100D02*
X161226500Y-90957300D01*
X160540600Y-91643200D02*
X160042860Y-91643200D01*
X161226500Y-90957300D02*
X160540600Y-91643200D01*
D19*
X152785000Y-87260620D02*
X152184100Y-86659720D01*
X151444860Y-85702140D02*
X152184100Y-86441380D01*
X152785000Y-88360000D02*
X152785000Y-87260620D01*
X152184100Y-86441380D02*
X152184100Y-86659720D01*
X151444860Y-84377940D02*
X152853700Y-82969100D01*
X151444860Y-85702140D02*
X151444860Y-84377940D01*
X160241310Y-100208310D02*
X160264355Y-100208310D01*
X159359700Y-99326700D02*
X160241310Y-100208310D01*
D20*
X161175800Y-87960100D02*
X164274500Y-87960100D01*
X159778700Y-89357200D02*
X161175800Y-87960100D01*
X159778700Y-90916300D02*
X159778700Y-89357200D01*
X158235000Y-92460000D02*
X159778700Y-90916300D01*
X157385000Y-92460000D02*
X158235000Y-92460000D01*
X159753300Y-86537900D02*
X161277300Y-86537900D01*
X157385000Y-91460000D02*
X158235000Y-91460000D01*
X158235000Y-91460000D02*
X159078679Y-90616321D01*
X159078679Y-90616321D02*
X159078679Y-87212521D01*
X159078679Y-87212521D02*
X159753300Y-86537900D01*
X161226500Y-92532300D02*
X162750500Y-92532300D01*
X164274500Y-92532300D02*
X162750500Y-92532300D01*
X158882080Y-92311220D02*
X161005420Y-92311220D01*
X158233300Y-92960000D02*
X158882080Y-92311220D01*
X161005420Y-92311220D02*
X161226500Y-92532300D01*
X157385000Y-92960000D02*
X158233300Y-92960000D01*
X162775900Y-86537900D02*
X164274500Y-86537900D01*
X162052100Y-87261700D02*
X162775900Y-86537900D01*
X158235000Y-91960000D02*
X159428689Y-90766311D01*
X160693100Y-87261700D02*
X162052100Y-87261700D01*
X159428689Y-88526111D02*
X160693100Y-87261700D01*
X159428689Y-90766311D02*
X159428689Y-88526111D01*
X157385000Y-91960000D02*
X158235000Y-91960000D01*
X154103700Y-84672900D02*
X154431900Y-85001100D01*
X154103700Y-82969100D02*
X154103700Y-84672900D01*
D19*
X155053710Y-82019090D02*
X154103700Y-82969100D01*
X158650890Y-82019090D02*
X155053710Y-82019090D01*
X159613600Y-82981800D02*
X158650890Y-82019090D01*
X164530990Y-82031790D02*
X160563610Y-82031790D01*
X167436800Y-84937600D02*
X164530990Y-82031790D01*
X160563610Y-82031790D02*
X159613600Y-82981800D01*
X167436800Y-84986800D02*
X167436800Y-84937600D01*
X145099990Y-89499390D02*
X146050000Y-90449400D01*
X146098310Y-82019090D02*
X145099990Y-83017410D01*
X153153690Y-82019090D02*
X146098310Y-82019090D01*
X145099990Y-83017410D02*
X145099990Y-89499390D01*
X154103700Y-82969100D02*
X153153690Y-82019090D01*
X157784700Y-97505102D02*
X157804602Y-97485200D01*
X157784700Y-99326700D02*
X157784700Y-97505102D01*
X153285000Y-89162700D02*
X153285000Y-88360000D01*
X156387800Y-92265500D02*
X153285000Y-89162700D01*
X156387800Y-95752402D02*
X156387800Y-92265500D01*
X156229802Y-95910400D02*
X156387800Y-95752402D01*
X167508860Y-84986800D02*
X167436800Y-84986800D01*
X168386810Y-85864750D02*
X167508860Y-84986800D01*
X168386810Y-91770150D02*
X168386810Y-85864750D01*
X165072060Y-95084900D02*
X168386810Y-91770150D01*
X164439600Y-95084900D02*
X165072060Y-95084900D01*
D21*
X166979600Y-99468940D02*
X166979600Y-100164900D01*
X164439600Y-96928940D02*
X166979600Y-99468940D01*
X164439600Y-95084900D02*
X164439600Y-96928940D01*
D19*
X153285000Y-85967280D02*
X153285000Y-88360000D01*
X153019860Y-85702140D02*
X153285000Y-85967280D01*
X158597500Y-98513900D02*
X157784700Y-99326700D01*
X162900360Y-98513900D02*
X158597500Y-98513900D01*
X164439600Y-96974660D02*
X162900360Y-98513900D01*
X164439600Y-95084900D02*
X164439600Y-96974660D01*
X157784700Y-97465298D02*
X156229802Y-95910400D01*
X157804602Y-97485200D02*
X157784700Y-97465298D01*
X157812222Y-97477580D02*
X157804602Y-97485200D01*
X159174080Y-97477580D02*
X157812222Y-97477580D01*
X159334200Y-97637700D02*
X159174080Y-97477580D01*
X150785000Y-95607700D02*
X150785000Y-97060000D01*
X151295091Y-95097609D02*
X150785000Y-95607700D01*
X152458429Y-95097609D02*
X151295091Y-95097609D01*
X156112962Y-96027240D02*
X153388060Y-96027240D01*
X153388060Y-96027240D02*
X152458429Y-95097609D01*
X156229802Y-95910400D02*
X156112962Y-96027240D01*
X150785000Y-97060000D02*
X150785000Y-98196460D01*
X149934160Y-99047300D02*
X149567800Y-99047300D01*
X150785000Y-98196460D02*
X149934160Y-99047300D01*
D20*
X157385000Y-87560700D02*
X157385000Y-89960000D01*
X156260500Y-86436200D02*
X157385000Y-87560700D01*
X156819600Y-85877100D02*
X156260500Y-86436200D01*
X156819600Y-83185000D02*
X156819600Y-85877100D01*
X156603700Y-82969100D02*
X156819600Y-83185000D01*
X154787600Y-86448900D02*
X154610100Y-86448900D01*
X156006900Y-85229600D02*
X154787600Y-86448900D01*
X156006900Y-85001100D02*
X156006900Y-85229600D01*
D19*
X165138100Y-99520500D02*
X164296600Y-98679000D01*
X163514902Y-106362500D02*
X165138100Y-104739302D01*
X165138100Y-104739302D02*
X165138100Y-99520500D01*
X160014300Y-106362500D02*
X163514902Y-106362500D01*
X158972900Y-107403900D02*
X160014300Y-106362500D01*
X158762200Y-105114600D02*
X159829500Y-105114600D01*
X156472900Y-107403900D02*
X158762200Y-105114600D01*
X155222900Y-106165200D02*
X156273500Y-105114600D01*
X155222900Y-107403900D02*
X155222900Y-106165200D01*
X152722900Y-106453900D02*
X152722900Y-107403900D01*
X151370900Y-105101900D02*
X152722900Y-106453900D01*
X149174200Y-105101900D02*
X151370900Y-105101900D01*
D20*
X167264720Y-88736800D02*
X167436800Y-88736800D01*
X166466420Y-89535100D02*
X167264720Y-88736800D01*
X164274500Y-89535100D02*
X166466420Y-89535100D01*
X167203440Y-89986800D02*
X167436800Y-89986800D01*
X166232940Y-90957300D02*
X167203440Y-89986800D01*
X164274500Y-90957300D02*
X166232940Y-90957300D01*
X151785000Y-88360000D02*
X151785000Y-87710650D01*
X151785000Y-87710650D02*
X150353700Y-86279350D01*
X150353700Y-86279350D02*
X150353700Y-82969100D01*
X152285000Y-87715660D02*
X150718011Y-86148671D01*
X150718011Y-86148671D02*
X150718011Y-83854789D01*
X150718011Y-83854789D02*
X151603700Y-82969100D01*
X152285000Y-88360000D02*
X152285000Y-87715660D01*
X147347940Y-103624060D02*
X146050000Y-104922000D01*
X147347940Y-102374700D02*
X147347940Y-103624060D01*
X148183600Y-101539040D02*
X147347940Y-102374700D01*
X151979780Y-100900390D02*
X149675582Y-100900390D01*
X149036932Y-101539040D02*
X148183600Y-101539040D01*
X149675582Y-100900390D02*
X149036932Y-101539040D01*
X153285000Y-99595170D02*
X151979780Y-100900390D01*
X153285000Y-97060000D02*
X153285000Y-99595170D01*
X146997929Y-102724071D02*
X146997929Y-102229721D01*
X149567593Y-100513389D02*
X151871791Y-100513389D01*
X146997929Y-102229721D02*
X148054370Y-101173280D01*
X148054370Y-101173280D02*
X148907702Y-101173280D01*
X148907702Y-101173280D02*
X149567593Y-100513389D01*
X146050000Y-103672000D02*
X146997929Y-102724071D01*
X151871791Y-100513389D02*
X152785000Y-99600180D01*
X152785000Y-99600180D02*
X152785000Y-97060000D01*
X146050000Y-102430900D02*
X146050000Y-102422000D01*
X147910680Y-100820220D02*
X146300000Y-102430900D01*
X146300000Y-102430900D02*
X146050000Y-102430900D01*
X149422614Y-100163378D02*
X148765772Y-100820220D01*
X152356302Y-99533888D02*
X151726812Y-100163378D01*
X148765772Y-100820220D02*
X147910680Y-100820220D01*
X152356303Y-97131303D02*
X152356302Y-99533888D01*
X151726812Y-100163378D02*
X149422614Y-100163378D01*
X152285000Y-97060000D02*
X152356303Y-97131303D01*
X146950010Y-86862598D02*
X146086412Y-85999000D01*
X146950010Y-89396150D02*
X146950010Y-86862598D01*
X148013860Y-90460000D02*
X146950010Y-89396150D01*
X146086412Y-85999000D02*
X146050000Y-85999000D01*
X148685000Y-90460000D02*
X148013860Y-90460000D01*
X147033489Y-85732489D02*
X146050000Y-84749000D01*
X147033489Y-86451087D02*
X147033489Y-85732489D01*
X147300020Y-86717618D02*
X147033489Y-86451087D01*
X147300020Y-88803820D02*
X147300020Y-86717618D01*
X148456200Y-89960000D02*
X147300020Y-88803820D01*
X148685000Y-89960000D02*
X148456200Y-89960000D01*
X147599400Y-94208600D02*
X146059200Y-94208600D01*
X147850800Y-94460000D02*
X147599400Y-94208600D01*
X146059200Y-94208600D02*
X146050000Y-94199400D01*
X148685000Y-94460000D02*
X147850800Y-94460000D01*
X147419700Y-95442400D02*
X146050000Y-95442400D01*
X147902100Y-94960000D02*
X147419700Y-95442400D01*
X148685000Y-94960000D02*
X147902100Y-94960000D01*
X146848500Y-96699400D02*
X146050000Y-96699400D01*
X148087900Y-95460000D02*
X146848500Y-96699400D01*
X148685000Y-95460000D02*
X148087900Y-95460000D01*
X159247530Y-84264500D02*
X160830900Y-84264500D01*
X157385000Y-90960000D02*
X158235000Y-90960000D01*
X158728669Y-84783361D02*
X159247530Y-84264500D01*
X158235000Y-90960000D02*
X158728669Y-90466331D01*
X158728669Y-90466331D02*
X158728669Y-84783361D01*
X160830900Y-84264500D02*
X162113600Y-82981800D01*
X159102551Y-83914489D02*
X158378658Y-84638382D01*
X160180911Y-83914489D02*
X159102551Y-83914489D01*
X160863600Y-83231800D02*
X160180911Y-83914489D01*
X158378658Y-84638382D02*
X158378658Y-90316342D01*
X158235000Y-90460000D02*
X157385000Y-90460000D01*
X160863600Y-82981800D02*
X160863600Y-83231800D01*
X158378658Y-90316342D02*
X158235000Y-90460000D01*
X151600700Y-101625400D02*
X150124200Y-103101900D01*
X151663500Y-101625400D02*
X151600700Y-101625400D01*
X151749760Y-101625400D02*
X153785000Y-99590160D01*
X151663500Y-101625400D02*
X151749760Y-101625400D01*
X153785000Y-99590160D02*
X153785000Y-97060000D01*
X154673400Y-102108700D02*
X153667500Y-103114600D01*
X154673400Y-101625400D02*
X154673400Y-102108700D01*
X154673300Y-101625300D02*
X154673400Y-101625400D01*
X154285000Y-101237000D02*
X154673300Y-101625300D01*
X154285000Y-97060000D02*
X154285000Y-101237000D01*
X157683300Y-102654800D02*
X157223500Y-103114600D01*
X157683300Y-101625400D02*
X157683300Y-102654800D01*
X154785000Y-98722120D02*
X154785000Y-97060000D01*
X157683300Y-101620420D02*
X154785000Y-98722120D01*
X157683300Y-101625400D02*
X157683300Y-101620420D01*
X160667800Y-103002900D02*
X160779500Y-103114600D01*
X160667800Y-101625400D02*
X160667800Y-103002900D01*
X159415388Y-100810060D02*
X157367930Y-100810060D01*
X157367930Y-100810060D02*
X155285000Y-98727130D01*
X160667800Y-101625400D02*
X160230728Y-101625400D01*
X155285000Y-98727130D02*
X155285000Y-97060000D01*
X160230728Y-101625400D02*
X159415388Y-100810060D01*
X163652300Y-102444100D02*
X164322800Y-103114600D01*
X163652300Y-101638100D02*
X163652300Y-102444100D01*
X159560367Y-100460049D02*
X157512909Y-100460049D01*
X159958638Y-100858320D02*
X159560367Y-100460049D01*
X155785000Y-98732140D02*
X155785000Y-97060000D01*
X163652300Y-101638100D02*
X162872520Y-100858320D01*
X162872520Y-100858320D02*
X159958638Y-100858320D01*
X157512909Y-100460049D02*
X155785000Y-98732140D01*
X160835400Y-97729000D02*
X160832800Y-97726400D01*
X162296600Y-97729000D02*
X160835400Y-97729000D01*
X158775200Y-96850200D02*
X157385000Y-95460000D01*
X159956600Y-96850200D02*
X158775200Y-96850200D01*
X160832800Y-97726400D02*
X159956600Y-96850200D01*
X155353700Y-82969100D02*
X155232100Y-83090700D01*
X153974800Y-85737700D02*
X153746200Y-85966300D01*
X153746200Y-85966300D02*
X153746200Y-88321200D01*
X154990800Y-85737700D02*
X153974800Y-85737700D01*
X155232100Y-85496400D02*
X154990800Y-85737700D01*
X153746200Y-88321200D02*
X153785000Y-88360000D01*
X155232100Y-83090700D02*
X155232100Y-85496400D01*
X162021420Y-84218780D02*
X165160960Y-84218780D01*
X167178980Y-86236800D02*
X167436800Y-86236800D01*
X165160960Y-84218780D02*
X167178980Y-86236800D01*
X161277300Y-84962900D02*
X162021420Y-84218780D01*
X167436800Y-87454740D02*
X167436800Y-87486800D01*
X164944960Y-84962900D02*
X167436800Y-87454740D01*
X164274500Y-84962900D02*
X164944960Y-84962900D01*
D19*
X163372800Y-105120440D02*
X163372800Y-105114600D01*
X159221500Y-105905300D02*
X162587940Y-105905300D01*
X162587940Y-105905300D02*
X163372800Y-105120440D01*
X157722900Y-107403900D02*
X159221500Y-105905300D01*
X153972900Y-106370000D02*
X153972900Y-107403900D01*
X152717500Y-105114600D02*
X153972900Y-106370000D01*
D20*
X147561300Y-91706700D02*
X146057300Y-91706700D01*
X147808000Y-91460000D02*
X147561300Y-91706700D01*
X146057300Y-91706700D02*
X146050000Y-91699400D01*
X148685000Y-91460000D02*
X147808000Y-91460000D01*
X147004400Y-92949400D02*
X146050000Y-92949400D01*
X147993800Y-91960000D02*
X147004400Y-92949400D01*
X148685000Y-91960000D02*
X147993800Y-91960000D01*
X148602700Y-85023340D02*
X148602700Y-84086700D01*
X151285000Y-87705640D02*
X148602700Y-85023340D01*
X151285000Y-88360000D02*
X151285000Y-87705640D01*
X149380870Y-86296500D02*
X148602700Y-86296500D01*
X150785000Y-87700630D02*
X149380870Y-86296500D01*
X150785000Y-88360000D02*
X150785000Y-87700630D01*
X152841960Y-91968320D02*
X154604720Y-91968320D01*
X152350280Y-92460000D02*
X152841960Y-91968320D01*
X154604720Y-91968320D02*
X155422600Y-92786200D01*
X148685000Y-92460000D02*
X152350280Y-92460000D01*
X153142600Y-92960000D02*
X153316400Y-92786200D01*
X148685000Y-92960000D02*
X153142600Y-92960000D01*
X149682200Y-89598500D02*
X148590000Y-88506300D01*
X149682200Y-90812800D02*
X149682200Y-89598500D01*
X149535000Y-90960000D02*
X149682200Y-90812800D01*
X148685000Y-90960000D02*
X149535000Y-90960000D01*
X153959560Y-93456760D02*
X155422600Y-94919800D01*
X148688240Y-93456760D02*
X153959560Y-93456760D01*
X148685000Y-93460000D02*
X148688240Y-93456760D01*
X148685000Y-93960000D02*
X152378001Y-93960000D01*
X152378001Y-93960000D02*
X153316400Y-94898399D01*
D19*
X159334200Y-94640500D02*
X159334200Y-96062700D01*
X158653700Y-93960000D02*
X159334200Y-94640500D01*
X157385000Y-93960000D02*
X158653700Y-93960000D01*
D20*
X148636542Y-100454460D02*
X146767540Y-100454460D01*
X149277634Y-99813368D02*
X148636542Y-100454460D01*
X151581833Y-99813367D02*
X149277634Y-99813368D01*
X152006292Y-99388908D02*
X151581833Y-99813367D01*
X152006292Y-98131294D02*
X152006292Y-99388908D01*
X146767540Y-100454460D02*
X146050000Y-101172000D01*
X151785000Y-97910002D02*
X152006292Y-98131294D01*
X151785000Y-97060000D02*
X151785000Y-97910002D01*
X147383500Y-86207600D02*
X147383500Y-84832500D01*
X147383500Y-84832500D02*
X146050000Y-83499000D01*
X149535900Y-88360000D02*
X147383500Y-86207600D01*
X150285000Y-88360000D02*
X149535900Y-88360000D01*
X150285000Y-97060000D02*
X149027900Y-97060000D01*
X148369551Y-97718349D02*
X148369551Y-99802211D01*
X149027900Y-97060000D02*
X148369551Y-97718349D01*
M02*
