M48
INCH,TZ
T1C0.0157
T2C0.0197
T3C0.0394
%
G90
G05
T1
X58350Y-40950
X58413Y-39292
X58500Y-34845
X58505Y-33105
X58505Y-33975
X58715Y-40950
X59465Y-40950
X59659Y-37740
X59915Y-34118
X59932Y-37740
X60105Y-40950
X60361Y-36530
X60361Y-37362
X60905Y-40950
X61190Y-36530
X61190Y-37370
X61505Y-40950
X62315Y-40950
X62905Y-40950
X63009Y-36080
X63096Y-39452
X63700Y-40950
X64295Y-40945
X64300Y-39145
X64300Y-39470
X65133Y-34006
T2
X57500Y-35607
X57500Y-36099
X57500Y-36591
X57500Y-37084
X57500Y-37576
X57500Y-38068
X57500Y-38560
X62840Y-32670
X63332Y-32670
X63824Y-32670
X64316Y-32670
X57500Y-32875
X57500Y-33367
X57500Y-33859
X57500Y-34351
X57500Y-39835
X57500Y-40327
X57500Y-40819
X57500Y-41311
X57500Y-41804
X65920Y-33459
X65920Y-33951
X65920Y-34444
X65920Y-34936
X65920Y-35428
X65920Y-35920
X59194Y-32665
X59686Y-32665
X60179Y-32665
X60671Y-32665
X61163Y-32665
X61655Y-32665
X59635Y-42285
X60127Y-42285
X60619Y-42285
X61111Y-42285
X61604Y-42285
X62096Y-42285
X62588Y-42285
T3
X65735Y-39295
X65735Y-40295
X63740Y-37435
X64740Y-37435
X65740Y-37435
T0
M30
